<svg width="40" height="40" viewBox="0 0 40 40" fill="none" xmlns="http://www.w3.org/2000/svg">
<path d="M22.4173 13.134C22.4434 13.1339 22.4696 13.1339 22.4965 13.1338C24.263 13.1343 25.8725 13.7603 27.4331 14.5316C27.3323 14.5652 27.3009 14.5614 27.2004 14.5398C27.16 14.5313 27.16 14.5313 27.1187 14.5227C27.0765 14.5135 27.0765 14.5135 27.0335 14.5041C26.9782 14.4923 26.923 14.4805 26.8677 14.4689C26.8433 14.4636 26.8188 14.4583 26.7936 14.4528C26.5824 14.4139 26.3766 14.4001 26.1624 14.3982C26.1347 14.3978 26.1071 14.3975 26.0786 14.3972C25.4904 14.392 24.9207 14.3888 24.3465 14.5316C24.3195 14.5381 24.2926 14.5445 24.2649 14.5511C22.9012 14.8833 21.646 15.6014 20.5082 16.4054C20.4412 16.4528 20.3738 16.4997 20.3065 16.5467C19.7478 16.9369 19.2044 17.3473 18.665 17.7636C18.4191 17.9532 18.1712 18.1401 17.9225 18.326C17.8596 18.3732 17.7969 18.4204 17.7341 18.4678C17.5107 18.6363 17.2859 18.8028 17.0591 18.9667C17.0366 18.9829 17.0142 18.9991 16.991 19.0158C15.3129 20.2239 13.508 21.322 11.4331 21.6498C11.3905 21.6568 11.3905 21.6568 11.3471 21.664C10.4538 21.8091 9.58118 21.7622 8.69291 21.6183C8.66357 21.6137 8.63423 21.6092 8.60399 21.6045C7.82797 21.4816 7.08251 21.1992 6.36221 20.8938C6.33655 20.8832 6.31089 20.8725 6.28445 20.8615C4.9104 20.2897 3.62609 19.3959 2.48425 18.449C2.41375 18.3907 2.3429 18.3331 2.27165 18.2757C2.05723 18.1031 1.84548 17.9294 1.64247 17.7433C1.58008 17.6861 1.51675 17.6303 1.45276 17.5749C1.32776 17.4661 1.20591 17.354 1.0841 17.2417C0.997672 17.1621 0.910365 17.0841 0.820866 17.008C0.685171 16.8907 0.560707 16.7626 0.43477 16.635C0.319505 16.5188 0.201346 16.4085 0.0752953 16.3039C0.0314961 16.2639 0.0314961 16.2639 0 16.2009C0.0898583 16.2428 0.164155 16.29 0.241265 16.3521C0.263354 16.3697 0.285443 16.3873 0.308202 16.4054C0.331869 16.4243 0.355537 16.4433 0.379921 16.4627C0.674257 16.6946 0.978976 16.9075 1.29134 17.1143C1.3147 17.1298 1.33806 17.1453 1.36213 17.1612C1.85069 17.4836 2.35173 17.7801 2.86614 18.0592C2.89343 18.0741 2.92071 18.089 2.94882 18.1044C4.38118 18.8838 5.97928 19.4269 7.62205 19.4253C7.64739 19.4254 7.67273 19.4254 7.69884 19.4255C9.42007 19.4251 11.0428 18.832 12.5002 17.9421C12.5704 17.8996 12.6412 17.8582 12.7121 17.817C13.1191 17.5789 13.508 17.3173 13.8957 17.0494C13.9724 16.9965 14.0493 16.9439 14.1264 16.8915C14.3675 16.7274 14.605 16.5587 14.841 16.3873C15.0706 16.2208 15.3022 16.0571 15.5343 15.894C15.5821 15.8604 15.6298 15.8267 15.6774 15.793C16.0306 15.5435 16.3927 15.307 16.7574 15.0748C16.8249 15.0317 16.8923 14.9883 16.9596 14.9449C17.4315 14.6422 17.9157 14.3688 18.42 14.124C18.4933 14.0882 18.5661 14.0516 18.639 14.015C19.8252 13.4264 21.0953 13.1353 22.4173 13.134Z" fill="#7FCBF7"/>
<path d="M37.5869 19.8386C37.6705 19.9153 37.7509 19.9942 37.8305 20.0751C37.8665 20.1111 37.8665 20.1111 37.9033 20.1479C37.9312 20.1758 37.9592 20.2038 37.9879 20.2326C38.0053 20.2485 38.0227 20.2644 38.0406 20.2808C38.4065 20.6255 38.6767 21.0636 38.9328 21.4924C38.9545 21.5279 38.9761 21.5634 38.9984 21.5999C39.4764 22.405 39.9212 23.4809 40.0037 24.4215C39.9933 24.4423 39.9829 24.4631 39.9722 24.4845C39.9512 24.4574 39.9302 24.4304 39.9086 24.4025C39.815 24.2822 39.7206 24.1627 39.6257 24.0436C39.6053 24.0179 39.6053 24.0179 39.5845 23.9916C39.2291 23.5483 38.8224 23.1234 38.3659 22.7837C38.3451 22.7682 38.3243 22.7527 38.3029 22.7367C37.2192 21.93 36.019 21.4188 34.6808 21.2089C34.649 21.2038 34.6172 21.1986 34.5844 21.1933C33.6755 21.0511 32.7271 21.0817 31.8147 21.1774C31.7839 21.1806 31.753 21.1838 31.7213 21.1872C30.633 21.3051 29.5622 21.5836 28.5194 21.9097C28.4839 21.9208 28.4839 21.9208 28.4477 21.932C28.3062 21.9772 28.1717 22.0318 28.0352 22.0908C27.9559 22.119 27.8766 22.1465 27.797 22.1735C27.4614 22.2899 27.1339 22.4251 26.8068 22.5633C26.7839 22.5729 26.7611 22.5825 26.7375 22.5925C25.8268 22.9789 24.899 23.4144 24.0667 23.9491C24.0071 23.9868 23.9474 24.0242 23.8875 24.0613C23.8627 24.0769 23.8379 24.0926 23.8124 24.1087C23.7924 24.1184 23.7723 24.1281 23.7517 24.1381C23.7309 24.1277 23.7101 24.1173 23.6887 24.1066C23.8952 23.9138 24.1035 23.7265 24.3237 23.5494C24.4043 23.4838 24.4835 23.4171 24.5623 23.3495C24.7491 23.1897 24.9403 23.0374 25.1359 22.8887C25.2214 22.8233 25.3057 22.7568 25.3895 22.6892C26.0866 22.1294 26.8136 21.6025 27.5627 21.1144C27.5874 21.0983 27.6121 21.0822 27.6376 21.0655C28.3296 20.6146 29.0434 20.2076 29.7796 19.8335C29.8493 19.798 29.9188 19.7622 29.9882 19.726C30.9835 19.2145 32.0388 18.8819 33.1375 18.6892C33.1605 18.685 33.1834 18.6807 33.2071 18.6763C34.7495 18.3929 36.4053 18.8131 37.5869 19.8386Z" fill="#7FCBF7"/>
<path d="M29.1736 15.1249C29.2229 15.1247 29.2229 15.1247 29.2733 15.1246C29.3425 15.1244 29.4118 15.1243 29.4811 15.1243C29.5849 15.1243 29.6886 15.1237 29.7923 15.1231C30.349 15.1216 30.8995 15.1498 31.4465 15.2601C31.4802 15.2668 31.5139 15.2735 31.5486 15.2804C32.9754 15.5733 34.2937 16.1166 35.5902 16.768C35.4882 16.8019 35.4531 16.7971 35.3506 16.7761C35.3222 16.7704 35.2938 16.7648 35.2646 16.759C35.2201 16.7498 35.2201 16.7498 35.1748 16.7404C35.1166 16.7286 35.0584 16.7169 35.0002 16.7052C34.9744 16.6999 34.9486 16.6946 34.9221 16.6891C34.7009 16.6497 34.4871 16.6366 34.2629 16.6356C34.2326 16.6354 34.2023 16.6352 34.1711 16.635C34.107 16.6347 34.0429 16.6345 33.9789 16.6344C33.8831 16.6341 33.7873 16.6331 33.6915 16.6321C33.1513 16.6292 32.6364 16.6928 32.1118 16.8231C32.0788 16.8312 32.0458 16.8393 32.0118 16.8477C31.4031 17.0015 30.836 17.2276 30.2673 17.4924C30.2398 17.5052 30.2122 17.5179 30.1838 17.5311C29.0175 18.0779 27.9184 18.8527 26.9263 19.6711C26.7763 19.7945 26.6231 19.9128 26.4681 20.0298C26.2601 20.1871 26.0607 20.3521 25.864 20.5234C25.7742 20.6015 25.6827 20.6772 25.5902 20.7522C25.457 20.8603 25.3264 20.971 25.1965 21.0829C25.0393 21.2183 24.8802 21.3508 24.7191 21.4815C24.6145 21.5677 24.5117 21.6559 24.4091 21.7443C24.2536 21.8782 24.0966 22.0099 23.9374 22.1393C23.8422 22.2167 23.7474 22.2947 23.6528 22.3728C22.8516 23.0339 22.8516 23.0339 22.4548 23.3353C22.3818 23.3909 22.3091 23.4467 22.2363 23.5026C20.137 25.112 17.7964 26.5185 15.1177 26.8152C15.0938 26.818 15.0698 26.8207 15.0451 26.8235C14.8569 26.844 14.6709 26.8521 14.4816 26.8531C14.452 26.8533 14.4223 26.8535 14.3917 26.8538C14.2964 26.8543 14.2012 26.8545 14.1059 26.8546C14.0733 26.8546 14.0408 26.8546 14.0072 26.8546C13.5297 26.8541 13.0687 26.8385 12.598 26.7522C12.5662 26.7468 12.5343 26.7414 12.5014 26.7358C9.35998 26.2031 6.60315 24.3505 4.00502 22.0579C3.94416 22.0031 3.88255 21.9494 3.82047 21.8959C3.6933 21.7851 3.56987 21.6703 3.44646 21.5554C3.42676 21.537 3.40706 21.5187 3.38676 21.4998C3.28775 21.4073 3.19034 21.3136 3.09483 21.2174C3.02285 21.1449 2.95002 21.0757 2.87166 21.0101C2.71443 20.8748 2.57004 20.7269 2.4248 20.579C2.53714 20.579 2.55723 20.5996 2.64528 20.6656C3.95724 21.6089 5.46704 22.3751 6.99173 22.9097C7.02503 22.9214 7.05832 22.9331 7.09262 22.9452C7.84465 23.2063 8.64602 23.4102 9.43662 23.5121C9.47145 23.5167 9.50629 23.5213 9.54218 23.5261C9.89702 23.5661 10.2511 23.5787 10.6079 23.579C10.6324 23.579 10.6569 23.579 10.6821 23.579C11.7141 23.5776 12.7509 23.4601 13.7319 23.1302C13.7659 23.1191 13.7998 23.108 13.8348 23.0966C14.5135 22.875 15.1747 22.6203 15.8004 22.2741C15.9061 22.2162 16.0133 22.1631 16.1217 22.1105C17.0768 21.6356 17.9791 21.002 18.8371 20.371C18.9293 20.3036 19.0225 20.2376 19.1157 20.1715C19.3657 19.9936 19.6122 19.8109 19.8589 19.6285C19.9359 19.5716 20.013 19.5149 20.0902 19.4582C20.3239 19.2863 20.5572 19.1139 20.789 18.9392C21.2395 18.6003 21.6994 18.2747 22.1623 17.953C22.2294 17.9063 22.2964 17.8594 22.3633 17.8125C22.8627 17.464 23.3781 17.136 23.9051 16.831C23.9462 16.8071 23.9462 16.8071 23.988 16.7828C25.2765 16.0378 26.6238 15.4826 28.0941 15.2247C28.1253 15.219 28.1565 15.2134 28.1886 15.2076C28.2201 15.2021 28.2517 15.1966 28.2842 15.1909C28.3258 15.1836 28.3258 15.1836 28.3683 15.1762C28.6367 15.1386 28.9028 15.1252 29.1736 15.1249Z" fill="#527EBA"/>
</svg>
