<svg width="40" height="40" viewBox="0 0 40 40" fill="none" xmlns="http://www.w3.org/2000/svg">
<path d="M30.8642 20.7047C30.9758 20.7045 31.0873 20.704 31.1988 20.7032C31.9398 20.6977 32.6596 20.7302 33.3957 20.8238C33.4641 20.8321 33.5324 20.8404 33.6008 20.8487C34.9452 21.0119 36.4827 21.4948 37.515 22.4053C37.545 22.4314 37.575 22.4574 37.6059 22.4842C37.6996 22.5669 37.7914 22.6511 37.8828 22.7363C37.9135 22.7647 37.9443 22.793 37.976 22.8222C38.8349 23.6427 39.404 24.9786 39.4334 26.1668C39.4341 26.225 39.4346 26.2832 39.4349 26.3414C39.4352 26.3887 39.4352 26.3887 39.4356 26.4369C39.4359 26.5036 39.4362 26.5703 39.4363 26.637C39.4366 26.7366 39.4378 26.8363 39.439 26.9359C39.4423 27.4791 39.3835 28.0015 39.2298 28.5244C39.2219 28.5518 39.214 28.5792 39.2058 28.6075C39.1368 28.8407 39.0545 29.0634 38.9493 29.283C38.9384 29.306 38.9274 29.3291 38.9161 29.3528C38.3046 30.6189 37.2685 31.5039 35.956 31.9931C34.9033 32.3591 33.6656 32.3392 32.6523 31.8554C32.3701 31.7109 32.0914 31.5504 31.851 31.3426C31.7962 31.2956 31.7962 31.2956 31.7403 31.2478C31.0734 30.6631 30.6436 29.9149 30.402 29.064C30.3816 28.9946 30.358 28.9263 30.334 28.8581C30.0862 28.0734 30.1531 27.0598 30.5145 26.325C30.5389 26.2781 30.5389 26.2781 30.5638 26.2303C30.5804 26.1972 30.597 26.164 30.6142 26.1299C30.7844 25.8028 30.9878 25.4863 31.2626 25.2373C31.2218 25.4296 31.176 25.6192 31.1227 25.8084C30.7969 26.9796 30.743 28.2367 31.3453 29.3312C31.4852 29.5763 31.6501 29.7828 31.851 29.9818C31.8829 30.0151 31.9147 30.0485 31.9476 30.0829C31.9764 30.1102 32.0052 30.1375 32.0349 30.1657C32.0515 30.182 32.068 30.1984 32.0851 30.2152C32.6803 30.7691 33.5614 31.0443 34.3625 31.0183C34.4076 31.0161 34.4526 31.0139 34.4991 31.0116C34.5377 31.0112 34.5764 31.0109 34.6162 31.0106C35.3527 30.9871 36.0905 30.6559 36.6323 30.1657C36.6597 30.1412 36.6871 30.1168 36.7153 30.0917C37.4324 29.4158 37.8061 28.4314 37.8523 27.457C37.8848 26.3428 37.7835 25.3193 37.0368 24.4282C37.0137 24.398 36.9906 24.3678 36.9667 24.3366C36.5598 23.8484 35.9292 23.5119 35.345 23.288C35.3143 23.276 35.2836 23.2639 35.252 23.2515C34.6934 23.035 34.135 22.8979 33.5429 22.8099C33.5028 22.8039 33.4627 22.7979 33.4214 22.7916C32.5108 22.6623 31.5914 22.6847 30.6741 22.6996C30.6258 22.7003 30.5775 22.7011 30.5277 22.7019C29.0787 22.7308 27.6185 22.9468 26.1939 23.2002C26.1067 23.2157 26.0195 23.2311 25.9323 23.2465C25.2323 23.3705 24.5336 23.4993 23.8371 23.6418C21.8931 24.039 19.9343 24.2502 17.9527 24.3308C17.9203 24.3322 17.8879 24.3335 17.8545 24.3349C17.7941 24.3374 17.7338 24.3398 17.6734 24.342C17.6325 24.3437 17.6325 24.3437 17.5907 24.3454C17.5674 24.3463 17.544 24.3472 17.52 24.3481C17.4449 24.3538 17.3701 24.3632 17.2955 24.3732C17.1436 24.3927 16.9929 24.3968 16.8399 24.3967C16.8114 24.3968 16.7829 24.397 16.7535 24.3971C16.6594 24.3974 16.5654 24.3975 16.4713 24.3976C16.4045 24.3977 16.3376 24.3979 16.2707 24.398C16.0554 24.3984 15.84 24.3984 15.6247 24.3983C15.5508 24.3983 15.4769 24.3983 15.403 24.3983C14.282 24.398 13.1638 24.3826 12.0441 24.3226C11.9601 24.3182 11.8761 24.314 11.7921 24.3101C10.3644 24.2424 8.93336 24.1024 7.51997 23.89C7.42278 23.8754 7.32556 23.8611 7.22833 23.8469C6.43463 23.7302 5.64664 23.6055 4.8645 23.4253C4.73777 23.3967 4.61076 23.3698 4.48357 23.3433C3.94084 23.2303 3.40354 23.1052 2.86932 22.957C2.8335 22.9471 2.79769 22.9372 2.76078 22.927C2.04792 22.7284 1.35363 22.4862 0.660295 22.2283C0.623315 22.2146 0.586335 22.2009 0.548234 22.1868C0.37262 22.1207 0.20288 22.0525 0.0373535 21.964C0.156623 21.9265 0.248532 21.9284 0.372098 21.9439C0.409893 21.9484 0.447688 21.9529 0.486628 21.9576C0.528008 21.9627 0.569388 21.9679 0.612022 21.9732C0.937535 22.0118 1.26267 22.0457 1.58943 22.0717C2.19475 22.1201 2.79578 22.1921 3.39802 22.2697C4.45724 22.4059 5.5184 22.5147 6.58153 22.6153C6.682 22.6248 6.78244 22.6345 6.88288 22.6444C7.5502 22.7096 8.21802 22.7557 8.88726 22.7961C8.92545 22.7984 8.96365 22.8007 9.00301 22.8031C9.2275 22.8165 9.45203 22.8291 9.67662 22.841C9.74483 22.8446 9.81304 22.8484 9.88124 22.8523C10.7097 22.8997 11.5402 22.8908 12.3697 22.8903C12.4091 22.8903 12.4484 22.8903 12.4889 22.8903C13.6848 22.8902 14.8789 22.8853 16.0729 22.8099C16.1199 22.807 16.1199 22.807 16.1679 22.804C16.5858 22.7775 17.003 22.7443 17.4201 22.7072C17.5083 22.6995 17.5965 22.6922 17.6848 22.685C18.4612 22.6214 19.2295 22.5268 19.9991 22.4053C20.0381 22.3992 20.0771 22.393 20.1173 22.3867C20.6061 22.3089 21.0927 22.2223 21.5784 22.1275C21.702 22.1036 21.8256 22.0806 21.9493 22.0575C22.6064 21.9337 23.2565 21.7889 23.9068 21.633C25.4361 21.2664 26.9749 20.9826 28.5386 20.8123C28.5797 20.8078 28.5797 20.8078 28.6217 20.8033C29.3694 20.7225 30.1129 20.7056 30.8642 20.7047Z" fill="#7ED857"/>
<path d="M21.8464 6.84788C21.8714 6.85438 21.8963 6.86087 21.9221 6.86756C22.5348 7.02852 23.1252 7.30147 23.6485 7.65701C23.6802 7.67842 23.6802 7.67842 23.7126 7.70026C23.9735 7.87766 24.2181 8.06372 24.4492 8.27938C24.5245 8.34957 24.6018 8.41599 24.6806 8.48224C25.9564 9.59982 26.7515 11.3947 26.8851 13.0635C26.8947 13.241 26.8957 13.4184 26.8947 13.5961C26.8943 13.6728 26.8947 13.7494 26.8951 13.826C26.8955 14.1664 26.8645 14.4921 26.8115 14.8289C26.8043 14.8785 26.8043 14.8785 26.797 14.929C26.5654 16.4876 25.7855 17.9776 24.5312 18.9481C24.498 18.9758 24.4648 19.0036 24.4305 19.0322C22.7202 20.4253 20.1511 21.1348 17.9863 21.3136C17.8282 21.3269 17.6741 21.3471 17.518 21.3751C17.2653 21.4187 17.0128 21.4357 16.7571 21.4514C16.6672 21.4571 16.5772 21.4629 16.4873 21.4688C16.4481 21.4712 16.4089 21.4736 16.3686 21.4761C16.2577 21.4839 16.2577 21.4839 16.1562 21.504C15.9827 21.5307 15.8098 21.5364 15.6345 21.5429C15.5932 21.5444 15.552 21.546 15.5095 21.5475C14.9447 21.5664 14.3796 21.5663 13.8145 21.5662C13.6864 21.5662 13.5582 21.5665 13.4301 21.567C12.6448 21.57 11.866 21.5543 11.0827 21.495C10.9602 21.4859 10.8377 21.4776 10.7152 21.4697C8.90657 21.3517 7.09281 21.0807 5.32349 20.6928C5.29164 20.6858 5.2598 20.6788 5.22699 20.6717C4.50746 20.5133 3.79683 20.3303 3.08918 20.125C3.06268 20.1174 3.03618 20.1098 3.00888 20.102C1.92663 19.7855 0.906448 19.2055 -0.000244141 18.5435C0.101384 18.4927 0.149649 18.5194 0.259057 18.5475C0.297912 18.5574 0.336769 18.5672 0.376801 18.5773C0.419166 18.5883 0.461529 18.5993 0.505177 18.6106C0.549044 18.6218 0.592909 18.6329 0.638105 18.6444C0.779381 18.6802 0.92057 18.7165 1.06174 18.7527C1.6336 18.8993 2.20359 19.0433 2.78387 19.1526C2.92808 19.1802 3.07181 19.2101 3.2156 19.2398C4.8295 19.5699 6.45823 19.85 8.10259 19.971C8.13119 19.9731 8.1598 19.9752 8.18927 19.9774C8.38937 19.9918 8.58956 20.0039 8.78989 20.0147C8.82191 20.0164 8.85393 20.0182 8.88693 20.0199C9.53553 20.0537 10.1841 20.0604 10.8334 20.0607C10.8732 20.0607 10.8732 20.0607 10.9137 20.0608C11.9633 20.0616 13.0072 20.0221 14.0544 19.9485C14.1528 19.9416 14.2513 19.9351 14.3497 19.9286C15.9828 19.8213 17.6121 19.6155 19.1983 19.2056C19.2535 19.1913 19.2535 19.1913 19.3097 19.1768C20.8622 18.7706 22.3133 18.176 23.5014 17.0724C23.5259 17.0503 23.5504 17.0282 23.5757 17.0054C24.3865 16.2425 24.9052 15.0429 24.9396 13.9331C24.9421 13.7842 24.9429 13.6354 24.9427 13.4865C24.9426 13.46 24.9426 13.4336 24.9426 13.4063C24.9415 13.0298 24.9359 12.662 24.8622 12.2911C24.8567 12.2626 24.8511 12.234 24.8454 12.2045C24.596 10.9512 23.9613 9.73516 22.8816 9.0031C21.8801 8.34639 20.622 8.04971 19.4398 8.28125C18.3229 8.52168 17.33 9.15985 16.7048 10.1239C15.9127 11.3917 15.7383 12.9029 16.0721 14.3508C16.1182 14.536 16.1728 14.718 16.2314 14.8996C16.2766 15.0402 16.3192 15.1816 16.3617 15.3231C16.3701 15.3499 16.3785 15.3767 16.3871 15.4043C16.444 15.5929 16.444 15.5929 16.4031 15.6748C16.131 15.3716 15.8674 15.0759 15.6675 14.7185C15.6488 14.6865 15.6302 14.6544 15.6109 14.6214C14.9554 13.4179 15.0121 11.9895 15.3884 10.7128C15.6821 9.7566 16.214 8.94953 16.918 8.24548C16.9578 8.20316 16.9578 8.20316 16.9983 8.15999C17.225 7.92234 17.4683 7.73366 17.7395 7.55113C17.7943 7.51419 17.8486 7.47646 17.9028 7.43864C18.3511 7.13667 18.863 6.95071 19.3822 6.8111C19.4243 6.7993 19.4665 6.78749 19.5099 6.77533C20.256 6.60079 21.112 6.64482 21.8464 6.84788Z" fill="#7FD857"/>
<path d="M38.0664 9.73012C38.4493 10.0715 38.7785 10.4257 39.0577 10.8568C39.0806 10.8917 39.1035 10.9266 39.1271 10.9626C39.9282 12.257 40.1828 13.976 39.8668 15.4541C39.8074 15.692 39.7305 15.9228 39.6462 16.1529C39.6318 16.1932 39.6174 16.2335 39.6026 16.275C39.4054 16.7868 39.0967 17.2238 38.7267 17.6241C38.7095 17.6429 38.6923 17.6617 38.6745 17.6811C38.2351 18.1568 37.718 18.5046 37.1452 18.801C37.1149 18.8169 37.0846 18.8328 37.0533 18.8493C36.4789 19.1482 35.8901 19.355 35.2695 19.5366C35.2229 19.5506 35.2229 19.5506 35.1754 19.565C33.7285 19.9994 32.1878 20.0889 30.686 20.0967C30.571 20.0973 30.4559 20.0982 30.3408 20.0991C30.0143 20.1016 29.6877 20.1039 29.3612 20.1058C29.1598 20.107 28.9584 20.1085 28.757 20.1102C28.6813 20.1108 28.6057 20.1112 28.5301 20.1116C27.88 20.1144 27.2363 20.1524 26.595 20.2644C26.5586 20.2706 26.5221 20.2768 26.4846 20.2832C26.12 20.3474 25.7604 20.4308 25.4006 20.5172C24.8152 20.6572 24.2293 20.787 23.6359 20.8882C23.595 20.8953 23.595 20.8953 23.5532 20.9025C23.1161 20.9777 23.1161 20.9777 22.9854 20.9342C23.734 20.3787 24.5873 19.9567 25.4495 19.6101C25.4793 19.5981 25.5091 19.5861 25.5398 19.5738C25.9538 19.409 26.3706 19.288 26.8045 19.1874C26.9088 19.1629 27.0124 19.136 27.1161 19.109C27.5463 19.002 27.9829 18.9251 28.4217 18.863C28.4483 18.8593 28.4749 18.8555 28.5022 18.8515C29.1063 18.7666 29.7135 18.7158 30.321 18.6631C34.0939 18.3534 34.0939 18.3534 37.182 16.3368C37.8012 15.5496 38.0111 14.6383 37.9543 13.652C37.9529 13.6247 37.9514 13.5975 37.9499 13.5694C37.8821 12.5146 37.3763 11.47 36.5978 10.7601C36.282 10.4849 35.9704 10.2883 35.5775 10.1465C35.5516 10.1371 35.5257 10.1277 35.499 10.1181C34.7937 9.87663 34.0515 10.023 33.395 10.335C32.5935 10.7476 32.0705 11.453 31.7088 12.259C31.6986 12.2813 31.6884 12.3037 31.6779 12.3267C31.5189 12.6937 31.4615 13.0585 31.4652 13.4566C31.4655 13.5205 31.4655 13.5205 31.4658 13.5857C31.4754 14.1482 31.5683 14.6989 31.7174 15.2406C31.7402 15.3511 31.7423 15.4519 31.7387 15.5644C31.5718 15.4345 31.4442 15.3011 31.3203 15.13C31.303 15.1061 31.2856 15.0821 31.2678 15.0575C30.6541 14.1874 30.517 13.1917 30.6928 12.1509C30.8962 11.0506 31.473 10.0291 32.4023 9.38317C34.1643 8.23097 36.4531 8.37039 38.0664 9.73012Z" fill="#027F37"/>
<path d="M21.0158 26.2905C21.7409 26.9517 22.1273 27.8174 22.1857 28.7935C22.2244 30.0468 21.991 31.1797 21.1478 32.1517C21.123 32.1819 21.0981 32.212 21.0725 32.2431C20.5549 32.8514 19.786 33.3087 18.9837 33.3962C18.0016 33.4705 17.1924 33.2454 16.4279 32.6069C15.8772 32.1166 15.5432 31.6418 15.3219 30.9342C15.302 30.8711 15.2802 30.8085 15.2582 30.7461C15.1402 30.2293 15.163 29.6088 15.4103 29.1358C15.4409 29.0766 15.4409 29.0766 15.4721 29.0162C15.5899 28.8027 15.7178 28.6116 15.8884 28.4371C15.9127 28.4371 15.937 28.4371 15.962 28.4371C15.9628 28.4823 15.9628 28.4823 15.9636 28.5284C15.984 29.5554 16.0198 30.579 16.7634 31.3749C17.1848 31.7792 17.6762 31.9497 18.2493 31.9401C18.8466 31.9015 19.3159 31.624 19.7134 31.1884C19.8794 30.9885 19.9842 30.7733 20.0812 30.5334C20.0933 30.505 20.1054 30.4766 20.1179 30.4472C20.3342 29.8748 20.3118 29.073 20.0812 28.5106C19.734 27.7577 19.1306 27.3241 18.3717 27.026C17.8362 26.8379 17.2797 26.7203 16.7205 26.628C16.6699 26.6195 16.6699 26.6195 16.6183 26.6107C15.7499 26.4748 14.877 26.4746 14.0006 26.4688C13.8272 26.4676 13.6538 26.4662 13.4804 26.4644C13.401 26.4637 13.3216 26.4633 13.2421 26.4631C12.7666 26.4594 12.2934 26.4199 11.8359 26.2832C11.8036 26.2737 11.7713 26.2642 11.738 26.2544C10.9059 25.9999 10.0997 25.586 9.3418 25.1637C9.3418 25.1516 9.3418 25.1395 9.3418 25.127C9.5879 25.1205 9.83055 25.1282 10.0756 25.1511C11.4297 25.2759 12.8213 25.342 14.1687 25.1303C16.3523 24.7976 19.2558 24.7342 21.0158 26.2905Z" fill="#027F37"/>
<path d="M30.4516 25.0166C30.4307 25.0345 30.4097 25.0523 30.3882 25.0707C30.1961 25.2374 30.0255 25.4097 29.8631 25.6051C29.837 25.6349 29.8109 25.6647 29.7839 25.6955C29.1343 26.4539 28.9166 27.3383 28.9804 28.3267C29.0031 28.5382 29.0441 28.7447 29.0907 28.952C29.0987 28.9876 29.1067 29.0233 29.1149 29.06C29.3558 30.0238 29.914 30.7911 30.5619 31.5265C30.2407 31.5265 29.9663 31.2218 29.7528 31.0116C29.7224 30.9817 29.692 30.9517 29.6607 30.9209C28.8215 30.0476 28.4445 28.8492 28.4576 27.6581C28.4775 26.895 28.788 26.1596 29.3114 25.6051C29.429 25.4994 29.5513 25.4038 29.6792 25.3109C29.7133 25.2843 29.7475 25.2578 29.7826 25.2304C30.2957 24.9387 30.2957 24.9387 30.4516 25.0166Z" fill="#CAE06C"/>
<path d="M21.0752 10.2315C21.0384 10.3051 21.0384 10.3051 20.9733 10.3324C20.9451 10.3409 20.9169 10.3495 20.8879 10.3583C20.8563 10.3681 20.8248 10.378 20.7923 10.3881C20.7582 10.3987 20.7242 10.4092 20.689 10.42C20.1347 10.599 19.6487 10.8111 19.1995 11.1878C19.1789 11.2044 19.1583 11.2209 19.137 11.238C18.9816 11.3656 18.8589 11.5003 18.7421 11.6636C18.7163 11.6995 18.7163 11.6995 18.69 11.7361C18.2936 12.2995 18.0413 12.8744 18.0961 13.5784C18.0983 13.6139 18.1005 13.6493 18.1027 13.6859C18.1516 14.1455 18.337 14.6225 18.547 15.0328C18.611 15.1599 18.611 15.1599 18.611 15.2335C18.4697 15.178 18.408 15.0949 18.3168 14.976C18.2887 14.9502 18.2607 14.9244 18.2318 14.8979C17.7794 14.4139 17.5959 13.7874 17.6002 13.1356C17.627 12.3875 17.9797 11.7177 18.5145 11.2063C18.9929 10.7637 19.5211 10.4655 20.1557 10.3051C20.2013 10.2927 20.2013 10.2927 20.2477 10.2801C20.5209 10.2145 20.7961 10.2248 21.0752 10.2315Z" fill="#CAE06A"/>
</svg>
