<svg width="41" height="40" viewBox="0 0 41 40" fill="none" xmlns="http://www.w3.org/2000/svg">
<g clip-path="url(#clip0_107_743)">
<path d="M16.8714 5.71094C15.7151 5.78906 13.7229 5.98437 12.9261 6.10156C12.2229 6.21094 12.012 6.375 12.0432 6.77344C12.0589 6.96875 12.1292 7.10156 12.262 7.20312C12.4573 7.34375 12.4886 7.34375 13.7073 7.1875C15.9182 6.91406 16.6995 6.86719 19.7776 6.82031C23.012 6.77344 24.7932 6.84375 27.2229 7.11719C30.3948 7.46875 33.1604 8.10156 34.4886 8.77344C35.0901 9.07031 35.8401 9.83594 36.1526 10.4609C36.2854 10.7266 36.4495 11.2031 36.5198 11.5312C36.6604 12.1562 36.8167 12.3438 37.1839 12.3438C37.3011 12.3438 37.4651 12.2656 37.5589 12.1641C37.8636 11.8359 37.7542 11.1562 37.2073 10.0078C36.7307 9 35.8948 8.15625 34.9182 7.67187C33.0667 6.76562 29.0432 6 24.5667 5.70312C23.1995 5.61719 18.2854 5.61719 16.8714 5.71094Z" fill="black"/>
<path d="M8.96509 6.88281C8.33228 7.04688 7.5354 7.28906 7.19165 7.42188C5.96509 7.89844 4.92603 8.82812 4.36353 9.96094C3.94165 10.8203 3.82446 11.2891 3.76978 12.3906L3.7229 13.3438L3.40259 13.4375C2.14478 13.8047 1.13696 14.8906 0.863525 16.1562C0.808838 16.4375 0.777588 18.1641 0.777588 21.6719V26.7812L0.996338 27.1875C1.12134 27.4297 1.34009 27.6953 1.54321 27.8438L1.88696 28.0859L3.09009 28.1094L4.29321 28.1328V30.5859V33.0312L4.50415 33.4375C4.63696 33.6797 4.85571 33.9453 5.05884 34.0938L5.40259 34.3359H20.762H36.1292L36.4963 34.0859C36.7385 33.9141 36.9182 33.6953 37.0588 33.4219L37.262 33.0156V30.5781V28.1328L38.4573 28.1094L39.6448 28.0859L40.012 27.8359C40.2542 27.6641 40.4338 27.4453 40.5745 27.1719L40.7776 26.7656V21.6719C40.7776 18.1641 40.7463 16.4375 40.6917 16.1562C40.3323 14.4922 38.9026 13.3359 37.2229 13.3438C36.2307 13.3516 35.4182 13.7031 34.7307 14.4219C33.9651 15.2109 33.7463 15.9375 33.7463 17.625V18.8047L33.426 18.6484C33.2542 18.5625 32.9963 18.4688 32.8635 18.4453L32.6135 18.3906L32.5745 16.7969C32.5354 15.2266 32.5276 15.1875 32.3245 14.8359C31.6604 13.7031 29.387 13.1875 25.5823 13.3125C23.301 13.3828 21.9338 13.6406 21.1526 14.1328L20.7776 14.375L20.4104 14.1328C19.6213 13.6406 18.2542 13.3828 15.9729 13.3125C12.1682 13.1875 9.89478 13.7031 9.23071 14.8359C9.02759 15.1875 9.01978 15.2266 8.98071 16.7969L8.94165 18.3906L8.69165 18.4453C8.55884 18.4688 8.30103 18.5625 8.12915 18.6484L7.80884 18.8047V17.625C7.80884 15.8984 7.58228 15.1875 6.76978 14.375C6.32446 13.9297 5.9104 13.6719 5.33228 13.4844L4.91821 13.3438V12.7109C4.92603 11.3594 5.32446 10.3047 6.12915 9.49219C6.85571 8.76562 7.80103 8.35156 9.76196 7.89062C10.6135 7.6875 10.8557 7.52344 10.8557 7.14062C10.8557 6.85156 10.5588 6.55469 10.2776 6.57031C10.1917 6.57031 9.5979 6.71094 8.96509 6.88281ZM5.25415 14.7031C5.75415 14.9219 6.33228 15.5625 6.50415 16.0938C6.61353 16.4297 6.63696 16.8281 6.63696 18.3984V20.2891L5.70728 22.5938C4.69946 25.0938 4.48071 25.7266 4.38696 26.4453L4.33228 26.9141L3.30884 26.9375C2.32446 26.9531 2.2854 26.9531 2.12134 26.7734L1.94165 26.5859L1.96509 21.4375C1.98853 16.3906 1.98853 16.2812 2.15259 15.9297C2.73071 14.6953 4.01196 14.1875 5.25415 14.7031ZM18.176 14.6484C19.0354 14.7891 19.7229 15.0312 19.9729 15.2812C20.1526 15.4609 20.1526 15.4844 20.137 17.0078L20.1135 18.5547L19.2776 18.7188C17.1526 19.1484 13.6838 19.1797 11.3635 18.7891C10.9807 18.7188 10.5432 18.6328 10.4104 18.5859L10.1526 18.5V17.0312C10.1526 15.5703 10.1526 15.5547 10.3479 15.3203C10.6838 14.9297 11.5979 14.6641 13.1292 14.5312C14.2151 14.4297 17.3245 14.5078 18.176 14.6484ZM28.3167 14.5312C29.9807 14.6719 30.8557 14.9062 31.2073 15.3281C31.4026 15.5547 31.4026 15.5781 31.4026 17.0312V18.5L31.1526 18.5859C31.012 18.6328 30.5823 18.7188 30.1917 18.7891C27.8713 19.1797 24.4026 19.1484 22.2776 18.7188L21.4417 18.5547L21.4182 17.0469C21.4026 16.0547 21.426 15.4844 21.4885 15.3828C21.5979 15.1641 22.2776 14.8672 22.9807 14.7188C24.137 14.4766 26.551 14.3906 28.3167 14.5312ZM38.1682 14.6875C38.6448 14.8906 39.1057 15.3438 39.3479 15.8438L39.5667 16.2891L39.5901 21.4375L39.6135 26.5859L39.4338 26.7734C39.2698 26.9531 39.2307 26.9531 38.2463 26.9375L37.2229 26.9141L37.1682 26.4453C37.0745 25.7266 36.8557 25.0938 35.8479 22.5938L34.9182 20.2891V18.3984C34.9182 16.1875 34.9729 15.9219 35.5276 15.3047C36.2385 14.5156 37.2307 14.2812 38.1682 14.6875ZM10.1917 19.7266C11.6682 20.1016 12.637 20.1953 15.1917 20.1875C17.676 20.1875 18.6448 20.1016 20.0979 19.75L20.7776 19.5859L21.4651 19.75C22.926 20.1016 23.8713 20.1875 26.4026 20.1875C28.9963 20.1875 29.8323 20.1094 31.4026 19.7188C32.3635 19.4844 32.6057 19.5 33.1448 19.8359C33.4338 20.0234 33.551 20.1719 33.7698 20.6406C33.9182 20.9531 34.0667 21.2812 34.0901 21.3672C34.137 21.5234 34.1057 21.5234 29.8792 21.5C25.6995 21.4844 25.6213 21.4844 25.4651 21.6406C25.2307 21.875 25.2542 22.2891 25.512 22.4922C25.7151 22.6562 25.7932 22.6562 29.7542 22.6562C33.637 22.6562 33.801 22.6641 34.137 22.8203C34.5979 23.0312 34.7385 23.1641 34.9729 23.625C35.3401 24.3438 35.8401 25.7422 35.9573 26.3438L36.0745 26.9531H21.676C11.3713 26.9531 7.21509 26.9766 7.0354 27.0391C6.61353 27.1875 6.50415 27.625 6.80884 27.9453L6.9729 28.125H21.5354H36.0901V30.4844C36.0901 32.7969 36.0901 32.8438 35.9182 33.0234L35.7542 33.2031H20.7776H5.80103L5.62915 33.0156L5.45728 32.8281L5.48853 29.6406C5.51978 26.0469 5.49634 26.25 6.18384 24.5312C6.6604 23.3594 6.81665 23.125 7.35571 22.8594L7.76196 22.6562H15.6682C21.4182 22.6562 23.637 22.6328 23.7776 22.5703C24.1604 22.3906 24.1917 21.7578 23.8323 21.5625C23.7229 21.5078 21.2307 21.4922 15.551 21.5C7.44946 21.5234 7.41821 21.5234 7.46509 21.3672C7.56665 21.0469 7.88696 20.375 8.04321 20.1562C8.2229 19.8984 8.91821 19.5312 9.21509 19.5312C9.32446 19.5312 9.76196 19.6172 10.1917 19.7266Z" fill="black"/>
<path d="M4.16821 16.4844C3.84009 16.6172 3.74634 16.8594 3.74634 17.625C3.74634 18.4844 3.88696 18.75 4.34009 18.75C4.82446 18.75 4.91821 18.5625 4.91821 17.625C4.91821 16.9688 4.89478 16.7812 4.7854 16.6562C4.61353 16.4609 4.38696 16.3984 4.16821 16.4844Z" fill="black"/>
<path d="M36.9729 16.4844C36.6995 16.5937 36.637 16.8125 36.637 17.6484C36.637 18.3359 36.6604 18.4609 36.7932 18.5937C37.0276 18.8281 37.4417 18.8047 37.6448 18.5468C37.7854 18.3672 37.8088 18.2265 37.8088 17.6094C37.8088 16.9687 37.7854 16.8594 37.637 16.6875C37.426 16.4609 37.2073 16.3906 36.9729 16.4844Z" fill="black"/>
<path d="M17.1214 9.80469C16.5511 10.0469 16.7621 10.9375 17.3949 10.9375C17.7543 10.9375 17.9964 10.7031 17.9964 10.3672C17.9964 9.875 17.5902 9.60938 17.1214 9.80469Z" fill="black"/>
<path d="M24.0119 9.75001C23.5666 9.82032 23.3947 10.5078 23.7385 10.7891C24.2776 11.2266 25.0119 10.6172 24.6838 10C24.5979 9.83595 24.2541 9.71095 24.0119 9.75001Z" fill="black"/>
<path d="M10.8714 10.5859C10.3011 10.8281 10.5121 11.7188 11.1449 11.7188C11.5043 11.7188 11.7464 11.4844 11.7464 11.1484C11.7464 10.6562 11.3402 10.3906 10.8714 10.5859Z" fill="black"/>
<path d="M30.2619 10.5313C29.8166 10.6016 29.6447 11.2891 29.9885 11.5703C30.5276 12.0078 31.2619 11.3984 30.9338 10.7813C30.8479 10.6172 30.5041 10.4922 30.2619 10.5313Z" fill="black"/>
</g>
<defs>
<clipPath id="clip0_107_743">
<rect width="40" height="40" fill="white" transform="translate(0.777588)"/>
</clipPath>
</defs>
</svg>
