<svg width="32" height="32" viewBox="0 0 32 32" fill="none" xmlns="http://www.w3.org/2000/svg">
<path d="M8.03704 16.3916C8.06608 16.3916 8.09512 16.3915 8.12416 16.3912C8.31712 16.3898 8.50457 16.3983 8.69626 16.4227C8.71406 16.4248 8.73186 16.427 8.74966 16.4291C9.09974 16.4716 9.50014 16.5974 9.76893 16.8345C9.77675 16.8413 9.78456 16.848 9.79262 16.855C9.81701 16.8766 9.84092 16.8985 9.86471 16.9207C9.87272 16.9281 9.88073 16.9355 9.88899 16.9431C10.1127 17.1567 10.2609 17.5046 10.2685 17.814C10.2687 17.8292 10.2688 17.8443 10.2689 17.8595C10.269 17.8718 10.269 17.8718 10.2691 17.8843C10.2692 17.9017 10.2692 17.9191 10.2693 17.9364C10.2694 17.9624 10.2697 17.9883 10.27 18.0143C10.2708 18.1557 10.2555 18.2918 10.2155 18.4279C10.2134 18.4351 10.2114 18.4422 10.2092 18.4496C10.1913 18.5103 10.1698 18.5683 10.1425 18.6255C10.1396 18.6315 10.1367 18.6375 10.1338 18.6437C9.97455 18.9734 9.70477 19.2038 9.36298 19.3312C9.08883 19.4265 8.76653 19.4213 8.50265 19.2953C8.42918 19.2577 8.35661 19.2159 8.29401 19.1618C8.27973 19.1496 8.27973 19.1496 8.26516 19.1371C8.0915 18.9849 7.97959 18.79 7.91667 18.5684C7.91136 18.5504 7.90521 18.5326 7.89898 18.5148C7.83443 18.3105 7.85187 18.0465 7.94597 17.8552C7.95232 17.843 7.95232 17.843 7.9588 17.8305C7.96313 17.8219 7.96746 17.8133 7.97193 17.8044C8.01626 17.7192 8.06922 17.6368 8.14077 17.572C8.13015 17.622 8.11823 17.6714 8.10436 17.7207C8.01951 18.0257 8.00548 18.353 8.16232 18.638C8.19875 18.7019 8.24169 18.7556 8.29401 18.8074C8.3023 18.8161 8.3106 18.8248 8.31915 18.8338C8.32666 18.8409 8.33416 18.848 8.3419 18.8553C8.3462 18.8596 8.35051 18.8638 8.35495 18.8682C8.50996 19.0125 8.73939 19.0841 8.94801 19.0774C8.95975 19.0768 8.97149 19.0762 8.98358 19.0756C8.99365 19.0755 9.00371 19.0754 9.01407 19.0753C9.20587 19.0692 9.39799 18.983 9.53908 18.8553C9.54621 18.849 9.55335 18.8426 9.5607 18.8361C9.74743 18.6601 9.84476 18.4037 9.85679 18.15C9.86524 17.8598 9.83886 17.5933 9.64443 17.3612C9.6384 17.3534 9.63238 17.3455 9.62617 17.3374C9.52019 17.2103 9.35599 17.1226 9.20386 17.0643C9.19587 17.0612 9.18787 17.0581 9.17963 17.0548C9.03417 16.9985 8.88877 16.9628 8.73457 16.9398C8.72414 16.9383 8.7137 16.9367 8.70295 16.9351C8.46582 16.9014 8.22641 16.9072 7.98753 16.9111C7.97495 16.9113 7.96236 16.9115 7.9494 16.9117C7.57208 16.9192 7.19183 16.9755 6.82087 17.0415C6.79816 17.0455 6.77544 17.0495 6.75273 17.0535C6.57044 17.0858 6.3885 17.1194 6.20713 17.1565C5.7009 17.2599 5.19081 17.3149 4.6748 17.3359C4.66636 17.3363 4.65791 17.3366 4.64921 17.337C4.6335 17.3376 4.61779 17.3382 4.60207 17.3388C4.59141 17.3393 4.59141 17.3393 4.58053 17.3397C4.57445 17.3399 4.56838 17.3402 4.56212 17.3404C4.54256 17.3419 4.52309 17.3443 4.50366 17.3469C4.4641 17.352 4.42487 17.3531 4.38502 17.3531C4.37759 17.3531 4.37017 17.3531 4.36252 17.3532C4.33802 17.3532 4.31353 17.3533 4.28903 17.3533C4.27162 17.3533 4.25421 17.3534 4.2368 17.3534C4.18072 17.3535 4.12464 17.3535 4.06856 17.3535C4.04932 17.3535 4.03008 17.3535 4.01084 17.3535C3.71891 17.3534 3.42773 17.3494 3.13616 17.3338C3.11428 17.3326 3.09241 17.3315 3.07053 17.3305C2.69874 17.3129 2.3261 17.2764 1.95804 17.2211C1.93274 17.2173 1.90742 17.2136 1.8821 17.2099C1.67541 17.1795 1.47022 17.147 1.26654 17.1001C1.23354 17.0927 1.20047 17.0857 1.16734 17.0788C1.02602 17.0493 0.886098 17.0168 0.746984 16.9782C0.737657 16.9756 0.72833 16.973 0.71872 16.9703C0.533085 16.9186 0.352288 16.8556 0.171739 16.7884C0.16211 16.7848 0.15248 16.7813 0.142558 16.7776C0.0968271 16.7604 0.0526256 16.7426 0.00952148 16.7196C0.04058 16.7098 0.0645138 16.7103 0.0966912 16.7143C0.106533 16.7155 0.116375 16.7167 0.126515 16.7179C0.137291 16.7192 0.148067 16.7206 0.159169 16.722C0.243934 16.732 0.328601 16.7408 0.413691 16.7476C0.571323 16.7602 0.727833 16.779 0.88466 16.7992C1.16049 16.8346 1.43682 16.863 1.71367 16.8892C1.73983 16.8916 1.76599 16.8942 1.79214 16.8967C1.96592 16.9137 2.13982 16.9257 2.31409 16.9363C2.32404 16.9369 2.33399 16.9375 2.34424 16.9381C2.4027 16.9416 2.46116 16.9449 2.51965 16.9479C2.53741 16.9489 2.55517 16.9499 2.57293 16.9509C2.78867 16.9632 3.00495 16.9609 3.22096 16.9608C3.23119 16.9608 3.24143 16.9608 3.25198 16.9608C3.56342 16.9607 3.87435 16.9595 4.18529 16.9398C4.19753 16.9391 4.19753 16.9391 4.21002 16.9383C4.31885 16.9314 4.42748 16.9228 4.53611 16.9131C4.55907 16.9111 4.58204 16.9092 4.60502 16.9073C4.80721 16.8908 5.00727 16.8661 5.20768 16.8345C5.21784 16.8329 5.228 16.8313 5.23847 16.8296C5.36576 16.8094 5.49246 16.7868 5.61896 16.7622C5.65113 16.7559 5.68333 16.7499 5.71554 16.7439C5.88664 16.7117 6.05595 16.674 6.22528 16.6334C6.62352 16.5379 7.02423 16.464 7.43144 16.4197C7.44214 16.4185 7.44214 16.4185 7.45306 16.4173C7.64777 16.3963 7.84138 16.3919 8.03704 16.3916Z" fill="#7ED857"/>
<path d="M5.689 12.7832C5.69551 12.7849 5.70202 12.7866 5.70872 12.7884C5.86827 12.8303 6.02201 12.9014 6.1583 12.9939C6.16655 12.9995 6.16655 12.9995 6.17497 13.0052C6.24292 13.0514 6.30661 13.0999 6.36679 13.156C6.38641 13.1743 6.40655 13.1916 6.42706 13.2088C6.75928 13.4999 6.96634 13.9673 7.00111 14.4018C7.00361 14.4481 7.00389 14.4943 7.00361 14.5405C7.0035 14.5605 7.00361 14.5804 7.00373 14.6004C7.00382 14.689 6.99577 14.7739 6.98196 14.8616C6.98009 14.8745 6.98009 14.8745 6.97818 14.8876C6.91786 15.2935 6.71477 15.6815 6.38815 15.9342C6.3795 15.9414 6.37084 15.9487 6.36193 15.9561C5.91656 16.3189 5.24755 16.5037 4.6838 16.5502C4.64265 16.5537 4.60252 16.5589 4.56186 16.5662C4.49607 16.5776 4.4303 16.582 4.36372 16.5861C4.3403 16.5876 4.31688 16.5891 4.29346 16.5906C4.28326 16.5912 4.27306 16.5919 4.26255 16.5925C4.23367 16.5946 4.23367 16.5946 4.20726 16.5998C4.16207 16.6067 4.11703 16.6082 4.07139 16.6099C4.06065 16.6103 4.04991 16.6107 4.03884 16.6111C3.89175 16.616 3.7446 16.616 3.59745 16.616C3.56408 16.616 3.53072 16.6161 3.49735 16.6162C3.29285 16.617 3.09005 16.6129 2.88607 16.5975C2.85418 16.5951 2.82228 16.5929 2.79036 16.5909C2.31939 16.5601 1.84708 16.4896 1.38633 16.3886C1.37804 16.3867 1.36975 16.3849 1.36121 16.383C1.17384 16.3418 0.988783 16.2941 0.804505 16.2407C0.797605 16.2387 0.790705 16.2367 0.783597 16.2347C0.501772 16.1523 0.236108 16.0012 0 15.8289C0.0264648 15.8156 0.0390331 15.8226 0.0675238 15.8299C0.0776419 15.8325 0.0877604 15.835 0.0981851 15.8377C0.109217 15.8405 0.120249 15.8434 0.131615 15.8463C0.143038 15.8492 0.154461 15.8521 0.16623 15.8551C0.20302 15.8645 0.239786 15.8739 0.276549 15.8833C0.425465 15.9215 0.573892 15.959 0.725001 15.9875C0.762554 15.9947 0.799982 16.0024 0.837428 16.0102C1.2577 16.0961 1.68183 16.1691 2.11003 16.2006C2.11748 16.2011 2.12493 16.2017 2.1326 16.2023C2.18471 16.206 2.23684 16.2092 2.28901 16.212C2.29735 16.2124 2.30569 16.2129 2.31428 16.2133C2.48318 16.2221 2.65206 16.2239 2.82116 16.2239C2.83151 16.224 2.83151 16.224 2.84207 16.224C3.11539 16.2242 3.38723 16.2139 3.65993 16.1947C3.68556 16.1929 3.71118 16.1912 3.73682 16.1896C4.16208 16.1616 4.58638 16.108 4.99942 16.0013C5.01379 15.9976 5.01379 15.9976 5.02845 15.9938C5.4327 15.888 5.8106 15.7332 6.11999 15.4458C6.12637 15.44 6.13275 15.4343 6.13933 15.4283C6.35048 15.2297 6.48553 14.9173 6.4945 14.6283C6.49514 14.5895 6.49537 14.5508 6.4953 14.512C6.49529 14.5051 6.49528 14.4982 6.49527 14.4911C6.495 14.393 6.49355 14.2973 6.47435 14.2007C6.47291 14.1933 6.47146 14.1858 6.46998 14.1781C6.40503 13.8518 6.23975 13.5351 5.95858 13.3445C5.69778 13.1735 5.37017 13.0962 5.06231 13.1565C4.77148 13.2191 4.51292 13.3853 4.35011 13.6363C4.14384 13.9665 4.09842 14.36 4.18534 14.737C4.19735 14.7853 4.21156 14.8327 4.22684 14.88C4.2386 14.9166 4.24969 14.9534 4.26076 14.9902C4.26294 14.9972 4.26512 15.0042 4.26737 15.0114C4.2822 15.0605 4.2822 15.0605 4.27154 15.0818C4.20068 15.0029 4.13203 14.9259 4.07999 14.8328C4.07513 14.8245 4.07026 14.8161 4.06525 14.8075C3.89454 14.4941 3.9093 14.1222 4.0073 13.7897C4.08379 13.5407 4.22228 13.3305 4.40562 13.1472C4.41598 13.1362 4.41598 13.1362 4.42654 13.1249C4.48556 13.063 4.54893 13.0139 4.61955 12.9664C4.63382 12.9568 4.64796 12.9469 4.66208 12.9371C4.77881 12.8584 4.9121 12.81 5.04731 12.7737C5.05829 12.7706 5.06926 12.7675 5.08057 12.7644C5.27485 12.7189 5.49776 12.7304 5.689 12.7832Z" fill="#7FD857"/>
<path d="M9.9128 13.5338C10.0125 13.6227 10.0982 13.7149 10.1709 13.8272C10.1769 13.8363 10.1829 13.8454 10.189 13.8548C10.3976 14.1918 10.4639 14.6395 10.3816 15.0244C10.3662 15.0863 10.3461 15.1464 10.3242 15.2063C10.3204 15.2168 10.3167 15.2273 10.3128 15.2381C10.2615 15.3714 10.1811 15.4852 10.0847 15.5894C10.0803 15.5943 10.0758 15.5992 10.0712 15.6043C9.95672 15.7281 9.82206 15.8187 9.67291 15.8959C9.66502 15.9001 9.65712 15.9042 9.64899 15.9085C9.4994 15.9863 9.34607 16.0402 9.18446 16.0875C9.17233 16.0911 9.17233 16.0911 9.15996 16.0948C8.78317 16.208 8.38196 16.2313 7.9909 16.2333C7.96094 16.2335 7.93098 16.2337 7.90101 16.2339C7.81598 16.2346 7.73094 16.2352 7.6459 16.2357C7.59345 16.236 7.54101 16.2364 7.48856 16.2368C7.46886 16.237 7.44917 16.2371 7.42947 16.2372C7.26019 16.2379 7.09257 16.2478 6.92557 16.277C6.91608 16.2786 6.9066 16.2802 6.89683 16.2819C6.80189 16.2986 6.70825 16.3203 6.61453 16.3428C6.46209 16.3793 6.30953 16.4131 6.155 16.4394C6.14435 16.4413 6.14435 16.4413 6.13348 16.4432C6.01963 16.4627 6.01963 16.4627 5.9856 16.4514C6.18054 16.3067 6.40276 16.1969 6.62728 16.1066C6.63504 16.1035 6.64279 16.1004 6.65078 16.0971C6.75861 16.0542 6.86713 16.0227 6.98013 15.9965C7.00728 15.9902 7.03426 15.9831 7.06126 15.9761C7.17331 15.9483 7.28699 15.9282 7.40126 15.9121C7.40818 15.9111 7.4151 15.9101 7.42223 15.9091C7.57953 15.887 7.73766 15.8737 7.89586 15.86C8.87835 15.7794 8.87835 15.7794 9.68249 15.2542C9.84375 15.0492 9.89839 14.8119 9.88361 14.5551C9.88323 14.548 9.88285 14.5409 9.88245 14.5336C9.8648 14.2589 9.73309 13.9869 9.53037 13.802C9.44813 13.7303 9.36698 13.6792 9.26467 13.6422C9.25792 13.6398 9.25117 13.6373 9.24422 13.6348C9.06056 13.5719 8.8673 13.6101 8.69635 13.6913C8.48762 13.7988 8.35144 13.9824 8.25725 14.1923C8.25458 14.1981 8.25192 14.204 8.24918 14.21C8.20779 14.3055 8.19285 14.4005 8.19379 14.5042C8.19387 14.5208 8.19387 14.5208 8.19395 14.5378C8.19647 14.6843 8.22065 14.8277 8.25948 14.9688C8.26542 14.9975 8.26597 15.0238 8.26503 15.0531C8.22157 15.0193 8.18834 14.9845 8.15608 14.94C8.15156 14.9337 8.14704 14.9275 8.14239 14.9211C7.98258 14.6945 7.94688 14.4352 7.99267 14.1642C8.04563 13.8776 8.19584 13.6117 8.43783 13.4434C8.89668 13.1434 9.4927 13.1797 9.9128 13.5338Z" fill="#027F37"/>
<path d="M5.4726 17.8462C5.66142 18.0184 5.76204 18.2438 5.77726 18.498C5.78734 18.8244 5.72656 19.1194 5.50698 19.3725C5.50051 19.3804 5.49404 19.3882 5.48737 19.3963C5.35259 19.5547 5.15237 19.6738 4.94342 19.6966C4.68768 19.7159 4.47698 19.6573 4.27788 19.491C4.13448 19.3634 4.0475 19.2397 3.98988 19.0555C3.9847 19.039 3.97902 19.0227 3.97328 19.0065C3.94255 18.8719 3.94849 18.7103 4.0129 18.5872C4.02086 18.5717 4.02086 18.5717 4.02898 18.556C4.05968 18.5004 4.09298 18.4507 4.1374 18.4052C4.14372 18.4052 4.15004 18.4052 4.15656 18.4052C4.15677 18.417 4.15677 18.417 4.15698 18.429C4.16229 18.6964 4.17161 18.963 4.36524 19.1702C4.47499 19.2755 4.60295 19.3199 4.75219 19.3174C4.90774 19.3074 5.02993 19.2351 5.13346 19.1217C5.17667 19.0696 5.20396 19.0136 5.22923 18.9511C5.23238 18.9437 5.23553 18.9363 5.23877 18.9287C5.2951 18.7796 5.28929 18.5708 5.22923 18.4244C5.13881 18.2283 4.98169 18.1154 4.78407 18.0377C4.64462 17.9888 4.49969 17.9581 4.35409 17.9341C4.34091 17.9319 4.34091 17.9319 4.32746 17.9296C4.10132 17.8942 3.87402 17.8942 3.6458 17.8927C3.60065 17.8924 3.55549 17.892 3.51034 17.8915C3.48966 17.8913 3.46897 17.8912 3.44828 17.8912C3.32447 17.8902 3.20124 17.8799 3.08209 17.8443C3.07368 17.8418 3.06527 17.8394 3.0566 17.8368C2.83992 17.7706 2.62997 17.6628 2.43262 17.5528C2.43262 17.5496 2.43262 17.5465 2.43262 17.5432C2.4967 17.5416 2.55989 17.5436 2.62372 17.5495C2.97633 17.582 3.33871 17.5992 3.68958 17.5441C4.2582 17.4574 5.01429 17.441 5.4726 17.8462Z" fill="#027F37"/>
<path d="M7.92948 17.5145C7.92404 17.5191 7.91859 17.5238 7.91298 17.5285C7.86296 17.572 7.81854 17.6168 7.77624 17.6677C7.76944 17.6755 7.76264 17.6833 7.75563 17.6913C7.58647 17.8888 7.52975 18.1191 7.54638 18.3765C7.55229 18.4315 7.56297 18.4853 7.57512 18.5393C7.57719 18.5486 7.57926 18.5578 7.5814 18.5674C7.64415 18.8184 7.78951 19.0182 7.95821 19.2097C7.87456 19.2097 7.80312 19.1304 7.74751 19.0756C7.7396 19.0678 7.73168 19.06 7.72353 19.052C7.505 18.8246 7.40684 18.5125 7.41024 18.2023C7.41541 18.0036 7.49629 17.8121 7.63258 17.6677C7.6632 17.6402 7.69506 17.6153 7.72836 17.5911C7.73724 17.5842 7.74613 17.5773 7.75529 17.5702C7.88889 17.4942 7.88889 17.4942 7.92948 17.5145Z" fill="#CAE06C"/>
<path d="M5.4882 13.6644C5.47862 13.6835 5.47862 13.6835 5.46165 13.6906C5.45431 13.6929 5.44697 13.6951 5.43941 13.6974C5.4312 13.6999 5.42299 13.7025 5.41453 13.7051C5.40565 13.7079 5.39678 13.7106 5.38763 13.7134C5.24327 13.7601 5.11672 13.8153 4.99975 13.9134C4.99438 13.9177 4.98901 13.922 4.98348 13.9264C4.943 13.9597 4.91106 13.9948 4.88063 14.0373C4.87391 14.0466 4.87391 14.0466 4.86706 14.0562C4.76385 14.2029 4.69814 14.3526 4.71242 14.5359C4.71299 14.5451 4.71356 14.5544 4.71414 14.5639C4.72686 14.6836 4.77516 14.8078 4.82982 14.9146C4.84651 14.9477 4.84651 14.9477 4.84651 14.9669C4.80971 14.9524 4.79364 14.9308 4.76989 14.8999C4.76258 14.8931 4.75527 14.8864 4.74774 14.8795C4.62994 14.7535 4.58217 14.5903 4.58327 14.4206C4.59025 14.2258 4.68211 14.0514 4.82136 13.9182C4.94594 13.8029 5.0835 13.7253 5.24876 13.6835C5.26061 13.6803 5.26061 13.6803 5.2727 13.677C5.34385 13.6599 5.41551 13.6626 5.4882 13.6644Z" fill="#CAE06A"/>
<path d="M16.7387 14.4202C16.7455 14.4202 16.7523 14.4202 16.7594 14.4201C17.2194 14.4203 17.6385 14.5833 18.0449 14.7841C18.0186 14.7929 18.0104 14.7919 17.9843 14.7863C17.9738 14.7841 17.9738 14.7841 17.963 14.7818C17.952 14.7794 17.952 14.7794 17.9408 14.777C17.9264 14.7739 17.912 14.7708 17.8977 14.7678C17.8913 14.7664 17.8849 14.765 17.8783 14.7636C17.8234 14.7535 17.7698 14.7499 17.714 14.7494C17.7068 14.7493 17.6996 14.7492 17.6921 14.7491C17.539 14.7478 17.3906 14.7469 17.2411 14.7841C17.2341 14.7858 17.2271 14.7875 17.2199 14.7892C16.8647 14.8757 16.5379 15.0627 16.2416 15.2721C16.2241 15.2844 16.2066 15.2966 16.1891 15.3089C16.0436 15.4105 15.9021 15.5174 15.7616 15.6258C15.6976 15.6751 15.633 15.7238 15.5683 15.7722C15.5519 15.7845 15.5355 15.7968 15.5192 15.8091C15.461 15.853 15.4025 15.8964 15.3434 15.9391C15.3376 15.9433 15.3317 15.9475 15.3257 15.9519C14.8887 16.2665 14.4187 16.5524 13.8784 16.6377C13.8673 16.6396 13.8673 16.6396 13.856 16.6415C13.6234 16.6792 13.3961 16.667 13.1648 16.6295C13.1572 16.6284 13.1495 16.6272 13.1417 16.626C12.9396 16.594 12.7455 16.5204 12.5579 16.4409C12.5512 16.4381 12.5445 16.4353 12.5376 16.4325C12.1798 16.2836 11.8454 16.0508 11.548 15.8042C11.5297 15.7891 11.5112 15.7741 11.4927 15.7591C11.4368 15.7142 11.3817 15.6689 11.3288 15.6205C11.3126 15.6056 11.2961 15.5911 11.2794 15.5766C11.2469 15.5483 11.2151 15.5191 11.1834 15.4898C11.1609 15.4691 11.1382 15.4488 11.1149 15.429C11.0795 15.3985 11.0471 15.3651 11.0143 15.3319C10.9843 15.3016 10.9536 15.2729 10.9207 15.2457C10.9093 15.2352 10.9093 15.2352 10.9011 15.2188C10.9245 15.2297 10.9439 15.242 10.9639 15.2582C10.9697 15.2628 10.9755 15.2674 10.9814 15.2721C10.9875 15.277 10.9937 15.2819 11.0001 15.287C11.0767 15.3474 11.1561 15.4028 11.2374 15.4567C11.2435 15.4607 11.2496 15.4647 11.2558 15.4689C11.3831 15.5528 11.5135 15.6301 11.6475 15.7027C11.6546 15.7066 11.6617 15.7105 11.669 15.7145C12.042 15.9175 12.4582 16.0589 12.886 16.0585C12.8926 16.0585 12.8992 16.0585 12.906 16.0585C13.3542 16.0584 13.7767 15.904 14.1563 15.6722C14.1745 15.6612 14.193 15.6504 14.2114 15.6397C14.3174 15.5777 14.4187 15.5095 14.5197 15.4398C14.5396 15.426 14.5597 15.4123 14.5797 15.3987C14.6425 15.3559 14.7044 15.312 14.7658 15.2674C14.8256 15.224 14.8859 15.1814 14.9464 15.1389C14.9588 15.1302 14.9712 15.1214 14.9836 15.1126C15.0756 15.0476 15.1699 14.986 15.2649 14.9256C15.2824 14.9144 15.3 14.9031 15.3175 14.8918C15.4404 14.8129 15.5665 14.7417 15.6978 14.678C15.7169 14.6687 15.7359 14.6591 15.7548 14.6496C16.0637 14.4963 16.3945 14.4205 16.7387 14.4202Z" fill="#7FCBF7"/>
<path d="M20.689 16.1661C20.7108 16.1861 20.7317 16.2066 20.7524 16.2277C20.7618 16.2371 20.7618 16.2371 20.7714 16.2466C20.7787 16.2539 20.7859 16.2612 20.7934 16.2687C20.798 16.2728 20.8025 16.277 20.8071 16.2812C20.9024 16.371 20.9728 16.4851 21.0395 16.5968C21.0451 16.606 21.0508 16.6152 21.0566 16.6248C21.181 16.8344 21.2969 17.1146 21.3183 17.3595C21.3156 17.3649 21.3129 17.3703 21.3101 17.3759C21.3047 17.3689 21.2992 17.3618 21.2936 17.3546C21.2692 17.3232 21.2446 17.2921 21.2199 17.2611C21.2146 17.2544 21.2146 17.2544 21.2092 17.2476C21.1166 17.1321 21.0107 17.0215 20.8919 16.933C20.8864 16.929 20.881 16.9249 20.8755 16.9208C20.5932 16.7107 20.2807 16.5776 19.9322 16.5229C19.924 16.5216 19.9157 16.5202 19.9071 16.5189C19.6704 16.4818 19.4235 16.4898 19.1859 16.5147C19.1779 16.5156 19.1698 16.5164 19.1616 16.5173C18.8782 16.548 18.5993 16.6205 18.3278 16.7054C18.3185 16.7083 18.3185 16.7083 18.3091 16.7112C18.2722 16.723 18.2372 16.7372 18.2017 16.7526C18.181 16.7599 18.1604 16.7671 18.1396 16.7741C18.0523 16.8044 17.967 16.8396 17.8818 16.8756C17.8758 16.8781 17.8699 16.8806 17.8637 16.8832C17.6266 16.9838 17.385 17.0972 17.1682 17.2365C17.1527 17.2463 17.1372 17.2561 17.1216 17.2657C17.1151 17.2698 17.1087 17.2738 17.102 17.278C17.0968 17.2806 17.0916 17.2831 17.0862 17.2857C17.0808 17.283 17.0754 17.2803 17.0698 17.2775C17.1236 17.2273 17.1778 17.1785 17.2352 17.1324C17.2562 17.1153 17.2768 17.0979 17.2973 17.0804C17.346 17.0387 17.3957 16.9991 17.4467 16.9604C17.469 16.9433 17.4909 16.926 17.5127 16.9084C17.6942 16.7626 17.8836 16.6254 18.0786 16.4983C18.0851 16.4941 18.0915 16.4899 18.0981 16.4856C18.2783 16.3682 18.4642 16.2622 18.6559 16.1648C18.6741 16.1555 18.6922 16.1462 18.7102 16.1368C18.9694 16.0036 19.2442 15.917 19.5304 15.8668C19.5363 15.8657 19.5423 15.8646 19.5485 15.8634C19.9501 15.7896 20.3813 15.8991 20.689 16.1661Z" fill="#7FCBF7"/>
<path d="M18.498 14.9386C18.5109 14.9386 18.5109 14.9386 18.524 14.9385C18.542 14.9385 18.5601 14.9385 18.5781 14.9385C18.6051 14.9385 18.6321 14.9383 18.6591 14.9382C18.8041 14.9378 18.9475 14.9451 19.0899 14.9738C19.0987 14.9756 19.1075 14.9773 19.1165 14.9791C19.488 15.0554 19.8313 15.1969 20.1689 15.3665C20.1424 15.3753 20.1333 15.3741 20.1066 15.3686C20.0992 15.3671 20.0918 15.3657 20.0842 15.3642C20.0726 15.3618 20.0726 15.3618 20.0608 15.3593C20.0456 15.3562 20.0305 15.3532 20.0153 15.3502C20.0086 15.3488 20.0019 15.3474 19.995 15.346C19.9374 15.3357 19.8817 15.3323 19.8233 15.332C19.8154 15.332 19.8075 15.3319 19.7994 15.3319C19.7827 15.3318 19.766 15.3317 19.7494 15.3317C19.7244 15.3316 19.6995 15.3314 19.6745 15.3311C19.5338 15.3303 19.3998 15.3469 19.2632 15.3808C19.2546 15.383 19.246 15.3851 19.2371 15.3873C19.0786 15.4273 18.9309 15.4862 18.7828 15.5551C18.7757 15.5585 18.7685 15.5618 18.7611 15.5652C18.4574 15.7076 18.1712 15.9094 17.9128 16.1225C17.8738 16.1546 17.8339 16.1854 17.7935 16.2159C17.7393 16.2569 17.6874 16.2998 17.6362 16.3444C17.6128 16.3648 17.589 16.3845 17.5649 16.404C17.5302 16.4322 17.4962 16.461 17.4624 16.4901C17.4214 16.5254 17.38 16.5599 17.338 16.5939C17.3108 16.6164 17.284 16.6393 17.2573 16.6624C17.2168 16.6972 17.176 16.7315 17.1345 16.7652C17.1097 16.7854 17.085 16.8057 17.0604 16.826C16.8517 16.9982 16.8517 16.9982 16.7484 17.0767C16.7294 17.0911 16.7105 17.1057 16.6915 17.1202C16.1448 17.5393 15.5353 17.9056 14.8378 17.9829C14.8315 17.9836 14.8253 17.9843 14.8189 17.985C14.7699 17.9904 14.7214 17.9925 14.6722 17.9927C14.6644 17.9928 14.6567 17.9928 14.6487 17.9929C14.6239 17.993 14.5991 17.9931 14.5743 17.9931C14.5658 17.9931 14.5573 17.9931 14.5486 17.9931C14.4243 17.993 14.3042 17.9889 14.1816 17.9665C14.1733 17.965 14.165 17.9636 14.1565 17.9622C13.3384 17.8235 12.6205 17.341 11.944 16.744C11.9281 16.7298 11.9121 16.7158 11.8959 16.7018C11.8628 16.673 11.8307 16.6431 11.7985 16.6132C11.7934 16.6084 11.7883 16.6036 11.783 16.5987C11.7572 16.5746 11.7318 16.5502 11.707 16.5252C11.6882 16.5063 11.6692 16.4883 11.6488 16.4712C11.6079 16.4359 11.5703 16.3974 11.5325 16.3589C11.5617 16.3589 11.567 16.3643 11.5899 16.3815C11.9315 16.6271 12.3247 16.8266 12.7217 16.9658C12.7304 16.9689 12.7391 16.9719 12.748 16.9751C12.9438 17.0431 13.1525 17.0962 13.3584 17.1227C13.3675 17.1239 13.3765 17.1251 13.3859 17.1263C13.4783 17.1368 13.5705 17.1401 13.6634 17.1401C13.6698 17.1401 13.6762 17.1401 13.6827 17.1401C13.9515 17.1398 14.2215 17.1092 14.4769 17.0233C14.4858 17.0204 14.4946 17.0175 14.5037 17.0145C14.6805 16.9568 14.8526 16.8905 15.0156 16.8003C15.0431 16.7853 15.071 16.7714 15.0992 16.7577C15.3479 16.6341 15.5829 16.4691 15.8063 16.3048C15.8303 16.2872 15.8546 16.27 15.8789 16.2528C15.944 16.2065 16.0082 16.1589 16.0724 16.1114C16.0925 16.0966 16.1126 16.0818 16.1326 16.067C16.1935 16.0223 16.2543 15.9774 16.3146 15.9319C16.4319 15.8436 16.5517 15.7589 16.6722 15.6751C16.6897 15.6629 16.7072 15.6507 16.7246 15.6385C16.8546 15.5477 16.9888 15.4623 17.1261 15.3829C17.1368 15.3767 17.1368 15.3767 17.1477 15.3704C17.4832 15.1764 17.8341 15.0318 18.2169 14.9646C18.225 14.9631 18.2332 14.9617 18.2415 14.9602C18.2497 14.9587 18.258 14.9573 18.2664 14.9558C18.2773 14.9539 18.2773 14.9539 18.2883 14.952C18.3582 14.9422 18.4275 14.9387 18.498 14.9386Z" fill="#527EBA"/>
<path fill-rule="evenodd" clip-rule="evenodd" d="M26.8274 13.286L26.8524 13.286C27.1431 13.2863 27.426 13.3231 27.7 13.4218C27.7222 13.4298 27.7445 13.4374 27.7669 13.445C27.8762 13.483 27.9762 13.5346 28.0776 13.59C28.1041 13.6043 28.1308 13.6181 28.1576 13.6317L28.1835 13.645L28.2325 13.6698C28.2657 13.687 28.2788 13.6938 28.2867 13.7045C28.2919 13.7115 28.2947 13.7202 28.2995 13.7346C28.3087 13.74 28.3135 13.7429 28.3186 13.7454C28.3243 13.7484 28.3303 13.7509 28.343 13.7563C28.4819 13.8388 28.6024 13.9363 28.7193 14.0467C28.7379 14.064 28.7572 14.0805 28.7766 14.0968C28.8891 14.1945 28.9907 14.3027 29.0825 14.4197L29.1301 14.4761C29.1706 14.5258 29.2082 14.5771 29.2449 14.6297L29.2605 14.6518C29.2887 14.6928 29.3085 14.7299 29.3217 14.7785H29.3435C29.5036 15.069 29.6293 15.3526 29.7118 15.6757L29.7213 15.7122C29.7655 15.892 29.7719 16.0677 29.7716 16.252L29.7717 16.2873C29.7717 16.421 29.7691 16.5486 29.7395 16.6794C29.7163 16.7936 29.7202 16.9118 29.724 17.0283L29.7257 17.0819C29.7287 17.2186 29.7136 17.3428 29.6806 17.4754L29.6721 17.5098C29.6653 17.5355 29.6579 17.5608 29.65 17.5861L29.6416 17.6132C29.5993 17.7467 29.545 17.8709 29.478 17.9939L29.463 18.0215C29.4344 18.0728 29.4034 18.116 29.3652 18.1604C29.358 18.1726 29.3545 18.1784 29.3515 18.1843C29.3489 18.1896 29.3465 18.195 29.3421 18.2053C29.3272 18.2367 29.3128 18.2651 29.2891 18.2909H29.2673L29.2599 18.3147C29.2442 18.3482 29.2244 18.3675 29.1991 18.392L29.1991 18.392L29.1912 18.3997C29.1716 18.4209 29.1522 18.4422 29.1328 18.4636C29.0933 18.5069 29.0535 18.5495 29.0116 18.5904C28.9964 18.6054 28.9817 18.6208 28.9669 18.6362C28.9417 18.6602 28.9165 18.6756 28.8867 18.6933L28.865 18.7259C28.847 18.7334 28.8288 18.7407 28.8106 18.7477C28.7924 18.7599 28.7745 18.7726 28.7569 18.7857C28.7179 18.8138 28.6841 18.8343 28.6366 18.8455V18.8673L28.602 18.8815C28.5764 18.8924 28.555 18.9034 28.5313 18.9182C28.5211 18.924 28.515 18.9275 28.5085 18.9295C28.499 18.9325 28.4885 18.9325 28.4626 18.9325V18.9543L28.4626 18.9543C28.152 19.0622 28.0645 19.0926 27.9744 19.11C27.9391 19.1168 27.9034 19.1216 27.8537 19.1283L27.8537 19.1283L27.8294 19.1319C27.3034 19.2083 26.7492 19.1126 26.266 18.8999L26.219 18.8798C26.1765 18.8616 26.1342 18.8428 26.092 18.8238L26.0706 18.8142C25.8277 18.705 25.5936 18.5725 25.3743 18.4214L25.3532 18.4069C25.1803 18.2874 25.0026 18.1616 24.8555 18.0105C24.8437 17.9974 24.8378 17.9908 24.8306 17.9865C24.8235 17.9821 24.815 17.9799 24.798 17.9756V17.9538H24.7763V17.9321H24.7545C24.7474 17.9249 24.7434 17.9208 24.7396 17.9167C24.7348 17.9114 24.7302 17.9059 24.7198 17.8933C24.6943 17.8633 24.6685 17.8346 24.6403 17.807C24.5752 17.7428 24.5178 17.6725 24.4611 17.6009C24.4472 17.5833 24.4331 17.5659 24.4189 17.5486C24.2655 17.3616 24.1398 17.1582 24.0354 16.9404C24.0269 16.9228 24.018 16.9054 24.0091 16.888C23.8455 16.5586 23.7972 16.1858 23.8084 15.8225L23.8093 15.7928C23.8233 15.4053 23.9847 15.0426 24.1782 14.7133H24.1999L24.2024 14.6959C24.2136 14.6609 24.2337 14.6334 24.255 14.6041L24.2577 14.6005L24.2721 14.5805C24.3091 14.53 24.3483 14.4816 24.3889 14.4339L24.4053 14.4146C24.4267 14.3899 24.4471 14.3674 24.4736 14.3481C24.4838 14.3411 24.4893 14.3374 24.4936 14.3326C24.4984 14.3273 24.5017 14.3208 24.5089 14.3069C24.5297 14.2724 24.5544 14.2504 24.5846 14.2239C24.6245 14.1888 24.6627 14.1529 24.7001 14.1152C24.7547 14.0636 24.8102 14.0177 24.8737 13.9774C24.8847 13.9704 24.8904 13.9668 24.8959 13.963C24.9018 13.9588 24.9074 13.9542 24.9191 13.9448L24.9191 13.9448C24.9299 13.9371 24.9349 13.9335 24.9405 13.9318C24.9455 13.9303 24.9509 13.9303 24.9611 13.9303V13.9086C24.9696 13.9018 24.9744 13.898 24.9794 13.8943C24.986 13.8895 24.9928 13.885 25.0086 13.8746L25.0396 13.8542L25.0733 13.8325L25.1075 13.8103C25.201 13.7504 25.2967 13.6971 25.396 13.6476C25.4158 13.6378 25.4354 13.6277 25.455 13.6175C25.5281 13.58 25.6027 13.5478 25.6788 13.5171L25.7062 13.5056C25.779 13.4754 25.8535 13.4527 25.9289 13.4301L25.9633 13.4192C26.0997 13.376 26.2358 13.3433 26.3768 13.3193L26.4089 13.3138C26.5479 13.2911 26.6868 13.2862 26.8274 13.286ZM26.4195 14.5141C26.4493 14.5141 26.4792 14.5139 26.509 14.5136C26.8682 14.5123 27.2234 14.6366 27.4839 14.8873C27.4953 14.8965 27.5069 14.9056 27.5185 14.9144C27.6961 15.0723 27.8077 15.305 27.8754 15.5288L27.8824 15.5516C27.9463 15.7681 27.9458 16.0402 27.8862 16.2574L27.8771 16.2954C27.8378 16.4474 27.7685 16.6431 27.6579 16.7576H27.6361L27.6326 16.777C27.6211 16.8149 27.5937 16.8427 27.5662 16.8705C27.5605 16.8764 27.5547 16.8822 27.5491 16.8881L27.5217 16.9173C27.4258 17.0163 27.3202 17.0911 27.2012 17.16L27.1729 17.1781C27.1604 17.1851 27.1539 17.1887 27.1469 17.1906C27.1393 17.1926 27.1312 17.1926 27.1142 17.1926V17.2144C26.729 17.3526 26.4285 17.3926 26.0485 17.2144C25.9871 17.1831 25.93 17.1476 25.8745 17.107L25.8547 17.0926L25.8159 17.0641C25.8008 17.0531 25.7856 17.0423 25.7703 17.0315C25.7024 16.9822 25.6536 16.9217 25.6026 16.8555L25.5815 16.8295C25.4372 16.6509 25.3648 16.4323 25.3851 16.2031C25.3976 16.128 25.4243 16.0625 25.4613 15.9964L25.4742 15.972C25.5026 15.9192 25.5328 15.8696 25.57 15.8225H25.5918L25.5992 15.8034C25.6161 15.7745 25.6369 15.7588 25.6628 15.7393L25.6628 15.7393L25.6679 15.7355L25.6813 15.7208C25.7687 15.6392 25.8933 15.5874 26.005 15.5506L26.0331 15.5401C26.1714 15.4939 26.3399 15.5011 26.4726 15.5615C26.4872 15.5716 26.4934 15.576 26.4995 15.5806C26.504 15.5841 26.5084 15.5877 26.5161 15.5941L26.5161 15.5941C26.5041 15.6276 26.4949 15.6373 26.4637 15.6559C26.4183 15.6889 26.3996 15.7275 26.3757 15.7769L26.3747 15.779L26.3638 15.8007C26.3611 15.8337 26.3608 15.8668 26.3606 15.8999V15.8999L26.3604 15.9162L26.3595 15.9483C26.3587 16.0344 26.3781 16.0891 26.4304 16.1568C26.5039 16.2144 26.5978 16.2342 26.6881 16.2534L26.7166 16.2595L26.792 16.2762L26.8252 16.2835L26.8253 16.2835C26.838 16.2865 26.8449 16.2881 26.8517 16.29C26.8599 16.2923 26.868 16.295 26.8858 16.3009C26.9619 16.3104 27.0252 16.2933 27.0924 16.2574C27.1072 16.2447 27.1137 16.2391 27.1196 16.233C27.1242 16.2282 27.1284 16.2231 27.1359 16.2139L27.1359 16.2139H27.1577C27.196 16.1036 27.2054 16.0001 27.2052 15.8836L27.2053 15.8445C27.2041 15.75 27.1923 15.6625 27.1638 15.5723L27.1554 15.5456L27.1468 15.518L27.1284 15.4568L27.1201 15.4292L27.1142 15.4092H27.0924L27.0843 15.3916C27.0238 15.271 26.9257 15.1916 26.8097 15.1265L26.78 15.1092C26.6542 15.0409 26.5071 14.999 26.3638 14.996L26.3429 14.995C26.0589 14.982 25.7642 15.0467 25.5139 15.1827C25.4939 15.1917 25.4939 15.1917 25.4613 15.1917V15.2135L25.4284 15.2258C25.38 15.2465 25.3424 15.2771 25.3022 15.3107L25.2811 15.328L25.2404 15.3615C25.2245 15.3745 25.2084 15.3873 25.1921 15.3999C25.1691 15.4189 25.1502 15.4381 25.131 15.4609C25.1115 15.4837 25.0921 15.5064 25.072 15.5286C24.9862 15.6236 24.9281 15.729 24.874 15.8442L24.8631 15.8672C24.8407 15.9202 24.8317 15.9768 24.8226 16.0333L24.8206 16.0458C24.8147 16.0812 24.8125 16.0947 24.8059 16.1055C24.8018 16.1121 24.7962 16.1178 24.7871 16.1269C24.7759 15.8152 24.8554 15.4551 25.048 15.2026H25.0698L25.0727 15.1842C25.0933 15.1194 25.1531 15.0621 25.2038 15.0136L25.2038 15.0136L25.222 14.996L25.2408 14.971C25.2699 14.9364 25.3018 14.9105 25.3376 14.8832L25.3582 14.8673C25.378 14.8521 25.3979 14.8371 25.4178 14.822L25.4458 14.8004C25.6237 14.6688 25.8535 14.5797 26.0702 14.5393L26.1014 14.5334C26.2075 14.5159 26.3122 14.5138 26.4195 14.5141ZM27.5707 14.0608C27.309 13.9734 27.0401 13.9548 26.766 13.963V13.9738L26.8226 13.9838L26.8462 13.9881C26.8963 13.9968 26.945 14.0074 26.9937 14.022L26.994 14.0221C27.0209 14.0305 27.0477 14.0388 27.0748 14.0466C27.2298 14.0905 27.3818 14.1384 27.5218 14.2199C27.525 14.2218 27.5282 14.2238 27.5314 14.2258C27.5557 14.2408 27.5798 14.2556 27.6052 14.2688C27.8938 14.4159 28.1317 14.6862 28.2798 14.969L28.2993 15.0069C28.4981 15.3891 28.5855 15.8053 28.4999 16.2337L28.495 16.2574C28.4501 16.4871 28.352 16.6997 28.2245 16.8949C28.2025 16.9278 28.1818 16.9594 28.166 16.9958L28.1579 17.0186H28.1362L28.1201 17.0398C28.0846 17.0943 28.0485 17.1422 28.0014 17.1872C27.9973 17.191 27.9941 17.194 27.991 17.197C27.9809 17.2066 27.971 17.2164 27.9296 17.2579C27.8765 17.3139 27.8228 17.3642 27.7603 17.4094C27.7403 17.4237 27.7204 17.4382 27.7012 17.4536V17.4754C27.6907 17.4754 27.6853 17.4754 27.6803 17.4768C27.6749 17.4783 27.6699 17.4815 27.6597 17.4882C27.3683 17.7025 27.0534 17.8275 26.6999 17.8955L26.679 17.8995V17.9212C27.1943 17.9886 27.7518 17.9849 28.2312 17.7598L28.2612 17.7452C28.4076 17.6744 28.5512 17.589 28.669 17.4754V17.4536C28.7079 17.4392 28.7309 17.4144 28.7578 17.3836L28.7744 17.3639C28.8327 17.2951 28.8844 17.2239 28.9301 17.146L28.9409 17.1274C28.9544 17.104 28.9675 17.0805 28.9803 17.0567C29.0645 16.8819 29.1282 16.7064 29.0659 16.5171C29.0563 16.4886 29.0473 16.4603 29.0387 16.4314C29.0293 16.366 29.0326 16.313 29.0714 16.2574C29.0742 16.2557 29.0768 16.2541 29.0794 16.2526C29.1042 16.2377 29.1196 16.2284 29.1366 16.2031C29.1673 15.9909 29.0951 15.7409 29.0204 15.544C29.0129 15.5247 29.0055 15.5055 28.9984 15.4861C28.9438 15.335 28.8873 15.1791 28.7859 15.0524L28.7669 15.0286C28.7508 14.9878 28.7329 14.9546 28.7067 14.9191L28.6908 14.8982C28.6733 14.8748 28.6557 14.8517 28.6377 14.8289L28.6146 14.8003C28.528 14.6926 28.4339 14.5961 28.3311 14.5037L28.3102 14.4849C28.1075 14.3023 27.8711 14.1624 27.6121 14.0742L27.5707 14.0608Z" fill="#FEDE59"/>
<path d="M30.2075 12.2142C30.2481 12.2349 30.2711 12.254 30.3006 12.2883C30.3079 12.2963 30.3079 12.2963 30.3152 12.3044C30.3681 12.3641 30.3815 12.4102 30.3794 12.4885C30.367 12.6207 30.2832 12.7522 30.2046 12.8554C30.1826 12.8843 30.1615 12.9137 30.1406 12.9434C29.9908 13.1559 29.9908 13.1559 29.8881 13.2272C29.8228 13.2731 29.7578 13.3336 29.7259 13.4083C29.7105 13.4351 29.6896 13.4502 29.6656 13.4692C29.6356 13.4955 29.6133 13.5274 29.5897 13.5592C29.516 13.6554 29.4388 13.719 29.3328 13.7781C29.3216 13.7848 29.3104 13.7915 29.2988 13.7985C29.2577 13.8146 29.2241 13.8195 29.1806 13.8107C29.1334 13.7854 29.1334 13.7854 29.1153 13.7563C29.088 13.6433 29.1497 13.5117 29.2048 13.4159C29.2397 13.3628 29.2803 13.3149 29.3219 13.267C29.3642 13.221 29.3642 13.221 29.3981 13.1691C29.4052 13.1691 29.4124 13.1691 29.4198 13.1691C29.427 13.1512 29.4342 13.1332 29.4416 13.1148C29.4487 13.1148 29.4559 13.1148 29.4633 13.1148C29.4679 13.1029 29.4679 13.1029 29.4727 13.0908C29.5392 12.9272 29.6239 12.7706 29.7107 12.617C29.7248 12.5919 29.7387 12.5668 29.7527 12.5417C29.9774 12.1371 29.9774 12.1371 30.2075 12.2142Z" fill="#FEDE5A"/>
<path d="M23.7098 18.1369C23.7614 18.1646 23.7614 18.1646 23.7757 18.1931C23.7842 18.3189 23.7031 18.4499 23.6343 18.5519C23.6161 18.5712 23.598 18.5868 23.5767 18.6026C23.5481 18.6251 23.5261 18.6525 23.5026 18.6801C23.4797 18.7069 23.4561 18.7331 23.4324 18.7592C23.4241 18.7685 23.4158 18.7778 23.4072 18.7873C23.394 18.802 23.3807 18.8166 23.3673 18.831C23.3273 18.875 23.2944 18.9235 23.2612 18.9726C23.2563 18.9797 23.2515 18.9868 23.2465 18.9942C23.242 19.001 23.2374 19.0078 23.2328 19.0149C23.2287 19.021 23.2246 19.0271 23.2204 19.0334C23.2092 19.0539 23.204 19.0729 23.1993 19.0956C23.1921 19.0956 23.185 19.0956 23.1776 19.0956C23.1747 19.1017 23.1718 19.1077 23.1688 19.1139C23.1264 19.1962 23.0713 19.2716 23.0165 19.3459C22.9888 19.3837 22.9615 19.4218 22.9343 19.4599C22.9296 19.4664 22.9249 19.473 22.9201 19.4797C22.9004 19.5073 22.881 19.535 22.8622 19.5632C22.8515 19.5632 22.8407 19.5632 22.8296 19.5632C22.8296 19.5704 22.8296 19.5776 22.8296 19.585C22.7503 19.6444 22.677 19.6494 22.5795 19.6393C22.5085 19.615 22.4421 19.5657 22.4052 19.4997C22.3788 19.4382 22.3712 19.3752 22.3913 19.3107C22.402 19.2853 22.414 19.2613 22.4272 19.237C22.432 19.2282 22.4367 19.2195 22.4416 19.2105C22.4748 19.1524 22.5129 19.1005 22.5555 19.049C22.573 19.0275 22.5897 19.0061 22.6062 18.9839C22.6108 18.9778 22.6154 18.9716 22.6201 18.9653C22.6331 18.9478 22.6461 18.9302 22.659 18.9127C22.7099 18.849 22.7769 18.8 22.842 18.7517C22.9652 18.6597 23.0709 18.5535 23.1776 18.4432C23.2121 18.4075 23.2468 18.3719 23.2816 18.3365C23.293 18.3245 23.293 18.3245 23.3047 18.3123C23.3916 18.2237 23.5793 18.0805 23.7098 18.1369Z" fill="#FDDE5B"/>
<path d="M27.4836 19.5197C27.4836 19.5269 27.4836 19.5341 27.4836 19.5415C27.496 19.5442 27.496 19.5442 27.5086 19.5469C27.5514 19.5707 27.5585 19.6057 27.5719 19.6502C27.5747 19.6591 27.5774 19.668 27.5802 19.6771C27.6239 19.8235 27.6369 19.9658 27.6435 20.118C27.6439 20.1264 27.6443 20.1349 27.6446 20.1436C27.6452 20.1565 27.6452 20.1565 27.6458 20.1695C27.6516 20.2947 27.6673 20.4121 27.6968 20.5342C27.7266 20.6599 27.7434 20.7866 27.7602 20.9146C27.7618 20.9269 27.7618 20.9269 27.7634 20.9393C27.7663 20.9616 27.7692 20.9838 27.772 21.0061C27.7759 21.0335 27.7808 21.059 27.788 21.0856C27.7978 21.1696 27.7772 21.2336 27.7298 21.3029C27.6861 21.3579 27.6375 21.3895 27.5706 21.4119C27.4893 21.4191 27.4176 21.4234 27.3492 21.3747C27.2969 21.3245 27.2769 21.2796 27.26 21.2107C27.2577 21.2016 27.2554 21.1925 27.2531 21.1832C27.2162 21.0299 27.1981 20.8791 27.1967 20.7213C27.1966 20.7101 27.1964 20.6989 27.1963 20.6874C27.1967 20.6128 27.2054 20.5415 27.2171 20.468C27.2391 20.3265 27.2385 20.1857 27.239 20.0429C27.2392 20.0089 27.2395 19.975 27.2399 19.941C27.2399 19.9308 27.2398 19.9207 27.2398 19.9103C27.2409 19.8138 27.2683 19.7315 27.3062 19.6434C27.3109 19.6323 27.3157 19.6212 27.3206 19.6097C27.3241 19.6015 27.3277 19.5934 27.3313 19.585C27.3385 19.585 27.3457 19.585 27.3531 19.585C27.3562 19.5762 27.3593 19.5675 27.3626 19.5585C27.3862 19.5046 27.4315 19.5189 27.4836 19.5197Z" fill="#FEDE5B"/>
<path d="M30.4798 17.3734C30.4895 17.3734 30.4992 17.3734 30.5092 17.3734C30.5674 17.3743 30.6214 17.3817 30.6781 17.3941C30.767 17.4127 30.8603 17.4111 30.9508 17.4115C30.958 17.4115 30.9651 17.4116 30.9726 17.4116C31.0256 17.4115 31.0781 17.4084 31.131 17.4048C31.2505 17.3973 31.3701 17.396 31.4897 17.3954C31.5157 17.3952 31.5416 17.3949 31.5676 17.3945C31.6056 17.3939 31.6436 17.3937 31.6817 17.3935C31.6931 17.3933 31.7046 17.393 31.7164 17.3928C31.8079 17.3931 31.8732 17.4196 31.9471 17.4726C31.9951 17.5417 32.0062 17.6213 31.9967 17.7037C31.9817 17.7763 31.9395 17.8363 31.888 17.8886C31.8506 17.9096 31.8506 17.9096 31.8119 17.9212C31.7935 17.9269 31.7935 17.9269 31.7747 17.9326C31.7122 17.948 31.6495 17.9462 31.5856 17.9457C31.5726 17.9456 31.5596 17.9455 31.5462 17.9454C31.3861 17.9435 31.2383 17.9311 31.0857 17.8811C30.9755 17.8458 30.8637 17.8256 30.7496 17.8077C30.3143 17.737 30.3143 17.737 30.1372 17.6058C30.1111 17.5679 30.1045 17.5474 30.1053 17.5012C30.1169 17.4592 30.1253 17.4477 30.159 17.421C30.1882 17.4106 30.2145 17.4029 30.2446 17.3965C30.2531 17.3947 30.2615 17.3929 30.2703 17.391C30.3401 17.3774 30.4087 17.3735 30.4798 17.3734Z" fill="#FEDE59"/>
<path d="M22.3992 13.6802C22.4271 13.691 22.4549 13.6994 22.4837 13.7074C22.5261 13.7197 22.5638 13.7358 22.6025 13.7567C22.6237 13.768 22.6237 13.768 22.6499 13.7775C22.6772 13.7889 22.6988 13.802 22.723 13.8189C22.7919 13.8658 22.8604 13.911 22.9384 13.9412C22.9784 13.9591 23.0181 13.9777 23.0578 13.9962C23.0814 14.0072 23.1051 14.0179 23.1288 14.0287C23.2973 14.1056 23.448 14.1903 23.58 14.3218C23.5881 14.3293 23.5962 14.3367 23.6046 14.3444C23.6235 14.3653 23.6235 14.3653 23.6296 14.4013C23.6219 14.4518 23.6098 14.4852 23.5691 14.5175C23.5241 14.5287 23.4807 14.5273 23.4346 14.5257C23.4219 14.5255 23.4092 14.5252 23.3961 14.525C23.2963 14.5215 23.2145 14.505 23.1233 14.4632C23.1128 14.4586 23.1023 14.4541 23.0915 14.4494C23.0531 14.4323 23.0151 14.4143 22.9772 14.3962C22.8728 14.3493 22.764 14.3255 22.653 14.3001C22.6324 14.2953 22.6119 14.2904 22.5914 14.2856C22.4842 14.2606 22.3769 14.2368 22.269 14.2151C21.9219 14.1451 21.9219 14.1451 21.8524 14.0567C21.8096 13.9872 21.7922 13.9242 21.8075 13.8433C21.8385 13.7467 21.8987 13.6884 21.9842 13.6374C22.1166 13.5999 22.2737 13.6303 22.3992 13.6802Z" fill="#FEDE5B"/>
<path d="M27.6279 11.035C27.6344 11.0395 27.6409 11.044 27.6476 11.0486C27.6544 11.0532 27.6612 11.0579 27.6683 11.0626C27.7214 11.1029 27.7483 11.1481 27.7672 11.2118C27.7728 11.2599 27.7723 11.3074 27.7713 11.3558C27.7711 11.3693 27.7709 11.3827 27.7707 11.3965C27.7673 11.572 27.7566 11.7329 27.6979 11.8992C27.6547 12.0231 27.6265 12.1484 27.6041 12.2774C27.554 12.5659 27.554 12.5659 27.4858 12.6941C27.4821 12.7013 27.4783 12.7085 27.4745 12.716C27.4077 12.8435 27.4077 12.8435 27.3648 12.8864C27.3167 12.8917 27.2716 12.896 27.2296 12.8701C27.1535 12.7483 27.1476 12.5619 27.1745 12.4235C27.1792 12.4043 27.184 12.385 27.1888 12.3658C27.2233 12.2216 27.2282 12.0823 27.2272 11.9348C27.2272 11.9244 27.2271 11.9141 27.2271 11.9034C27.2265 11.8283 27.2253 11.7531 27.2241 11.678C27.223 11.6021 27.2221 11.5262 27.2215 11.4503C27.2211 11.4203 27.2205 11.3903 27.2199 11.3603C27.2197 11.3418 27.2196 11.3234 27.2194 11.305C27.2191 11.2968 27.2189 11.2886 27.2187 11.2802C27.2185 11.2187 27.2367 11.1775 27.267 11.1248C27.2705 11.1172 27.2741 11.1097 27.2778 11.1019C27.3037 11.0529 27.3535 11.0284 27.4043 11.011C27.4813 10.9934 27.559 10.9939 27.6279 11.035Z" fill="#FEDE5B"/>
<path d="M31.453 15.1156C31.5246 15.1704 31.5751 15.2375 31.5872 15.3282C31.5906 15.419 31.5579 15.4945 31.4965 15.5615C31.2766 15.7681 30.9064 15.7584 30.6245 15.7817C30.613 15.7827 30.6016 15.7836 30.5898 15.7846C30.4654 15.795 30.341 15.8029 30.2162 15.8053C30.2057 15.8057 30.1953 15.8061 30.1845 15.8065C30.1341 15.8069 30.1123 15.8069 30.0718 15.7746C30.0647 15.7653 30.0575 15.756 30.0502 15.7464C30.043 15.7392 30.0358 15.732 30.0284 15.7246C30.0248 15.6891 30.0248 15.6891 30.0244 15.6458C30.0241 15.6316 30.0238 15.6174 30.0234 15.6028C30.0294 15.554 30.0388 15.5325 30.0719 15.4962C30.1425 15.4618 30.2199 15.4484 30.2962 15.4317C30.5311 15.3783 30.7391 15.3026 30.9521 15.189C31.281 15.0144 31.281 15.0144 31.453 15.1156Z" fill="#FEDE5B"/>
<path d="M25.2438 19.15C25.3012 19.1695 25.3286 19.2001 25.3634 19.2479C25.4011 19.3609 25.3344 19.468 25.2911 19.5709C25.2746 19.6112 25.2586 19.6516 25.2431 19.6923C25.238 19.7055 25.233 19.7187 25.2278 19.7324C25.1873 19.8464 25.1612 19.9597 25.1448 20.0795C25.1241 20.2302 25.0929 20.3746 25.048 20.5201C25.0409 20.5201 25.0337 20.5201 25.0263 20.5201C25.0252 20.5266 25.0241 20.5331 25.023 20.5398C25.0139 20.5682 25.0034 20.5785 24.9807 20.5976C24.9745 20.603 24.9683 20.6084 24.9619 20.614C24.8848 20.6647 24.7833 20.6623 24.6953 20.6456C24.6206 20.6209 24.5664 20.5716 24.5267 20.5045C24.4704 20.3784 24.506 20.2529 24.5517 20.1304C24.5736 20.0743 24.5972 20.0195 24.6239 19.9656C24.633 19.9465 24.633 19.9465 24.6423 19.9272C24.6713 19.8673 24.7 19.8094 24.7408 19.7565C24.7654 19.7216 24.7842 19.6832 24.8043 19.6456C24.8221 19.6131 24.842 19.5827 24.8632 19.5523C24.8938 19.509 24.8938 19.509 24.9162 19.4613C24.9279 19.434 24.9401 19.4165 24.9583 19.3933C24.9853 19.3586 25.0065 19.3234 25.027 19.2846C25.0825 19.1797 25.1225 19.1399 25.2438 19.15Z" fill="#FEDE5B"/>
<path d="M24.7917 11.7421C24.8554 11.7779 24.8975 11.8386 24.9395 11.8968C24.9451 11.9044 24.9508 11.9119 24.9566 11.9196C25.0099 11.9923 25.0485 12.0684 25.0856 12.1504C25.0917 12.1638 25.0979 12.1772 25.104 12.1906C25.1604 12.3144 25.2117 12.4405 25.2543 12.5699C25.2655 12.6031 25.2777 12.6358 25.2905 12.6685C25.2952 12.6806 25.2998 12.6927 25.3047 12.7051C25.3144 12.7303 25.3242 12.7554 25.334 12.7805C25.416 12.9924 25.416 12.9924 25.4071 13.0604C25.3805 13.1126 25.3504 13.1426 25.2983 13.1691C25.2454 13.1832 25.1929 13.1876 25.1426 13.1617C25.0694 13.1045 25.0327 13.0089 24.9933 12.9277C24.9591 12.8593 24.9171 12.7955 24.8756 12.7314C24.8649 12.7149 24.8544 12.6982 24.8438 12.6816C24.8205 12.6454 24.7978 12.6126 24.7668 12.5826C24.7592 12.5752 24.7516 12.5678 24.7437 12.5602C24.7437 12.553 24.7437 12.5458 24.7437 12.5384C24.733 12.5348 24.7222 12.5313 24.7111 12.5276C24.6943 12.5109 24.6943 12.5109 24.6764 12.4895C24.6699 12.4817 24.6633 12.474 24.6565 12.466C24.6494 12.4576 24.6423 12.4492 24.635 12.4406C24.6194 12.4226 24.6038 12.4047 24.5881 12.3869C24.581 12.3787 24.5738 12.3705 24.5665 12.3621C24.5492 12.3418 24.5492 12.3418 24.5262 12.3318C24.5209 12.3157 24.5209 12.3157 24.5154 12.2992C24.5046 12.292 24.4938 12.2848 24.4827 12.2774C24.4714 12.2596 24.4607 12.2414 24.4501 12.2231C24.4333 12.1979 24.4162 12.1729 24.3991 12.1479C24.3619 12.0885 24.3694 12.0188 24.374 11.9512C24.406 11.8586 24.4762 11.8025 24.5589 11.7555C24.629 11.7214 24.7175 11.7184 24.7917 11.7421Z" fill="#FDDE5B"/>
<path d="M22.5484 16.0461C22.5686 16.0461 22.5888 16.046 22.6091 16.0459C22.6511 16.0458 22.693 16.0459 22.735 16.046C22.7886 16.0461 22.8423 16.0459 22.8959 16.0456C22.9375 16.0454 22.9791 16.0454 23.0207 16.0454C23.0405 16.0454 23.0603 16.0454 23.08 16.0452C23.1076 16.0451 23.1352 16.0452 23.1628 16.0454C23.1708 16.0453 23.1789 16.0452 23.1871 16.045C23.2552 16.046 23.3132 16.0673 23.3629 16.1148C23.3886 16.1676 23.3839 16.2371 23.3665 16.2922C23.3423 16.339 23.3104 16.3628 23.2653 16.3879C23.2317 16.3971 23.1979 16.4014 23.1634 16.4058C23.1432 16.4086 23.1229 16.4115 23.1027 16.4144C23.0922 16.4158 23.0817 16.4173 23.0708 16.4187C22.893 16.4435 22.725 16.4724 22.5574 16.5387C22.5209 16.553 22.4841 16.5665 22.4473 16.58C22.3856 16.6026 22.324 16.6255 22.2625 16.6487C22.1705 16.6824 22.0726 16.7052 21.9762 16.672C21.9073 16.6315 21.8493 16.5669 21.8241 16.4906C21.8069 16.4003 21.8072 16.3027 21.8553 16.2223C21.8632 16.2118 21.8632 16.2118 21.8714 16.201C21.8766 16.1939 21.8818 16.1868 21.8872 16.1795C22.0226 16.0361 22.3658 16.0457 22.5484 16.0461Z" fill="#FDDE5B"/>
<path d="M29.1254 19.1717C29.1538 19.1958 29.1538 19.1958 29.1798 19.2261C29.1879 19.235 29.196 19.2439 29.2044 19.2531C29.2131 19.2628 29.2218 19.2725 29.2308 19.2825C29.4041 19.4721 29.5811 19.6279 29.8005 19.7617C29.8552 19.7954 29.9072 19.832 29.9587 19.8704C29.9658 19.8757 29.9728 19.8809 29.9801 19.8864C30.0602 19.9471 30.1253 20.0033 30.1398 20.107C30.1436 20.1875 30.1081 20.2547 30.0715 20.3244C30.0643 20.3244 30.0572 20.3244 30.0498 20.3244C30.0472 20.3309 30.0446 20.3373 30.0419 20.344C30.0251 20.373 30.0079 20.3846 29.9798 20.4026C29.9712 20.4081 29.9627 20.4137 29.954 20.4194C29.9135 20.4428 29.8803 20.4461 29.8343 20.4468C29.8233 20.447 29.8122 20.4473 29.8008 20.4476C29.6681 20.4336 29.5463 20.288 29.4659 20.1892C29.4389 20.1548 29.4125 20.12 29.3864 20.0849C29.3807 20.0772 29.375 20.0696 29.3691 20.0616C29.3578 20.0464 29.3465 20.0311 29.3353 20.0158C29.3042 19.9738 29.2715 19.9371 29.2342 19.9003C29.2236 19.8821 29.2131 19.8638 29.2031 19.8452C29.1891 19.8215 29.1731 19.8007 29.1559 19.7791C29.1159 19.7283 29.0774 19.6765 29.0391 19.6244C29.0292 19.6109 29.0292 19.6109 29.0192 19.5972C29.0061 19.5794 28.9931 19.5617 28.9801 19.5439C28.9646 19.5229 28.9491 19.5019 28.9335 19.4809C28.9258 19.4704 28.918 19.4599 28.91 19.449C28.9034 19.4402 28.8968 19.4313 28.8901 19.4222C28.8615 19.3793 28.8594 19.3418 28.8645 19.2914C28.9163 19.1843 29.0106 19.1486 29.1254 19.1717Z" fill="#FDDE5B"/>
</svg>
