<svg width="40" height="40" viewBox="0 0 40 40" fill="none" xmlns="http://www.w3.org/2000/svg">
<path fill-rule="evenodd" clip-rule="evenodd" d="M19.299 8.77871L19.3951 8.77858C20.5113 8.77957 21.5975 8.92107 22.6498 9.30008C22.7351 9.33065 22.8208 9.35998 22.9066 9.38911C23.3264 9.53502 23.7106 9.73314 24.0999 9.94596C24.2017 10.0008 24.3042 10.0537 24.4072 10.1062L24.5067 10.1573C24.5692 10.1893 24.6318 10.2211 24.6947 10.2526C24.8221 10.3186 24.8726 10.3448 24.9028 10.3858C24.9226 10.4128 24.9338 10.4461 24.9521 10.5013C24.9872 10.522 25.0059 10.533 25.0253 10.5429C25.0473 10.5542 25.0702 10.5639 25.1192 10.5848L25.1192 10.5848C25.6525 10.9014 26.1153 11.2759 26.5642 11.6998C26.6357 11.7663 26.7097 11.8295 26.7843 11.8924C27.216 12.2672 27.6064 12.6827 27.9588 13.1321L28.1415 13.3487C28.2973 13.5395 28.4417 13.7366 28.5826 13.9386L28.6424 14.0233C28.7507 14.181 28.8268 14.3232 28.8775 14.5101H28.961C29.576 15.6257 30.0588 16.7148 30.3756 17.9553L30.4118 18.0954C30.5819 18.7861 30.6063 19.4608 30.6053 20.1685L30.6055 20.3042C30.6054 20.8173 30.5955 21.3074 30.482 21.8097C30.3929 22.2483 30.4077 22.7021 30.4224 23.1497C30.4247 23.2185 30.4269 23.2872 30.4288 23.3556C30.4403 23.8802 30.3825 24.3573 30.2555 24.8664L30.223 24.9986C30.1969 25.0972 30.1686 25.1945 30.1381 25.2918L30.106 25.3955C29.9434 25.9083 29.7349 26.3852 29.4778 26.8578L29.4202 26.9638C29.3102 27.1605 29.1911 27.3264 29.0445 27.4972L29.0445 27.4973C29.0166 27.544 29.0035 27.566 28.992 27.5888C28.9818 27.6091 28.9728 27.63 28.9558 27.6693L28.9558 27.6694C28.8985 27.79 28.8433 27.8989 28.7522 27.9983H28.6687L28.64 28.0896C28.5799 28.2183 28.5038 28.2922 28.4065 28.3866L28.3764 28.4159C28.3012 28.4973 28.2263 28.579 28.1519 28.6612C28.0005 28.8275 27.8475 28.9911 27.6867 29.1485C27.6283 29.2058 27.5716 29.2649 27.5151 29.3241C27.418 29.4162 27.3215 29.4754 27.2071 29.5434L27.1236 29.6687C27.0545 29.6976 26.9848 29.7253 26.9148 29.7522C26.8449 29.7992 26.7762 29.848 26.7086 29.8983C26.5586 30.0062 26.429 30.0848 26.2467 30.128V30.2115L26.1136 30.2663C26.0155 30.3079 25.933 30.3502 25.8421 30.4073C25.803 30.4295 25.7797 30.4427 25.7548 30.4505C25.7181 30.4621 25.6779 30.4621 25.5785 30.4621V30.5456C24.3855 30.9602 24.0494 31.077 23.7036 31.1436C23.568 31.1697 23.431 31.1881 23.2401 31.2137L23.24 31.2137L23.1466 31.2276C21.1267 31.521 18.9985 31.1536 17.1432 30.3368L16.9626 30.2596C16.7993 30.1897 16.637 30.1176 16.4751 30.0445L16.3926 30.0076C15.4599 29.5882 14.5609 29.0797 13.719 28.4994L13.6377 28.4435C12.9736 27.9845 12.2914 27.5018 11.7264 26.9214C11.6812 26.871 11.6587 26.8458 11.631 26.829C11.6035 26.8123 11.5709 26.804 11.5057 26.7873V26.7038H11.4222V26.6202H11.3387C11.3114 26.5925 11.2962 26.5771 11.2816 26.561C11.263 26.5407 11.2454 26.5195 11.2056 26.4715L11.2056 26.4715C11.1077 26.3561 11.0085 26.2458 10.9002 26.14C10.6503 25.8934 10.4297 25.6235 10.212 25.3484C10.1586 25.2811 10.1046 25.2141 10.0499 25.1478C9.461 24.4296 8.97811 23.6485 8.57731 22.8119C8.54462 22.7444 8.51053 22.6776 8.47626 22.6109C7.84802 21.346 7.66239 19.9144 7.70568 18.519L7.70886 18.405C7.76292 16.917 8.38248 15.5243 9.12548 14.2596H9.209L9.21862 14.1927C9.26173 14.0583 9.33873 13.9527 9.42055 13.8405L9.43084 13.8263L9.48616 13.7497C9.62833 13.5559 9.77868 13.3698 9.93456 13.1869L9.99774 13.1125C10.0799 13.0179 10.1584 12.9314 10.2598 12.8572C10.2993 12.8303 10.3202 12.816 10.3367 12.7978C10.3551 12.7775 10.3681 12.7523 10.3955 12.6988C10.4755 12.5665 10.5701 12.4822 10.6862 12.3804C10.8393 12.2455 10.9862 12.1077 11.1299 11.9628C11.3393 11.7645 11.5527 11.5883 11.7963 11.4335L11.7963 11.4335C11.8386 11.4069 11.8605 11.3932 11.8816 11.3782C11.9042 11.3621 11.9259 11.3447 11.9708 11.3086C12.0121 11.279 12.0315 11.2652 12.0531 11.2587C12.0722 11.2529 12.093 11.2529 12.1321 11.2529V11.1694C12.1647 11.1434 12.1833 11.1286 12.2024 11.1145C12.2275 11.096 12.2537 11.0788 12.3143 11.0389L12.4334 10.9605L12.5628 10.8771L12.6944 10.7918C13.0534 10.5621 13.4207 10.3571 13.8021 10.1673C13.878 10.1294 13.9535 10.0906 14.0289 10.0517C14.3095 9.90776 14.5957 9.7838 14.8882 9.66609L14.9934 9.62188C15.273 9.50581 15.5589 9.41868 15.8487 9.33201L15.9805 9.29026C16.5044 9.12426 17.0272 8.99848 17.5686 8.90659L17.6918 8.88547C18.2256 8.79832 18.7592 8.77921 19.299 8.77871ZM17.7318 13.4947C17.8463 13.4948 17.9608 13.4939 18.0753 13.4928C19.4548 13.4878 20.819 13.9651 21.8191 14.9277C21.863 14.9631 21.9073 14.998 21.9522 15.0321C22.6342 15.6383 23.0627 16.532 23.3224 17.3915L23.3494 17.4789C23.5947 18.3103 23.5929 19.3553 23.3642 20.1893L23.3289 20.3352C23.1782 20.9187 22.912 21.6703 22.4872 22.1103H22.4037L22.3903 22.1845C22.3458 22.33 22.2407 22.4368 22.1353 22.5437L22.1353 22.5437C22.1133 22.5662 22.0912 22.5886 22.0697 22.6114L21.9643 22.7234C21.5962 23.1036 21.1904 23.3909 20.7334 23.6553L20.6247 23.725C20.5767 23.7516 20.5518 23.7655 20.525 23.7728C20.4958 23.7806 20.4646 23.7806 20.3993 23.7806V23.8641C18.9201 24.3949 17.7662 24.5487 16.3069 23.8641C16.0714 23.7439 15.8519 23.6079 15.6388 23.4518L15.5628 23.3965C15.5131 23.3601 15.4635 23.3237 15.4139 23.2872C15.356 23.2447 15.2974 23.2032 15.2386 23.1619C14.9779 22.9724 14.7907 22.7401 14.5948 22.4861L14.5136 22.3863C13.9595 21.7003 13.6814 20.8608 13.7596 19.9805C13.8075 19.6922 13.9101 19.441 14.0519 19.1871L14.1017 19.0933C14.2108 18.8904 14.3268 18.7002 14.4695 18.519H14.553L14.5817 18.4459C14.6466 18.3347 14.7264 18.2746 14.826 18.1995L14.8453 18.1849L14.8967 18.1286C15.2325 17.8151 15.7111 17.6163 16.1399 17.475L16.2479 17.4347C16.7791 17.2574 17.426 17.2849 17.9355 17.5168L17.9356 17.5168C17.9916 17.5559 18.0156 17.5726 18.0387 17.5904C18.0561 17.6037 18.073 17.6177 18.1025 17.642L18.1025 17.642C18.0566 17.7706 18.0212 17.8078 17.9016 17.8795C17.7273 18.006 17.6553 18.1545 17.5635 18.344L17.5597 18.3519L17.5179 18.4355C17.5073 18.5622 17.5064 18.6892 17.5054 18.8163V18.8163L17.5049 18.8792L17.5012 19.0023C17.4983 19.3329 17.5728 19.5431 17.7737 19.8031C18.0559 20.0239 18.4163 20.1003 18.7632 20.1738L18.7633 20.1739C18.7999 20.1816 18.8363 20.1893 18.8725 20.1972L19.162 20.2616L19.2898 20.2895C19.3386 20.3009 19.3652 20.3072 19.3915 20.3145C19.423 20.3233 19.4541 20.3336 19.5223 20.3564L19.5224 20.3564C19.8145 20.3928 20.0576 20.327 20.3158 20.1893C20.3726 20.1405 20.3975 20.1191 20.4201 20.0955C20.4377 20.0771 20.4539 20.0574 20.4828 20.0223L20.4828 20.0223H20.5663C20.7137 19.5985 20.7495 19.2014 20.749 18.7539L20.7492 18.6036C20.7447 18.2409 20.6992 17.9047 20.5898 17.5585L20.5578 17.4558L20.5246 17.3497C20.501 17.2715 20.4775 17.1932 20.4541 17.1148L20.4223 17.0088L20.3993 16.9321H20.3158L20.2848 16.8646C20.0523 16.4012 19.6755 16.0965 19.23 15.8464L19.116 15.7802C18.6332 15.5178 18.0682 15.3568 17.5179 15.3453L17.4377 15.3415C16.3469 15.2915 15.2151 15.5401 14.2542 16.0624L14.2542 16.0624C14.2229 16.0764 14.2043 16.0848 14.1849 16.0897C14.1565 16.097 14.1263 16.097 14.0519 16.097V16.1805L13.9257 16.2276C13.7398 16.3074 13.5955 16.4249 13.4412 16.5537L13.36 16.6202C13.3078 16.6629 13.2558 16.7057 13.2039 16.7487C13.1429 16.7989 13.0807 16.8478 13.0184 16.8964C12.9298 16.9694 12.8575 17.0431 12.7835 17.1305C12.7089 17.2181 12.6345 17.3054 12.5572 17.3907C12.2277 17.7552 12.0046 18.1602 11.7969 18.6025L11.755 18.6907C11.6688 18.8942 11.6342 19.1115 11.5995 19.3287L11.5918 19.3768C11.5691 19.5127 11.5604 19.5643 11.5352 19.6059C11.5197 19.6314 11.4979 19.6532 11.4629 19.6882C11.4199 18.4912 11.7251 17.1083 12.4651 16.1387H12.5486L12.5597 16.0681C12.6389 15.8191 12.8685 15.5992 13.0632 15.4127L13.0633 15.4126C13.0872 15.3897 13.1107 15.3672 13.1332 15.3453L13.2053 15.2492C13.3172 15.1164 13.4395 15.0171 13.5769 14.912L13.656 14.8511C13.7321 14.7928 13.8085 14.7349 13.8849 14.6772L13.9925 14.5941C14.6758 14.0887 15.5583 13.7467 16.3904 13.5914L16.5101 13.569C16.9177 13.5015 17.3195 13.4937 17.7318 13.4947ZM22.1534 11.754C21.1484 11.4181 20.1159 11.3468 19.0632 11.3782V11.42C19.1356 11.4326 19.208 11.4454 19.2803 11.4584L19.3712 11.4748C19.5637 11.5082 19.7505 11.5487 19.9377 11.6051L19.9387 11.6054C20.0419 11.6374 20.145 11.6694 20.2488 11.6994C20.8442 11.868 21.4281 12.052 21.9654 12.3648C21.9777 12.3723 21.99 12.3799 22.0023 12.3875C22.0956 12.445 22.1883 12.5022 22.2858 12.5528C23.3941 13.1174 24.3076 14.1557 24.8765 15.2416L24.9512 15.3871C25.7148 16.8547 26.0502 18.453 25.7216 20.0983L25.7029 20.1894C25.5302 21.0714 25.1536 21.8878 24.6641 22.6375C24.5795 22.7635 24.5 22.8849 24.4393 23.0247L24.4083 23.1125H24.3248L24.263 23.1936C24.1266 23.403 23.9883 23.5871 23.8074 23.7596C23.7914 23.7745 23.7793 23.7859 23.7672 23.7974C23.7284 23.8342 23.6906 23.872 23.5314 24.0312C23.3275 24.2464 23.1214 24.4394 22.8815 24.6132C22.8044 24.6678 22.7282 24.7238 22.6545 24.7829V24.8664C22.6143 24.8664 22.5934 24.8664 22.5741 24.8719C22.5533 24.8778 22.5344 24.8901 22.4949 24.9156C21.376 25.7387 20.1666 26.2188 18.8092 26.4798L18.7291 26.495V26.5785C20.7078 26.8372 22.8488 26.8232 24.6896 25.9587L24.8051 25.9025C25.3672 25.6307 25.9185 25.3029 26.371 24.8664V24.7829C26.5202 24.7276 26.6086 24.6322 26.7118 24.5139L26.7756 24.4383C26.9995 24.174 27.1983 23.9006 27.3736 23.6017L27.415 23.5301C27.4669 23.4404 27.5174 23.3499 27.5664 23.2586C27.8899 22.5874 28.1343 21.9135 27.8952 21.1864C27.8582 21.0771 27.8238 20.9682 27.7908 20.8575C27.7546 20.6063 27.7673 20.4027 27.9161 20.1894C27.9268 20.1828 27.9371 20.1767 27.947 20.1707C28.0423 20.1134 28.1013 20.0778 28.1667 19.9806C28.2846 19.1659 28.0071 18.2059 27.7204 17.4496C27.6918 17.3757 27.6633 17.3017 27.636 17.2273C27.4264 16.6472 27.2092 16.0485 26.8199 15.5619L26.7468 15.4706C26.685 15.3139 26.6165 15.1861 26.5155 15.0499L26.4545 14.9695C26.3876 14.8799 26.3199 14.7912 26.2506 14.7034L26.1622 14.5937C25.8293 14.18 25.4682 13.8097 25.0734 13.4546L24.993 13.3826C24.2147 12.6813 23.307 12.144 22.3122 11.8054L22.1534 11.754Z" fill="#FEDE59"/>
<path d="M32.2789 4.6628C32.4347 4.74203 32.5231 4.81546 32.6365 4.94728C32.6643 4.97788 32.6643 4.97788 32.6926 5.00911C32.8955 5.23851 32.9469 5.41534 32.9389 5.71591C32.8915 6.22373 32.5694 6.72887 32.2677 7.12511C32.1831 7.23616 32.1022 7.34893 32.0219 7.46302C31.4468 8.27883 31.4468 8.27883 31.0524 8.55291C30.8016 8.72895 30.5521 8.96125 30.4295 9.24813C30.3704 9.35132 30.2899 9.40915 30.1978 9.48225C30.0827 9.58301 29.9972 9.70547 29.9065 9.82787C29.6235 10.1971 29.3271 10.4413 28.9199 10.6683C28.8769 10.6941 28.8338 10.7199 28.7894 10.7466C28.6315 10.8084 28.5023 10.8273 28.3353 10.7935C28.154 10.6964 28.154 10.6964 28.0848 10.5847C27.9799 10.1507 28.2166 9.64545 28.4285 9.2775C28.5624 9.07355 28.7184 8.88958 28.8782 8.70559C29.0405 8.52881 29.0405 8.52881 29.1705 8.32976C29.1981 8.32976 29.2256 8.32976 29.254 8.32976C29.2816 8.26086 29.3091 8.19196 29.3375 8.12097C29.3651 8.12097 29.3927 8.12097 29.421 8.12097C29.4389 8.07551 29.4389 8.07551 29.457 8.02914C29.7124 7.40077 30.0379 6.79928 30.3709 6.20939C30.4251 6.1133 30.4787 6.01692 30.5322 5.92046C31.3952 4.36652 31.3952 4.36652 32.2789 4.6628Z" fill="#FEDE5A"/>
<path d="M7.32672 27.4069C7.52507 27.5131 7.52507 27.5131 7.57972 27.6224C7.61268 28.1058 7.30117 28.6088 7.03685 29.0005C6.96684 29.0747 6.89744 29.1344 6.81583 29.1952C6.70578 29.2813 6.62129 29.3868 6.53102 29.4929C6.44305 29.5958 6.35259 29.6962 6.2617 29.7965C6.22973 29.8321 6.19775 29.8678 6.16481 29.9045C6.11413 29.9608 6.06318 30.0168 6.01147 30.0722C5.85811 30.2411 5.73146 30.4272 5.604 30.616C5.5854 30.6433 5.56681 30.6707 5.54765 30.6988C5.53023 30.7251 5.51282 30.7513 5.49487 30.7783C5.47919 30.8018 5.46351 30.8253 5.44735 30.8495C5.40458 30.9281 5.3846 31.0011 5.36649 31.0884C5.33893 31.0884 5.31137 31.0884 5.28298 31.0884C5.27189 31.1116 5.2608 31.1348 5.24937 31.1587C5.0864 31.4745 4.87502 31.7643 4.66458 32.0497C4.55798 32.1947 4.45316 32.3409 4.34862 32.4873C4.3307 32.5124 4.31279 32.5374 4.29433 32.5632C4.21865 32.6692 4.14422 32.7757 4.07196 32.884C4.03062 32.884 3.98928 32.884 3.94669 32.884C3.94669 32.9116 3.94669 32.9392 3.94669 32.9676C3.64237 33.1958 3.3606 33.215 2.98623 33.1764C2.71379 33.0829 2.45865 32.8937 2.31678 32.64C2.21562 32.404 2.18635 32.1618 2.26344 31.9145C2.3046 31.8166 2.3509 31.7245 2.4016 31.6313C2.4198 31.5977 2.43799 31.5641 2.45674 31.5295C2.58435 31.3063 2.73064 31.1072 2.89423 30.9093C2.96113 30.827 3.02549 30.7445 3.08867 30.6594C3.10634 30.6358 3.12401 30.6121 3.14221 30.5878C3.19221 30.5206 3.24191 30.4532 3.29159 30.3858C3.48712 30.1411 3.74414 29.9533 3.99416 29.7677C4.46747 29.4144 4.87328 29.0067 5.28298 28.5829C5.41558 28.4458 5.54876 28.3093 5.6823 28.1731C5.72622 28.1271 5.72622 28.1271 5.77103 28.0802C6.10482 27.7399 6.82559 27.1901 7.32672 27.4069Z" fill="#FDDE5B"/>
<path d="M21.8178 32.717C21.8178 32.7446 21.8178 32.7721 21.8178 32.8005C21.8654 32.8109 21.8654 32.8109 21.914 32.8214C22.0783 32.9129 22.1057 33.0472 22.157 33.2181C22.1676 33.2522 22.1782 33.2863 22.1891 33.3214C22.3569 33.8834 22.4066 34.4301 22.432 35.0143C22.4334 35.0468 22.4348 35.0794 22.4363 35.1129C22.4385 35.1622 22.4385 35.1622 22.4407 35.2124C22.4629 35.6929 22.5234 36.1438 22.6365 36.6127C22.7512 37.0954 22.8157 37.5821 22.8801 38.0736C22.8862 38.1206 22.8862 38.1206 22.8925 38.1685C22.9036 38.2539 22.9145 38.3394 22.9253 38.4249C22.9405 38.5301 22.9593 38.6281 22.987 38.7303C23.0246 39.0527 22.9454 39.2987 22.7634 39.5647C22.5955 39.7758 22.4091 39.8973 22.1518 39.9831C21.8396 40.0109 21.5646 40.0275 21.302 39.8404C21.101 39.6474 21.0243 39.4753 20.9591 39.2105C20.9504 39.1757 20.9416 39.1408 20.9326 39.1048C20.7909 38.5162 20.7214 37.937 20.7164 37.3314C20.7158 37.2884 20.7152 37.2454 20.7146 37.2011C20.7163 36.9144 20.7495 36.6407 20.7943 36.3584C20.879 35.8153 20.8767 35.2745 20.8786 34.726C20.8793 34.5956 20.8807 34.4651 20.8821 34.3347C20.882 34.2958 20.8818 34.2568 20.8817 34.2167C20.8859 33.8465 20.991 33.5304 21.1366 33.192C21.1548 33.1493 21.1731 33.1065 21.1919 33.0625C21.2055 33.0312 21.2191 32.9999 21.2331 32.9676C21.2607 32.9676 21.2883 32.9676 21.3166 32.9676C21.3287 32.934 21.3408 32.9004 21.3532 32.8658C21.444 32.659 21.6179 32.7138 21.8178 32.717Z" fill="#FEDE5B"/>
<path d="M33.3241 24.4748C33.3614 24.4748 33.3988 24.4747 33.4372 24.4746C33.6605 24.4784 33.8678 24.5067 34.0858 24.5543C34.4269 24.6256 34.7853 24.6194 35.1327 24.621C35.1604 24.6212 35.188 24.6214 35.2164 24.6216C35.42 24.621 35.6219 24.6091 35.825 24.5955C36.2838 24.5664 36.7429 24.5617 37.2025 24.5594C37.3022 24.5587 37.4018 24.5575 37.5014 24.556C37.6475 24.5537 37.7935 24.5528 37.9396 24.5521C37.9836 24.5512 38.0276 24.5503 38.073 24.5493C38.4242 24.5503 38.6751 24.6521 38.9589 24.8559C39.1432 25.1213 39.1859 25.4269 39.1494 25.7433C39.0917 26.0221 38.9297 26.2525 38.7319 26.4532C38.5883 26.5341 38.5883 26.5341 38.4395 26.5784C38.3688 26.6002 38.3688 26.6002 38.2966 26.6223C38.0569 26.6814 37.816 26.6744 37.5704 26.6724C37.5205 26.6721 37.4706 26.6718 37.4192 26.6714C36.8044 26.6641 36.2369 26.6164 35.651 26.4246C35.2279 26.289 34.7984 26.2113 34.3602 26.1426C32.6888 25.8709 32.6888 25.8709 32.0087 25.3674C31.9082 25.2216 31.8829 25.1431 31.886 24.9655C31.9307 24.8044 31.9627 24.7602 32.0922 24.6575C32.2044 24.6176 32.3055 24.5881 32.421 24.5636C32.4535 24.5565 32.486 24.5495 32.5195 24.5423C32.7877 24.4901 33.0512 24.4753 33.3241 24.4748Z" fill="#FEDE59"/>
<path d="M2.29317 10.2923C2.40039 10.3338 2.50723 10.366 2.61795 10.3968C2.78061 10.4441 2.92529 10.5058 3.0742 10.5862C3.15561 10.6296 3.15561 10.6296 3.25608 10.6661C3.36085 10.7096 3.44382 10.7601 3.53665 10.8248C3.80147 11.0052 4.06435 11.1787 4.364 11.2946C4.51759 11.3633 4.6699 11.4347 4.82231 11.506C4.91304 11.5481 5.00414 11.5893 5.09527 11.6305C5.74222 11.926 6.32085 12.251 6.82778 12.7562C6.85895 12.7849 6.89011 12.8136 6.92223 12.8431C6.99482 12.9232 6.99482 12.9232 7.0183 13.0616C6.98874 13.2554 6.94224 13.3836 6.78602 13.5079C6.61325 13.5505 6.44631 13.5454 6.26925 13.5392C6.22048 13.5382 6.17171 13.5373 6.12145 13.5364C5.73826 13.5229 5.42433 13.4598 5.0739 13.2991C5.03364 13.2816 4.99337 13.2641 4.95189 13.2461C4.8044 13.1804 4.65864 13.1113 4.513 13.0417C4.11216 12.862 3.69409 12.7705 3.26782 12.6727C3.18898 12.6542 3.11014 12.6358 3.03131 12.6173C2.61972 12.5212 2.20756 12.4298 1.79321 12.3464C0.460355 12.0776 0.460355 12.0776 0.193641 11.7383C0.0290252 11.4713 -0.0378315 11.2294 0.0210591 10.9188C0.140015 10.5478 0.371395 10.3237 0.699643 10.128C1.2083 9.98387 1.81145 10.1006 2.29317 10.2923Z" fill="#FEDE5B"/>
<path d="M22.3723 0.134396C22.3973 0.151675 22.4222 0.168955 22.4479 0.186758C22.4741 0.204468 22.5003 0.222178 22.5273 0.240425C22.7312 0.395191 22.8348 0.568877 22.9072 0.813143C22.9286 0.998184 22.927 1.1804 22.9229 1.36645C22.9221 1.41799 22.9214 1.46953 22.9207 1.52263C22.9077 2.19639 22.8666 2.81425 22.6413 3.45293C22.4754 3.92883 22.3669 4.41016 22.2808 4.90553C22.0884 6.01322 22.0884 6.01322 21.8267 6.50542C21.8124 6.53323 21.798 6.56103 21.7833 6.58968C21.5268 7.07935 21.5268 7.07935 21.3621 7.24403C21.1771 7.26459 21.0043 7.28079 20.8427 7.18139C20.5506 6.7139 20.5279 5.99781 20.6313 5.46655C20.6494 5.39262 20.6676 5.31871 20.686 5.24482C20.8188 4.69106 20.8373 4.15619 20.8338 3.58979C20.8335 3.55001 20.8333 3.51022 20.833 3.46923C20.8308 3.18065 20.8264 2.89211 20.8219 2.60356C20.8175 2.31214 20.8139 2.02073 20.8115 1.72928C20.8103 1.61397 20.808 1.49871 20.8057 1.38342C20.8049 1.31267 20.8042 1.24192 20.8036 1.17117C20.8027 1.13972 20.8017 1.10826 20.8008 1.07585C20.8002 0.839935 20.87 0.681433 20.9863 0.479071C21 0.450087 21.0138 0.421104 21.028 0.391242C21.1272 0.203312 21.3184 0.109189 21.5137 0.0423956C21.8095 -0.0253407 22.1078 -0.0234122 22.3723 0.134396Z" fill="#FEDE5B"/>
<path d="M37.0615 15.8046C37.3364 16.015 37.5303 16.2725 37.5768 16.6209C37.59 16.9695 37.4642 17.2595 37.2285 17.5167C36.3841 18.3102 34.9625 18.2728 33.8799 18.3624C33.836 18.3661 33.792 18.3698 33.7467 18.3736C33.269 18.4135 32.7912 18.4437 32.3119 18.4531C32.2718 18.4545 32.2317 18.456 32.1905 18.4575C31.9969 18.459 31.9131 18.4591 31.7574 18.3352C31.73 18.2993 31.7027 18.2635 31.6745 18.2266C31.647 18.1991 31.6194 18.1715 31.591 18.1431C31.577 18.0068 31.577 18.0068 31.5754 17.8404C31.5742 17.7859 31.573 17.7314 31.5718 17.6753C31.5945 17.4878 31.6306 17.4053 31.7581 17.2662C32.0288 17.1338 32.3262 17.0827 32.6193 17.0182C33.5214 16.8133 34.3199 16.5225 35.1379 16.0865C36.4009 15.4157 36.4009 15.4157 37.0615 15.8046Z" fill="#FEDE5B"/>
<path d="M13.2169 31.2972C13.4374 31.3721 13.5426 31.4897 13.6763 31.673C13.821 32.1072 13.5649 32.5186 13.3988 32.9136C13.3351 33.0683 13.2739 33.2236 13.2143 33.3799C13.1949 33.4306 13.1754 33.4813 13.1554 33.5336C13.0002 33.9714 12.8999 34.4068 12.837 34.8668C12.7573 35.4452 12.6375 36 12.4653 36.5588C12.4377 36.5588 12.4101 36.5588 12.3817 36.5588C12.3776 36.5837 12.3734 36.6086 12.3692 36.6342C12.3344 36.7435 12.2939 36.783 12.2069 36.8564C12.183 36.8771 12.1592 36.8979 12.1346 36.9193C11.8384 37.1139 11.4486 37.1049 11.1105 37.0405C10.8238 36.9457 10.6158 36.7565 10.4634 36.4988C10.2469 36.0145 10.3839 35.5326 10.5593 35.062C10.6432 34.8466 10.7339 34.6363 10.8366 34.4291C10.8716 34.3561 10.8716 34.3561 10.9073 34.2817C11.0185 34.0517 11.1289 33.8293 11.2856 33.6262C11.3801 33.4922 11.4522 33.345 11.5294 33.2005C11.5977 33.0757 11.674 32.9589 11.7553 32.8423C11.8728 32.6757 11.8728 32.6757 11.9589 32.4926C12.0038 32.3878 12.051 32.3205 12.1207 32.2316C12.2244 32.0984 12.3058 31.9633 12.3843 31.814C12.5975 31.4112 12.7513 31.2585 13.2169 31.2972Z" fill="#FEDE5B"/>
<path d="M11.4802 2.84972C11.7249 2.98736 11.8865 3.22013 12.0477 3.44397C12.0695 3.47281 12.0912 3.50165 12.1136 3.53137C12.3184 3.81047 12.4663 4.10278 12.6089 4.41747C12.6325 4.46895 12.6561 4.52042 12.6797 4.57189C12.8963 5.04751 13.0933 5.53179 13.2567 6.02843C13.2998 6.15613 13.3467 6.28147 13.3956 6.40706C13.4136 6.45354 13.4316 6.50003 13.4502 6.54792C13.4876 6.64439 13.5252 6.74084 13.5627 6.83729C13.8778 7.65117 13.8778 7.65117 13.8434 7.91218C13.7413 8.11247 13.6259 8.22784 13.4258 8.32977C13.2226 8.38391 13.0208 8.40069 12.8278 8.30106C12.5468 8.08151 12.4056 7.71434 12.2546 7.40243C12.1233 7.1401 11.9618 6.89497 11.8026 6.64893C11.7615 6.58534 11.7209 6.52143 11.6804 6.45747C11.5908 6.3185 11.5037 6.1927 11.3848 6.07739C11.3555 6.04897 11.3262 6.02055 11.2961 5.99127C11.2961 5.96371 11.2961 5.93614 11.2961 5.90775C11.2547 5.89397 11.2134 5.88019 11.1708 5.86599C11.1063 5.80205 11.1063 5.80205 11.0377 5.71983C11.0124 5.69007 10.9871 5.6603 10.961 5.62963C10.9338 5.59738 10.9065 5.56514 10.8785 5.53192C10.8187 5.46297 10.7587 5.39424 10.6984 5.32573C10.671 5.29435 10.6436 5.26297 10.6154 5.23063C10.549 5.15249 10.549 5.15249 10.4609 5.11433C10.4402 5.05232 10.4402 5.05232 10.4191 4.98905C10.3778 4.96149 10.3364 4.93393 10.2938 4.90553C10.2503 4.83706 10.209 4.76712 10.1686 4.69674C10.1038 4.60006 10.0383 4.50396 9.97249 4.40801C9.82978 4.17985 9.85863 3.9123 9.87625 3.65276C9.99908 3.2972 10.2687 3.08154 10.5862 2.9011C10.8554 2.77029 11.1954 2.75877 11.4802 2.84972Z" fill="#FDDE5B"/>
<path d="M2.86559 19.3778C2.94329 19.3776 3.021 19.3774 3.09871 19.3771C3.25992 19.3768 3.42113 19.3768 3.58234 19.3773C3.78827 19.3777 3.99417 19.3769 4.2001 19.3757C4.35988 19.3749 4.51965 19.3749 4.67944 19.3752C4.75539 19.3752 4.83134 19.3749 4.90728 19.3744C5.01326 19.3738 5.11918 19.3742 5.22516 19.3749C5.25596 19.3745 5.28677 19.3741 5.31851 19.3737C5.57994 19.3774 5.80265 19.4592 5.99344 19.6417C6.09204 19.8445 6.07406 20.1111 6.00746 20.3229C5.91436 20.5025 5.79198 20.5939 5.61875 20.6904C5.48976 20.7255 5.36007 20.7424 5.22758 20.7589C5.14982 20.7699 5.07206 20.781 4.99431 20.792C4.95391 20.7976 4.91351 20.8031 4.87188 20.8088C4.18903 20.9037 3.54373 21.015 2.90019 21.2693C2.76004 21.3243 2.61891 21.3762 2.47752 21.4279C2.24044 21.5147 2.00387 21.6027 1.76768 21.6919C1.41437 21.8213 1.03844 21.9087 0.668508 21.7814C0.403981 21.6258 0.181182 21.3779 0.0842082 21.0847C0.018184 20.7379 0.019468 20.3633 0.203939 20.0544C0.234541 20.014 0.234541 20.014 0.265762 19.9727C0.285841 19.9454 0.305919 19.9181 0.326606 19.89C0.846606 19.3395 2.16459 19.3762 2.86559 19.3778Z" fill="#FDDE5B"/>
<path d="M28.123 31.3807C28.232 31.473 28.232 31.473 28.3318 31.5895C28.363 31.6237 28.3942 31.6579 28.4263 31.6931C28.4597 31.7304 28.4931 31.7677 28.5276 31.8061C29.193 32.5342 29.8729 33.1325 30.7154 33.6463C30.9255 33.7757 31.1252 33.9161 31.3228 34.0637C31.35 34.0839 31.3772 34.1041 31.4052 34.1249C31.7125 34.3581 31.9626 34.5739 32.0184 34.9723C32.0329 35.2812 31.8966 35.5394 31.7561 35.8072C31.7285 35.8072 31.701 35.8072 31.6726 35.8072C31.6626 35.832 31.6526 35.8568 31.6424 35.8824C31.5777 35.9937 31.5117 36.0383 31.4037 36.1073C31.3711 36.1286 31.3384 36.1498 31.3047 36.1717C31.1492 36.2618 31.022 36.2743 30.8452 36.277C30.8027 36.278 30.7603 36.2791 30.7165 36.2802C30.2071 36.2264 29.7393 35.6673 29.4306 35.2878C29.3267 35.1559 29.2254 35.0222 29.1253 34.8875C29.1033 34.858 29.0813 34.8284 29.0587 34.798C29.0152 34.7395 28.972 34.6809 28.929 34.6221C28.8096 34.4607 28.6839 34.3199 28.5406 34.1786C28.5002 34.1084 28.4598 34.0382 28.4214 33.9669C28.3674 33.8758 28.3059 33.7959 28.24 33.713C28.0865 33.5179 27.9384 33.3192 27.7916 33.1189C27.7536 33.0672 27.7536 33.0672 27.7149 33.0145C27.6649 32.9463 27.6149 32.8782 27.565 32.81C27.5056 32.7291 27.4459 32.6485 27.3861 32.5679C27.3562 32.5275 27.3264 32.4872 27.2957 32.4456C27.2704 32.4115 27.2452 32.3775 27.2192 32.3425C27.1093 32.1778 27.1015 32.0337 27.1208 31.8401C27.32 31.4288 27.682 31.2918 28.123 31.3807Z" fill="#FDDE5B"/>
</svg>
