<svg width="41" height="40" viewBox="0 0 41 40" fill="none" xmlns="http://www.w3.org/2000/svg">
<path d="M5.75 33.75H5.33333C4.8731 33.75 4.5 33.3769 4.5 32.9167V24.5834C4.5 23.6629 5.24619 22.9167 6.16666 22.9167H34.5C35.4205 22.9167 36.1667 23.6629 36.1667 24.5834V32.9167C36.1667 33.3769 35.7936 33.75 35.3333 33.75H34.9167M5.75 33.75V35.4167C5.75 35.8769 6.1231 36.25 6.58333 36.25H8.66667C9.1269 36.25 9.5 35.8769 9.5 35.4167V33.75M5.75 33.75H9.5M9.5 33.75H31.1667M31.1667 33.75V35.4167C31.1667 35.8769 31.5398 36.25 32 36.25H34.0833C34.5436 36.25 34.9167 35.8769 34.9167 35.4167V33.75M31.1667 33.75H34.9167" stroke="black" stroke-width="1.25"/>
<path d="M19.0833 22.5V17.9167C19.0833 17.4565 18.7102 17.0834 18.2499 17.0834H11.1666C10.7063 17.0834 10.3333 17.4565 10.3333 17.9167V22.5" stroke="black" stroke-width="1.25"/>
<path d="M30.75 22.5V17.9167C30.75 17.4565 30.3769 17.0834 29.9167 17.0834H22.8333C22.3731 17.0834 22 17.4565 22 17.9167V22.5" stroke="black" stroke-width="1.25"/>
<path d="M8.25 22.9167V14.5834C8.25 13.6629 8.99619 12.9167 9.91667 12.9167H14.5M32.4167 22.9167V14.5834C32.4167 13.6629 31.6705 12.9167 30.75 12.9167H26.1667M14.5 12.9167H26.1667M14.5 12.9167L13.9775 10.5656M26.1667 12.9167L26.8198 10.5656M13.9775 10.5656L13.1757 6.95735C13.0304 6.3035 13.6768 5.75409 14.2987 6.00285L16.4565 6.86599C16.7826 6.99643 17.1555 6.90841 17.3889 6.64589L19.7105 4.03407C20.042 3.66114 20.6247 3.66114 20.9562 4.03407L23.2908 6.66049C23.5177 6.91577 23.8774 7.00674 24.1984 6.89002L26.7292 5.96974C27.366 5.73817 27.9982 6.32305 27.8169 6.97594L26.8198 10.5656M13.9775 10.5656H26.8198" stroke="black" stroke-width="1.25"/>
</svg>
