<svg width="40" height="41" viewBox="0 0 40 41" fill="none" xmlns="http://www.w3.org/2000/svg">
<path d="M2.38281 1.96613C2.00781 2.138 1.76562 2.388 1.60156 2.77081C1.5 3.02863 1.48438 4.96613 1.48438 20.7864V38.513L1.66406 38.6771C1.83594 38.8411 1.92188 38.8489 2.97656 38.8489C4.55469 38.8489 4.45312 38.9896 4.45312 36.7943V35.0989H15.8203H27.1875V36.7786C27.1875 38.9739 27.0938 38.8489 28.7109 38.8489C30.2656 38.8489 30.1562 39.0052 30.1562 36.8177V35.0989H32.8516H35.5469V36.8021C35.5469 38.9896 35.4453 38.8489 37.0391 38.8489C38.125 38.8489 38.1797 38.8411 38.3438 38.6693L38.5156 38.4896V20.7552C38.5156 3.68488 38.5078 3.02081 38.3672 2.71613C38.0234 1.97394 37.2188 1.638 36.5 1.93488C36.1172 2.09894 35.8672 2.34113 35.6953 2.71613C35.5625 3.00519 35.5469 3.27863 35.5469 6.13019V9.23956H32.8516H30.1562L30.0547 8.98175C29.8281 8.4505 29.2578 8.06769 28.6953 8.06769C27.8594 8.0755 27.1875 8.79425 27.1875 9.68488V9.94269H19.5781H11.9688L11.9375 9.138C11.8984 8.16144 11.7109 7.68488 11.1797 7.18488C10.5234 6.56769 10.3828 6.54425 7.61719 6.54425C5.28906 6.54425 5.17969 6.55206 4.82812 6.71613L4.45312 6.888V4.95831C4.45312 3.24738 4.42969 2.98956 4.30469 2.71613C3.95312 1.9505 3.11719 1.62238 2.38281 1.96613ZM3.23438 3.03644C3.34375 3.14581 3.35938 4.83331 3.35938 20.4583V37.7552H2.96875H2.57812V20.4583C2.57812 4.83331 2.59375 3.14581 2.70312 3.03644C2.76562 2.96613 2.89062 2.91144 2.96875 2.91144C3.04688 2.91144 3.17188 2.96613 3.23438 3.03644ZM37.2969 3.03644C37.4062 3.14581 37.4219 4.83331 37.4219 20.4583V37.7552H37.0312H36.6406V20.4583C36.6406 4.83331 36.6562 3.14581 36.7656 3.03644C36.8281 2.96613 36.9531 2.91144 37.0312 2.91144C37.1094 2.91144 37.2344 2.96613 37.2969 3.03644ZM10.0234 7.70831C10.3281 7.83331 10.6641 8.18488 10.7734 8.48175C10.8203 8.60675 10.8594 8.98175 10.8594 9.3255V9.94269H7.65625H4.45312V9.3255C4.45312 8.62238 4.53125 8.35675 4.82812 8.03644C5.21875 7.62238 5.32812 7.60675 7.64062 7.59894C9.28125 7.59894 9.82812 7.62238 10.0234 7.70831ZM28.9141 9.23956C29.0625 9.3255 29.0625 9.56769 29.0625 23.5364V37.7552H28.6719H28.2812V23.5989C28.2812 10.5443 28.2891 9.43488 28.4141 9.30206C28.5547 9.14581 28.6953 9.12238 28.9141 9.23956ZM35.5469 10.7239V11.1146H32.8516H30.1562V10.7239V10.3333H32.8516H35.5469V10.7239ZM27.1875 12.9896V14.9427H15.8203H4.45312V12.9896V11.0364H15.8203H27.1875V12.9896ZM35.5469 13.5755V14.9427H32.8516H30.1562V13.5755V12.2083H32.8516H35.5469V13.5755ZM27.1875 16.4271V16.8177H15.8203H4.45312V16.4271V16.0364H15.8203H27.1875V16.4271ZM35.5469 16.4271V16.8177H32.8516H30.1562V16.4271V16.0364H32.8516H35.5469V16.4271ZM27.1875 22.5208V27.1302H19.5781H11.9766L11.9375 26.638C11.8828 25.9739 11.625 25.4114 11.1797 24.9974C10.5234 24.3802 10.3828 24.3568 7.61719 24.3568C5.28906 24.3568 5.17969 24.3646 4.82812 24.5286L4.45312 24.7005V21.3021V17.9114H15.8203H27.1875V22.5208ZM35.5469 19.2786V20.6458H32.8516H30.1562V19.2786V17.9114H32.8516H35.5469V19.2786ZM35.5469 22.1302V22.5208H32.8516H30.1562V22.1302V21.7396H32.8516H35.5469V22.1302ZM35.5469 25.0208V26.4271H32.8516H30.1562V25.0208V23.6146H32.8516H35.5469V25.0208ZM10.0234 25.5208C10.5312 25.7396 10.8594 26.2474 10.8594 26.8255V27.1302H7.65625H4.45312V26.8255C4.45312 26.2552 4.77344 25.7474 5.27344 25.5208C5.61719 25.3724 9.66406 25.3646 10.0234 25.5208ZM35.5469 27.9114V28.3021H32.8516H30.1562V27.9114V27.5208H32.8516H35.5469V27.9114ZM27.1875 30.1771V32.1302H15.8203H4.45312V30.1771V28.2239H15.8203H27.1875V30.1771ZM35.5469 30.763V32.1302H32.8516H30.1562V30.763V29.3958H32.8516H35.5469V30.763ZM27.1875 33.6146V34.0052H15.8203H4.45312V33.6146V33.2239H15.8203H27.1875V33.6146ZM35.5469 33.6146V34.0052H32.8516H30.1562V33.6146V33.2239H32.8516H35.5469V33.6146Z" fill="black"/>
<path d="M8.37526 11.9973C8.15651 12.2317 8.15651 12.5286 8.38307 12.7395C8.55494 12.9036 8.64088 12.9114 9.77369 12.9114C11.1878 12.9114 11.3284 12.8645 11.3284 12.3645C11.3284 11.8645 11.1878 11.8176 9.76588 11.8176C8.58619 11.8176 8.53932 11.8254 8.37526 11.9973Z" fill="black"/>
</svg>
