<svg width="286" height="52" viewBox="0 0 286 52" fill="none" xmlns="http://www.w3.org/2000/svg">
<path d="M12.96 11.896C14.4107 11.896 15.5947 12.0987 16.512 12.504C17.4293 12.9093 18.2507 13.4 18.976 13.976C19.232 14.168 19.4453 14.264 19.616 14.264C20.0213 14.264 20.288 13.624 20.416 12.344H21.152C21.1093 13.176 21.0773 14.1893 21.056 15.384C21.0347 16.5573 21.024 18.1253 21.024 20.088H20.288C20.1387 18.808 19.904 17.6987 19.584 16.76C19.2853 15.8 18.72 14.9787 17.888 14.296C17.376 13.8053 16.736 13.4213 15.968 13.144C15.2213 12.8667 14.464 12.728 13.696 12.728C12.5227 12.728 11.52 13.0373 10.688 13.656C9.856 14.2533 9.17333 15.0747 8.64 16.12C8.10667 17.1653 7.712 18.3493 7.456 19.672C7.2 20.9733 7.072 22.328 7.072 23.736C7.072 27.576 7.59467 30.3813 8.64 32.152C9.70667 33.9227 11.232 34.808 13.216 34.808C13.728 34.808 14.176 34.744 14.56 34.616C14.944 34.488 15.2533 34.3387 15.488 34.168C15.7867 33.9547 15.9893 33.7307 16.096 33.496C16.2027 33.24 16.256 32.9093 16.256 32.504V29.368C16.256 28.3867 16.1707 27.6613 16 27.192C15.8507 26.7013 15.5413 26.3707 15.072 26.2C14.6027 26.0293 13.92 25.9333 13.024 25.912V25.272C13.472 25.2933 14.0053 25.3147 14.624 25.336C15.264 25.336 15.9253 25.3467 16.608 25.368C17.2907 25.368 17.92 25.368 18.496 25.368C19.392 25.368 20.2133 25.3573 20.96 25.336C21.7067 25.3147 22.3147 25.2933 22.784 25.272V25.912C22.3787 25.9333 22.0693 26.008 21.856 26.136C21.664 26.264 21.5253 26.52 21.44 26.904C21.376 27.288 21.344 27.8747 21.344 28.664V35H20.704C20.6827 34.6373 20.5973 34.2427 20.448 33.816C20.32 33.3893 20.096 33.176 19.776 33.176C19.6267 33.176 19.424 33.2187 19.168 33.304C18.9333 33.368 18.56 33.5493 18.048 33.848C17.2587 34.296 16.4267 34.68 15.552 35C14.6773 35.2987 13.76 35.448 12.8 35.448C10.3253 35.448 8.23467 34.9893 6.528 34.072C4.82133 33.1547 3.53067 31.8427 2.656 30.136C1.80267 28.408 1.376 26.3387 1.376 23.928C1.376 21.496 1.86667 19.384 2.848 17.592C3.85067 15.8 5.216 14.4027 6.944 13.4C8.69333 12.3973 10.6987 11.896 12.96 11.896ZM41.4885 12.28L49.2645 32.312C49.5632 33.08 49.8938 33.6133 50.2565 33.912C50.6405 34.1893 50.9818 34.3387 51.2805 34.36V35C50.6405 34.9573 49.8832 34.936 49.0085 34.936C48.1552 34.9147 47.2912 34.904 46.4165 34.904C45.4352 34.904 44.5072 34.9147 43.6325 34.936C42.7578 34.936 42.0645 34.9573 41.5525 35V34.36C42.6405 34.3173 43.3232 34.136 43.6005 33.816C43.8992 33.4747 43.8352 32.76 43.4085 31.672L37.9685 16.792L38.5445 15.96L33.6805 28.632C33.2112 29.8053 32.9232 30.7653 32.8165 31.512C32.7312 32.2587 32.7845 32.8347 32.9765 33.24C33.1898 33.6453 33.5205 33.9333 33.9685 34.104C34.4378 34.2533 34.9925 34.3387 35.6325 34.36V35C34.9285 34.9573 34.2565 34.936 33.6165 34.936C32.9765 34.9147 32.3258 34.904 31.6645 34.904C31.1952 34.904 30.7472 34.9147 30.3205 34.936C29.9152 34.936 29.5525 34.9573 29.2325 35V34.36C29.6805 34.2747 30.1392 33.9867 30.6085 33.496C31.0778 33.0053 31.5365 32.1733 31.9845 31L39.2805 12.28C39.6218 12.3013 39.9845 12.312 40.3685 12.312C40.7738 12.312 41.1472 12.3013 41.4885 12.28ZM43.7285 25.784V26.424H34.1925L34.5125 25.784H43.7285ZM57.9192 12.344C58.4526 12.3653 59.1672 12.3867 60.0632 12.408C60.9806 12.4293 61.8872 12.44 62.7832 12.44C63.8072 12.44 64.7992 12.4293 65.7592 12.408C66.7192 12.3867 67.4019 12.376 67.8073 12.376C69.7912 12.376 71.4339 12.6 72.7352 13.048C74.0579 13.4747 75.0393 14.104 75.6793 14.936C76.3406 15.768 76.6712 16.7707 76.6712 17.944C76.6712 18.6693 76.5219 19.4053 76.2232 20.152C75.9246 20.8773 75.4126 21.56 74.6873 22.2C73.9833 22.8187 73.0126 23.32 71.7752 23.704C70.5379 24.0667 68.9806 24.248 67.1032 24.248H64.0312V23.608H66.7832C68.0419 23.608 68.9912 23.3733 69.6312 22.904C70.2926 22.4133 70.7406 21.7733 70.9753 20.984C71.2313 20.1733 71.3593 19.2773 71.3593 18.296C71.3593 16.6107 71.0606 15.3093 70.4633 14.392C69.8659 13.4533 68.8419 12.984 67.3912 12.984C66.5592 12.984 66.0152 13.1653 65.7592 13.528C65.5246 13.8907 65.4072 14.6267 65.4072 15.736V31.608C65.4072 32.376 65.4606 32.952 65.5672 33.336C65.6952 33.72 65.9299 33.976 66.2712 34.104C66.6126 34.232 67.1246 34.3173 67.8073 34.36V35C67.2312 34.9573 66.5059 34.936 65.6312 34.936C64.7566 34.9147 63.8712 34.904 62.9752 34.904C61.9512 34.904 60.9806 34.9147 60.0632 34.936C59.1672 34.936 58.4526 34.9573 57.9192 35V34.36C58.6019 34.3173 59.1139 34.232 59.4552 34.104C59.7966 33.976 60.0206 33.72 60.1272 33.336C60.2552 32.952 60.3192 32.376 60.3192 31.608V15.736C60.3192 14.9467 60.2552 14.3707 60.1272 14.008C60.0206 13.624 59.7859 13.368 59.4232 13.24C59.0819 13.0907 58.5806 13.0053 57.9192 12.984V12.344ZM63.9672 23.704C64.8846 23.7253 65.6739 23.768 66.3352 23.832C67.0179 23.896 67.6152 23.96 68.1272 24.024C68.6392 24.0667 69.0979 24.0987 69.5033 24.12C71.4446 24.2907 72.8739 24.7067 73.7913 25.368C74.7299 26.0293 75.3379 27.0213 75.6152 28.344L76.3512 31.64C76.5432 32.4933 76.7459 33.0907 76.9592 33.432C77.1726 33.7733 77.4819 33.944 77.8873 33.944C78.1646 33.9227 78.3886 33.8587 78.5592 33.752C78.7512 33.624 78.9539 33.4427 79.1672 33.208L79.6152 33.592C79.0393 34.2533 78.4206 34.7227 77.7593 35C77.0979 35.2987 76.2979 35.448 75.3593 35.448C74.2073 35.448 73.2579 35.2027 72.5112 34.712C71.7646 34.2213 71.2739 33.3147 71.0393 31.992L70.4633 28.792C70.3139 27.896 70.1326 27.1173 69.9192 26.456C69.7059 25.7733 69.4072 25.24 69.0232 24.856C68.6606 24.4507 68.1486 24.248 67.4872 24.248H64.0312L63.9672 23.704ZM96.3635 12.344C100.566 12.344 103.691 13.304 105.739 15.224C107.787 17.1227 108.811 19.8533 108.811 23.416C108.811 25.7413 108.31 27.7787 107.307 29.528C106.305 31.256 104.843 32.6 102.923 33.56C101.025 34.52 98.7422 35 96.0755 35C95.7342 35 95.2862 34.9893 94.7315 34.968C94.1768 34.9467 93.6008 34.936 93.0035 34.936C92.4062 34.9147 91.8728 34.904 91.4035 34.904C90.4648 34.904 89.5368 34.9147 88.6195 34.936C87.7235 34.936 87.0088 34.9573 86.4755 35V34.36C87.1582 34.3173 87.6702 34.232 88.0115 34.104C88.3528 33.976 88.5768 33.72 88.6835 33.336C88.8115 32.952 88.8755 32.376 88.8755 31.608V15.736C88.8755 14.9467 88.8115 14.3707 88.6835 14.008C88.5768 13.624 88.3422 13.368 87.9795 13.24C87.6382 13.0907 87.1368 13.0053 86.4755 12.984V12.344C87.0088 12.3653 87.7235 12.3973 88.6195 12.44C89.5368 12.4613 90.4435 12.4613 91.3395 12.44C92.1075 12.4187 92.9715 12.3973 93.9315 12.376C94.9128 12.3547 95.7235 12.344 96.3635 12.344ZM96.3315 12.92C95.3502 12.92 94.7102 13.1013 94.4115 13.464C94.1128 13.8267 93.9635 14.5627 93.9635 15.672V31.672C93.9635 32.7813 94.1128 33.5173 94.4115 33.88C94.7315 34.2427 95.3822 34.424 96.3635 34.424C98.1555 34.424 99.5635 34.008 100.587 33.176C101.633 32.3227 102.379 31.0853 102.827 29.464C103.275 27.8427 103.499 25.8693 103.499 23.544C103.499 21.1547 103.254 19.1813 102.763 17.624C102.294 16.0453 101.537 14.872 100.491 14.104C99.4462 13.3147 98.0595 12.92 96.3315 12.92ZM127.438 12.28L135.214 32.312C135.513 33.08 135.844 33.6133 136.206 33.912C136.59 34.1893 136.932 34.3387 137.23 34.36V35C136.59 34.9573 135.833 34.936 134.958 34.936C134.105 34.9147 133.241 34.904 132.366 34.904C131.385 34.904 130.457 34.9147 129.582 34.936C128.708 34.936 128.014 34.9573 127.502 35V34.36C128.59 34.3173 129.273 34.136 129.55 33.816C129.849 33.4747 129.785 32.76 129.358 31.672L123.918 16.792L124.494 15.96L119.63 28.632C119.161 29.8053 118.873 30.7653 118.766 31.512C118.681 32.2587 118.734 32.8347 118.926 33.24C119.14 33.6453 119.47 33.9333 119.918 34.104C120.388 34.2533 120.942 34.3387 121.582 34.36V35C120.878 34.9573 120.206 34.936 119.566 34.936C118.926 34.9147 118.276 34.904 117.614 34.904C117.145 34.904 116.697 34.9147 116.27 34.936C115.865 34.936 115.502 34.9573 115.182 35V34.36C115.63 34.2747 116.089 33.9867 116.558 33.496C117.028 33.0053 117.486 32.1733 117.934 31L125.23 12.28C125.572 12.3013 125.934 12.312 126.318 12.312C126.724 12.312 127.097 12.3013 127.438 12.28ZM129.678 25.784V26.424H120.142L120.462 25.784H129.678Z" fill="#0C5C73"/>
<path d="M3.72777 50V44.1818H7.45504V45.0653H4.78175V46.6449H7.19936V47.5284H4.78175V50H3.72777ZM11.6359 50H10.5109L12.5592 44.1818H13.8603L15.9114 50H14.7864L13.2325 45.375H13.187L11.6359 50ZM11.6728 47.7188H14.741V48.5653H11.6728V47.7188ZM19.8778 44.1818H21.1675L22.8948 48.3977H22.963L24.6903 44.1818H25.98V50H24.9687V46.0028H24.9147L23.3067 49.983H22.5511L20.9431 45.9943H20.8891V50H19.8778V44.1818ZM31.3817 44.1818V50H30.3278V44.1818H31.3817ZM35.7231 50V44.1818H36.7771V49.1165H39.3396V50H35.7231ZM42.4707 44.1818H43.661L45.0843 46.7557H45.1411L46.5644 44.1818H47.7548L45.6383 47.8295V50H44.5871V47.8295L42.4707 44.1818ZM58.5788 50.0852C58.181 50.0852 57.8392 50.0133 57.5532 49.8693C57.2672 49.7254 57.0466 49.5312 56.8913 49.2869C56.7379 49.0407 56.6612 48.7633 56.6612 48.4545C56.6612 48.2216 56.7085 48.0152 56.8032 47.8352C56.8998 47.6553 57.0324 47.4886 57.2009 47.3352C57.3714 47.1818 57.5684 47.0294 57.7918 46.8778L58.8231 46.1761C58.9746 46.0777 59.0892 45.9735 59.1668 45.8636C59.2464 45.7538 59.2862 45.625 59.2862 45.4773C59.2862 45.3523 59.2331 45.2339 59.1271 45.1222C59.0229 45.0104 58.879 44.9545 58.6952 44.9545C58.5721 44.9545 58.4632 44.9839 58.3685 45.0426C58.2757 45.0994 58.2028 45.1742 58.1498 45.267C58.0987 45.3598 58.0731 45.4583 58.0731 45.5625C58.0731 45.6894 58.1081 45.8182 58.1782 45.9489C58.2502 46.0795 58.343 46.215 58.4566 46.3551C58.5721 46.4953 58.6952 46.6439 58.8259 46.8011L61.556 50H60.4424L58.1754 47.4034C58.0068 47.2064 57.8439 47.0123 57.6867 46.821C57.5314 46.6297 57.4036 46.4309 57.3032 46.2244C57.2047 46.0161 57.1555 45.7907 57.1555 45.5483C57.1555 45.2737 57.2189 45.0284 57.3458 44.8125C57.4727 44.5947 57.6498 44.4233 57.8771 44.2983C58.1062 44.1733 58.3742 44.1108 58.681 44.1108C58.9879 44.1108 59.2511 44.1714 59.4708 44.2926C59.6905 44.4138 59.86 44.5748 59.9793 44.7756C60.0987 44.9763 60.1583 45.1951 60.1583 45.4318C60.1583 45.7064 60.0901 45.9527 59.9538 46.1705C59.8174 46.3864 59.628 46.5824 59.3856 46.7585L58.2094 47.6193C58.0163 47.7595 57.878 47.9015 57.7947 48.0455C57.7113 48.1875 57.6697 48.3087 57.6697 48.4091C57.6697 48.5625 57.7085 48.7017 57.7862 48.8267C57.8638 48.9517 57.9727 49.0521 58.1129 49.1278C58.2549 49.2017 58.4206 49.2386 58.61 49.2386C58.8184 49.2386 59.0238 49.1922 59.2265 49.0994C59.4291 49.0047 59.6138 48.8703 59.7805 48.696C59.9471 48.5218 60.0797 48.3134 60.1782 48.071C60.2767 47.8267 60.3259 47.5559 60.3259 47.2585H61.2094C61.2094 47.6259 61.1687 47.946 61.0873 48.2188C61.0059 48.4896 60.9007 48.7188 60.7719 48.9062C60.6432 49.0919 60.5068 49.2405 60.3629 49.3523C60.3174 49.3845 60.2738 49.4167 60.2322 49.4489C60.1905 49.4811 60.1469 49.5133 60.1015 49.5455C59.8969 49.7311 59.6574 49.8674 59.3827 49.9545C59.11 50.0417 58.842 50.0852 58.5788 50.0852ZM73.7366 45.7812C73.7101 45.5331 73.5983 45.34 73.4014 45.2017C73.2063 45.0634 72.9525 44.9943 72.64 44.9943C72.4203 44.9943 72.2318 45.0275 72.0746 45.0938C71.9175 45.16 71.7972 45.25 71.7139 45.3636C71.6305 45.4773 71.5879 45.607 71.586 45.7528C71.586 45.8741 71.6135 45.9792 71.6684 46.0682C71.7252 46.1572 71.8019 46.233 71.8985 46.2955C71.9951 46.3561 72.1021 46.4072 72.2195 46.4489C72.337 46.4905 72.4553 46.5256 72.5746 46.554L73.1201 46.6903C73.3398 46.7415 73.551 46.8106 73.7536 46.8977C73.9582 46.9848 74.1409 47.0947 74.3019 47.2273C74.4648 47.3598 74.5936 47.5199 74.6883 47.7074C74.783 47.8949 74.8303 48.1146 74.8303 48.3665C74.8303 48.7074 74.7432 49.0076 74.569 49.267C74.3947 49.5246 74.1428 49.7263 73.8133 49.8722C73.4856 50.0161 73.0889 50.0881 72.6229 50.0881C72.1703 50.0881 71.7773 50.018 71.444 49.8778C71.1125 49.7377 70.8531 49.5331 70.6656 49.2642C70.48 48.9953 70.3796 48.6676 70.3644 48.2812H71.4014C71.4165 48.4839 71.479 48.6525 71.5889 48.7869C71.6987 48.9214 71.8417 49.0218 72.0178 49.0881C72.1959 49.1544 72.3947 49.1875 72.6144 49.1875C72.8436 49.1875 73.0443 49.1534 73.2167 49.0852C73.3909 49.0152 73.5273 48.9186 73.6258 48.7955C73.7243 48.6705 73.7745 48.5246 73.7764 48.358C73.7745 48.2064 73.73 48.0814 73.6428 47.983C73.5557 47.8826 73.4336 47.7992 73.2764 47.733C73.1211 47.6648 72.9392 47.6042 72.7309 47.5511L72.069 47.3807C71.5898 47.2576 71.211 47.071 70.9326 46.821C70.6561 46.5691 70.5178 46.2348 70.5178 45.8182C70.5178 45.4754 70.6106 45.1752 70.7962 44.9176C70.9837 44.66 71.2385 44.4602 71.5604 44.3182C71.8824 44.1742 72.247 44.1023 72.6542 44.1023C73.0671 44.1023 73.4288 44.1742 73.7394 44.3182C74.0519 44.4602 74.2972 44.6581 74.4752 44.9119C74.6532 45.1638 74.7451 45.4536 74.7508 45.7812H73.7366ZM84.1688 47.0909C84.1688 47.7178 84.0514 48.2547 83.8165 48.7017C83.5836 49.1468 83.2654 49.4877 82.862 49.7244C82.4605 49.9612 82.005 50.0795 81.4955 50.0795C80.9861 50.0795 80.5296 49.9612 80.1262 49.7244C79.7247 49.4858 79.4065 49.1439 79.1717 48.6989C78.9387 48.2519 78.8222 47.7159 78.8222 47.0909C78.8222 46.464 78.9387 45.928 79.1717 45.483C79.4065 45.036 79.7247 44.6941 80.1262 44.4574C80.5296 44.2206 80.9861 44.1023 81.4955 44.1023C82.005 44.1023 82.4605 44.2206 82.862 44.4574C83.2654 44.6941 83.5836 45.036 83.8165 45.483C84.0514 45.928 84.1688 46.464 84.1688 47.0909ZM83.1092 47.0909C83.1092 46.6496 83.04 46.2775 82.9018 45.9744C82.7654 45.6695 82.576 45.4394 82.3336 45.2841C82.0912 45.1269 81.8118 45.0483 81.4955 45.0483C81.1792 45.0483 80.8999 45.1269 80.6575 45.2841C80.415 45.4394 80.2247 45.6695 80.0864 45.9744C79.9501 46.2775 79.8819 46.6496 79.8819 47.0909C79.8819 47.5322 79.9501 47.9053 80.0864 48.2102C80.2247 48.5133 80.415 48.7434 80.6575 48.9006C80.8999 49.0559 81.1792 49.1335 81.4955 49.1335C81.8118 49.1335 82.0912 49.0559 82.3336 48.9006C82.576 48.7434 82.7654 48.5133 82.9018 48.2102C83.04 47.9053 83.1092 47.5322 83.1092 47.0909ZM88.3653 50V44.1818H89.4192V49.1165H91.9817V50H88.3653ZM97.0624 50H95.9374L97.9857 44.1818H99.2869L101.338 50H100.213L98.659 45.375H98.6136L97.0624 50ZM97.0994 47.7188H100.168V48.5653H97.0994V47.7188ZM105.304 50V44.1818H107.486C107.933 44.1818 108.308 44.2595 108.611 44.4148C108.916 44.5701 109.146 44.7879 109.301 45.0682C109.459 45.3466 109.537 45.6714 109.537 46.0426C109.537 46.4157 109.458 46.7396 109.299 47.0142C109.141 47.2869 108.909 47.4981 108.603 47.6477C108.296 47.7955 107.919 47.8693 107.472 47.8693H105.918V46.9943H107.33C107.591 46.9943 107.805 46.9583 107.972 46.8864C108.139 46.8125 108.262 46.7055 108.341 46.5653C108.423 46.4233 108.463 46.2491 108.463 46.0426C108.463 45.8362 108.423 45.66 108.341 45.5142C108.26 45.3665 108.136 45.2547 107.969 45.179C107.802 45.1013 107.587 45.0625 107.324 45.0625H106.358V50H105.304ZM108.31 47.3636L109.75 50H108.574L107.159 47.3636H108.31ZM114.761 44.1818V50H113.707V44.1818H114.761ZM122.77 44.1818H123.824V47.983C123.824 48.3996 123.726 48.7661 123.529 49.0824C123.334 49.3987 123.059 49.6458 122.705 49.8239C122.351 50 121.937 50.0881 121.464 50.0881C120.988 50.0881 120.573 50 120.219 49.8239C119.865 49.6458 119.59 49.3987 119.395 49.0824C119.2 48.7661 119.103 48.3996 119.103 47.983V44.1818H120.157V47.8949C120.157 48.1373 120.21 48.3532 120.316 48.5426C120.424 48.732 120.575 48.8807 120.77 48.9886C120.965 49.0947 121.197 49.1477 121.464 49.1477C121.731 49.1477 121.962 49.0947 122.157 48.9886C122.354 48.8807 122.505 48.732 122.611 48.5426C122.717 48.3532 122.77 48.1373 122.77 47.8949V44.1818ZM128.17 44.1818H129.46L131.187 48.3977H131.255L132.982 44.1818H134.272V50H133.261V46.0028H133.207L131.599 49.983H130.843L129.235 45.9943H129.181V50H128.17V44.1818Z" fill="#0C5C73"/>
<path d="M180.864 26.7047C180.976 26.7045 181.087 26.704 181.199 26.7032C181.94 26.6977 182.659 26.7302 183.395 26.8238C183.464 26.8321 183.532 26.8404 183.601 26.8487C184.945 27.0119 186.483 27.4948 187.515 28.4053C187.545 28.4314 187.575 28.4574 187.606 28.4842C187.699 28.5669 187.791 28.6511 187.883 28.7363C187.913 28.7647 187.944 28.793 187.976 28.8222C188.835 29.6427 189.404 30.9786 189.433 32.1668C189.434 32.225 189.434 32.2832 189.435 32.3414C189.435 32.3887 189.435 32.3887 189.435 32.4369C189.436 32.5036 189.436 32.5703 189.436 32.637C189.436 32.7366 189.438 32.8363 189.439 32.9359C189.442 33.4791 189.383 34.0015 189.23 34.5244C189.222 34.5518 189.214 34.5792 189.206 34.6075C189.137 34.8407 189.054 35.0634 188.949 35.283C188.938 35.306 188.927 35.3291 188.916 35.3528C188.304 36.6189 187.268 37.5039 185.956 37.9931C184.903 38.3591 183.665 38.3392 182.652 37.8554C182.37 37.7109 182.091 37.5504 181.851 37.3426C181.796 37.2956 181.796 37.2956 181.74 37.2478C181.073 36.6631 180.643 35.9149 180.402 35.064C180.381 34.9946 180.358 34.9263 180.334 34.8581C180.086 34.0734 180.153 33.0598 180.514 32.325C180.539 32.2781 180.539 32.2781 180.564 32.2303C180.58 32.1972 180.597 32.164 180.614 32.1299C180.784 31.8028 180.988 31.4863 181.262 31.2373C181.222 31.4296 181.176 31.6192 181.122 31.8084C180.797 32.9796 180.743 34.2367 181.345 35.3312C181.485 35.5763 181.65 35.7828 181.851 35.9818C181.883 36.0151 181.915 36.0485 181.947 36.0829C181.976 36.1102 182.005 36.1375 182.035 36.1657C182.051 36.182 182.068 36.1984 182.085 36.2152C182.68 36.7691 183.561 37.0443 184.362 37.0183C184.407 37.0161 184.452 37.0139 184.499 37.0116C184.537 37.0112 184.576 37.0109 184.616 37.0106C185.352 36.9871 186.09 36.6559 186.632 36.1657C186.659 36.1412 186.687 36.1168 186.715 36.0917C187.432 35.4158 187.806 34.4314 187.852 33.457C187.885 32.3428 187.783 31.3193 187.037 30.4282C187.013 30.398 186.99 30.3678 186.966 30.3366C186.56 29.8484 185.929 29.5119 185.345 29.288C185.314 29.276 185.283 29.2639 185.252 29.2515C184.693 29.035 184.135 28.8979 183.543 28.8099C183.503 28.8039 183.462 28.7979 183.421 28.7916C182.511 28.6623 181.591 28.6847 180.674 28.6996C180.626 28.7003 180.577 28.7011 180.527 28.7019C179.078 28.7308 177.618 28.9468 176.194 29.2002C176.106 29.2157 176.019 29.2311 175.932 29.2465C175.232 29.3705 174.533 29.4993 173.837 29.6418C171.893 30.039 169.934 30.2502 167.952 30.3308C167.92 30.3322 167.888 30.3335 167.854 30.3349C167.794 30.3374 167.734 30.3398 167.673 30.342C167.632 30.3437 167.632 30.3437 167.59 30.3454C167.567 30.3463 167.544 30.3472 167.52 30.3481C167.445 30.3538 167.37 30.3632 167.295 30.3732C167.143 30.3927 166.993 30.3968 166.84 30.3967C166.811 30.3968 166.783 30.397 166.753 30.3971C166.659 30.3974 166.565 30.3975 166.471 30.3976C166.404 30.3977 166.337 30.3979 166.27 30.398C166.055 30.3984 165.84 30.3984 165.624 30.3983C165.551 30.3983 165.477 30.3983 165.403 30.3983C164.282 30.398 163.164 30.3826 162.044 30.3226C161.96 30.3182 161.876 30.314 161.792 30.3101C160.364 30.2424 158.933 30.1024 157.52 29.89C157.423 29.8754 157.325 29.8611 157.228 29.8469C156.434 29.7302 155.646 29.6055 154.864 29.4253C154.738 29.3967 154.611 29.3698 154.483 29.3433C153.941 29.2303 153.403 29.1052 152.869 28.957C152.833 28.9471 152.797 28.9372 152.761 28.927C152.048 28.7284 151.353 28.4862 150.66 28.2283C150.623 28.2146 150.586 28.2009 150.548 28.1868C150.372 28.1207 150.203 28.0525 150.037 27.964C150.156 27.9265 150.248 27.9284 150.372 27.9439C150.41 27.9484 150.447 27.9529 150.486 27.9576C150.528 27.9627 150.569 27.9679 150.612 27.9732C150.937 28.0118 151.262 28.0457 151.589 28.0717C152.195 28.1201 152.796 28.1921 153.398 28.2697C154.457 28.4059 155.518 28.5147 156.581 28.6153C156.682 28.6248 156.782 28.6345 156.883 28.6444C157.55 28.7096 158.218 28.7557 158.887 28.7961C158.925 28.7984 158.963 28.8007 159.003 28.8031C159.227 28.8165 159.452 28.8291 159.676 28.841C159.745 28.8446 159.813 28.8484 159.881 28.8523C160.709 28.8997 161.54 28.8908 162.37 28.8903C162.409 28.8903 162.448 28.8903 162.489 28.8903C163.685 28.8902 164.879 28.8853 166.073 28.8099C166.12 28.807 166.12 28.807 166.168 28.804C166.586 28.7775 167.003 28.7443 167.42 28.7072C167.508 28.6995 167.596 28.6922 167.685 28.685C168.461 28.6214 169.229 28.5268 169.999 28.4053C170.038 28.3992 170.077 28.393 170.117 28.3867C170.606 28.3089 171.092 28.2223 171.578 28.1275C171.702 28.1036 171.825 28.0806 171.949 28.0575C172.606 27.9337 173.256 27.7889 173.907 27.633C175.436 27.2664 176.975 26.9826 178.538 26.8123C178.579 26.8078 178.579 26.8078 178.621 26.8033C179.369 26.7225 180.113 26.7056 180.864 26.7047Z" fill="#7ED857"/>
<path d="M171.847 12.8479C171.872 12.8544 171.897 12.8609 171.922 12.8676C172.535 13.0285 173.125 13.3015 173.649 13.657C173.68 13.6784 173.68 13.6784 173.713 13.7003C173.974 13.8777 174.218 14.0637 174.449 14.2794C174.525 14.3496 174.602 14.416 174.681 14.4822C175.957 15.5998 176.752 17.3947 176.885 19.0635C176.895 19.241 176.896 19.4184 176.895 19.5961C176.895 19.6728 176.895 19.7494 176.895 19.826C176.896 20.1664 176.865 20.4921 176.812 20.8289C176.805 20.8785 176.805 20.8785 176.797 20.9291C176.566 22.4876 175.786 23.9776 174.531 24.9481C174.498 24.9759 174.465 25.0036 174.431 25.0322C172.72 26.4253 170.151 27.1349 167.987 27.3136C167.828 27.3269 167.674 27.3471 167.518 27.3751C167.266 27.4187 167.013 27.4357 166.757 27.4514C166.667 27.4571 166.577 27.4629 166.488 27.4688C166.448 27.4712 166.409 27.4736 166.369 27.4761C166.258 27.4839 166.258 27.4839 166.156 27.504C165.983 27.5307 165.81 27.5364 165.635 27.5429C165.593 27.5444 165.552 27.546 165.51 27.5476C164.945 27.5664 164.38 27.5663 163.815 27.5662C163.687 27.5662 163.558 27.5665 163.43 27.567C162.645 27.57 161.866 27.5544 161.083 27.495C160.96 27.4859 160.838 27.4776 160.715 27.4697C158.907 27.3517 157.093 27.0807 155.324 26.6928C155.292 26.6858 155.26 26.6789 155.227 26.6717C154.508 26.5134 153.797 26.3303 153.089 26.125C153.063 26.1174 153.036 26.1098 153.009 26.102C151.927 25.7855 150.907 25.2055 150 24.5436C150.102 24.4927 150.15 24.5194 150.259 24.5475C150.298 24.5574 150.337 24.5672 150.377 24.5773C150.419 24.5883 150.462 24.5993 150.505 24.6106C150.549 24.6218 150.593 24.6329 150.638 24.6444C150.78 24.6802 150.921 24.7165 151.062 24.7527C151.634 24.8993 152.204 25.0433 152.784 25.1526C152.928 25.1802 153.072 25.2101 153.216 25.2398C154.83 25.5699 156.458 25.85 158.103 25.971C158.131 25.9731 158.16 25.9752 158.19 25.9774C158.39 25.9918 158.59 26.0039 158.79 26.0147C158.822 26.0164 158.854 26.0182 158.887 26.0199C159.536 26.0537 160.184 26.0604 160.834 26.0607C160.873 26.0607 160.873 26.0607 160.914 26.0608C161.964 26.0616 163.007 26.0221 164.055 25.9485C164.153 25.9416 164.251 25.9351 164.35 25.9286C165.983 25.8213 167.612 25.6155 169.199 25.2056C169.254 25.1913 169.254 25.1913 169.31 25.1768C170.862 24.7707 172.314 24.176 173.502 23.0724C173.526 23.0503 173.551 23.0282 173.576 23.0054C174.387 22.2425 174.905 21.0429 174.94 19.9331C174.942 19.7842 174.943 19.6354 174.943 19.4865C174.943 19.46 174.943 19.4336 174.943 19.4063C174.942 19.0298 174.936 18.662 174.862 18.2912C174.857 18.2626 174.851 18.234 174.846 18.2045C174.596 16.9512 173.962 15.7352 172.882 15.0031C171.88 14.3464 170.622 14.0497 169.44 14.2813C168.323 14.5217 167.33 15.1599 166.705 16.1239C165.913 17.3917 165.739 18.9029 166.072 20.3508C166.118 20.536 166.173 20.718 166.232 20.8996C166.277 21.0402 166.319 21.1816 166.362 21.3231C166.37 21.3499 166.379 21.3767 166.387 21.4043C166.444 21.5929 166.444 21.5929 166.403 21.6748C166.131 21.3716 165.868 21.076 165.668 20.7186C165.649 20.6865 165.63 20.6545 165.611 20.6214C164.956 19.4179 165.012 17.9896 165.389 16.7128C165.682 15.7566 166.214 14.9495 166.918 14.2455C166.958 14.2032 166.958 14.2032 166.999 14.16C167.225 13.9223 167.469 13.7337 167.74 13.5511C167.795 13.5142 167.849 13.4765 167.903 13.4386C168.351 13.1367 168.863 12.9507 169.382 12.8111C169.425 12.7993 169.467 12.7875 169.51 12.7753C170.256 12.6008 171.112 12.6448 171.847 12.8479Z" fill="#7FD857"/>
<path d="M188.066 15.7301C188.449 16.0715 188.779 16.4257 189.058 16.8568C189.081 16.8917 189.103 16.9266 189.127 16.9626C189.928 18.257 190.183 19.976 189.867 21.4541C189.807 21.692 189.73 21.9228 189.646 22.1529C189.632 22.1932 189.617 22.2335 189.603 22.275C189.405 22.7868 189.097 23.2238 188.727 23.6241C188.709 23.6429 188.692 23.6617 188.675 23.6811C188.235 24.1568 187.718 24.5046 187.145 24.801C187.115 24.8169 187.085 24.8328 187.053 24.8493C186.479 25.1482 185.89 25.355 185.269 25.5366C185.223 25.5506 185.223 25.5506 185.175 25.565C183.728 25.9994 182.188 26.0889 180.686 26.0967C180.571 26.0973 180.456 26.0982 180.341 26.0991C180.014 26.1016 179.688 26.1039 179.361 26.1058C179.16 26.107 178.958 26.1085 178.757 26.1102C178.681 26.1108 178.606 26.1112 178.53 26.1116C177.88 26.1144 177.236 26.1524 176.595 26.2644C176.559 26.2706 176.522 26.2768 176.485 26.2832C176.12 26.3474 175.76 26.4308 175.401 26.5172C174.815 26.6572 174.229 26.787 173.636 26.8882C173.595 26.8953 173.595 26.8953 173.553 26.9025C173.116 26.9777 173.116 26.9777 172.985 26.9342C173.734 26.3787 174.587 25.9567 175.45 25.6101C175.479 25.5981 175.509 25.5861 175.54 25.5738C175.954 25.409 176.371 25.288 176.804 25.1874C176.909 25.1629 177.012 25.136 177.116 25.109C177.546 25.002 177.983 24.9251 178.422 24.863C178.448 24.8593 178.475 24.8555 178.502 24.8515C179.106 24.7666 179.714 24.7158 180.321 24.6631C184.094 24.3534 184.094 24.3534 187.182 22.3368C187.801 21.5496 188.011 20.6383 187.954 19.652C187.953 19.6247 187.951 19.5975 187.95 19.5694C187.882 18.5146 187.376 17.47 186.598 16.7601C186.282 16.4849 185.97 16.2883 185.577 16.1465C185.552 16.1371 185.526 16.1277 185.499 16.1181C184.794 15.8766 184.052 16.023 183.395 16.335C182.594 16.7476 182.071 17.453 181.709 18.259C181.699 18.2813 181.688 18.3037 181.678 18.3267C181.519 18.6937 181.462 19.0585 181.465 19.4566C181.465 19.5205 181.465 19.5205 181.466 19.5857C181.475 20.1482 181.568 20.6989 181.717 21.2406C181.74 21.3511 181.742 21.4519 181.739 21.5644C181.572 21.4345 181.444 21.3011 181.32 21.13C181.303 21.1061 181.286 21.0821 181.268 21.0575C180.654 20.1874 180.517 19.1917 180.693 18.1509C180.896 17.0506 181.473 16.0291 182.402 15.3832C184.164 14.231 186.453 14.3704 188.066 15.7301Z" fill="#027F37"/>
<path d="M171.016 32.2905C171.741 32.9517 172.127 33.8174 172.186 34.7935C172.224 36.0468 171.991 37.1797 171.148 38.1517C171.123 38.1819 171.098 38.212 171.073 38.2431C170.555 38.8514 169.786 39.3087 168.984 39.3962C168.002 39.4705 167.192 39.2454 166.428 38.6069C165.877 38.1166 165.543 37.6418 165.322 36.9342C165.302 36.8711 165.28 36.8085 165.258 36.7461C165.14 36.2293 165.163 35.6088 165.41 35.1358C165.441 35.0766 165.441 35.0766 165.472 35.0162C165.59 34.8027 165.718 34.6116 165.888 34.4371C165.913 34.4371 165.937 34.4371 165.962 34.4371C165.963 34.4823 165.963 34.4823 165.964 34.5284C165.984 35.5554 166.02 36.579 166.763 37.3749C167.185 37.7792 167.676 37.9497 168.249 37.9401C168.847 37.9015 169.316 37.624 169.713 37.1884C169.879 36.9885 169.984 36.7733 170.081 36.5334C170.093 36.505 170.105 36.4766 170.118 36.4472C170.334 35.8748 170.312 35.073 170.081 34.5106C169.734 33.7577 169.131 33.3241 168.372 33.026C167.836 32.8379 167.28 32.7203 166.721 32.628C166.67 32.6195 166.67 32.6195 166.618 32.6107C165.75 32.4748 164.877 32.4746 164.001 32.4688C163.827 32.4676 163.654 32.4662 163.48 32.4644C163.401 32.4637 163.322 32.4633 163.242 32.4631C162.767 32.4594 162.293 32.4199 161.836 32.2832C161.804 32.2737 161.771 32.2642 161.738 32.2544C160.906 31.9999 160.1 31.586 159.342 31.1637C159.342 31.1516 159.342 31.1395 159.342 31.127C159.588 31.1205 159.831 31.1282 160.076 31.1511C161.43 31.2759 162.821 31.342 164.169 31.1303C166.352 30.7976 169.256 30.7342 171.016 32.2905Z" fill="#027F37"/>
<path d="M180.451 31.0166C180.43 31.0345 180.41 31.0523 180.388 31.0707C180.196 31.2374 180.025 31.4097 179.863 31.6051C179.837 31.6349 179.811 31.6647 179.784 31.6955C179.134 32.4539 178.916 33.3383 178.98 34.3267C179.003 34.5382 179.044 34.7447 179.091 34.952C179.098 34.9876 179.106 35.0233 179.115 35.06C179.356 36.0238 179.914 36.7911 180.562 37.5265C180.24 37.5265 179.966 37.2218 179.753 37.0116C179.722 36.9817 179.692 36.9517 179.66 36.9209C178.821 36.0476 178.444 34.8492 178.457 33.6581C178.477 32.895 178.788 32.1596 179.311 31.6051C179.429 31.4994 179.551 31.4038 179.679 31.3109C179.713 31.2843 179.747 31.2578 179.782 31.2304C180.295 30.9387 180.295 30.9387 180.451 31.0166Z" fill="#CAE06C"/>
<path d="M171.076 16.2316C171.039 16.3051 171.039 16.3051 170.974 16.3324C170.946 16.341 170.917 16.3495 170.888 16.3583C170.857 16.3681 170.825 16.378 170.793 16.3881C170.759 16.3987 170.725 16.4092 170.69 16.42C170.135 16.599 169.649 16.8111 169.2 17.1878C169.179 17.2044 169.159 17.2209 169.138 17.238C168.982 17.3656 168.859 17.5003 168.743 17.6636C168.717 17.6995 168.717 17.6995 168.69 17.7361C168.294 18.2995 168.042 18.8744 168.097 19.5784C168.099 19.6139 168.101 19.6494 168.103 19.6859C168.152 20.1455 168.338 20.6225 168.547 21.0328C168.612 21.1599 168.612 21.1599 168.612 21.2335C168.47 21.178 168.409 21.0949 168.317 20.976C168.289 20.9502 168.261 20.9244 168.232 20.8979C167.78 20.4139 167.596 19.7874 167.601 19.1356C167.627 18.3875 167.98 17.7177 168.515 17.2063C168.993 16.7637 169.522 16.4655 170.156 16.3051C170.202 16.2927 170.202 16.2927 170.248 16.2801C170.521 16.2145 170.797 16.2249 171.076 16.2316Z" fill="#CAE06A"/>
<path d="M220.417 19.134C220.443 19.1339 220.47 19.1339 220.496 19.1338C222.263 19.1343 223.872 19.7603 225.433 20.5316C225.332 20.5652 225.301 20.5614 225.2 20.5398C225.16 20.5313 225.16 20.5313 225.119 20.5227C225.076 20.5135 225.076 20.5135 225.033 20.5041C224.978 20.4923 224.923 20.4805 224.868 20.4689C224.843 20.4636 224.819 20.4583 224.794 20.4528C224.582 20.4139 224.377 20.4001 224.162 20.3982C224.135 20.3978 224.107 20.3975 224.079 20.3972C223.49 20.392 222.921 20.3888 222.346 20.5316C222.32 20.5381 222.293 20.5445 222.265 20.5511C220.901 20.8833 219.646 21.6014 218.508 22.4054C218.441 22.4528 218.374 22.4997 218.306 22.5467C217.748 22.9369 217.204 23.3473 216.665 23.7636C216.419 23.9532 216.171 24.1401 215.923 24.326C215.86 24.3732 215.797 24.4204 215.734 24.4678C215.511 24.6363 215.286 24.8028 215.059 24.9667C215.037 24.9829 215.014 24.9991 214.991 25.0158C213.313 26.2239 211.508 27.322 209.433 27.6498C209.391 27.6568 209.391 27.6568 209.347 27.664C208.454 27.8091 207.581 27.7622 206.693 27.6183C206.664 27.6137 206.634 27.6092 206.604 27.6045C205.828 27.4816 205.083 27.1992 204.362 26.8938C204.337 26.8832 204.311 26.8725 204.284 26.8615C202.91 26.2897 201.626 25.3959 200.484 24.449C200.414 24.3907 200.343 24.3331 200.272 24.2757C200.057 24.1031 199.845 23.9294 199.642 23.7433C199.58 23.6861 199.517 23.6303 199.453 23.5749C199.328 23.4661 199.206 23.354 199.084 23.2417C198.998 23.1621 198.91 23.0841 198.821 23.008C198.685 22.8907 198.561 22.7626 198.435 22.635C198.32 22.5188 198.201 22.4085 198.075 22.3039C198.031 22.2639 198.031 22.2639 198 22.2009C198.09 22.2428 198.164 22.29 198.241 22.3521C198.263 22.3697 198.285 22.3873 198.308 22.4054C198.332 22.4243 198.356 22.4433 198.38 22.4627C198.674 22.6946 198.979 22.9075 199.291 23.1143C199.315 23.1298 199.338 23.1453 199.362 23.1612C199.851 23.4836 200.352 23.7801 200.866 24.0592C200.893 24.0741 200.921 24.089 200.949 24.1044C202.381 24.8838 203.979 25.4269 205.622 25.4253C205.647 25.4254 205.673 25.4254 205.699 25.4255C207.42 25.4251 209.043 24.832 210.5 23.9421C210.57 23.8996 210.641 23.8582 210.712 23.817C211.119 23.5789 211.508 23.3173 211.896 23.0494C211.972 22.9965 212.049 22.9439 212.126 22.8915C212.367 22.7274 212.605 22.5587 212.841 22.3873C213.071 22.2208 213.302 22.0571 213.534 21.894C213.582 21.8604 213.63 21.8267 213.677 21.793C214.031 21.5435 214.393 21.307 214.757 21.0748C214.825 21.0317 214.892 20.9883 214.96 20.9449C215.432 20.6422 215.916 20.3688 216.42 20.124C216.493 20.0882 216.566 20.0516 216.639 20.015C217.825 19.4264 219.095 19.1353 220.417 19.134Z" fill="#7FCBF7"/>
<path d="M235.587 25.8386C235.67 25.9153 235.751 25.9942 235.83 26.0751C235.866 26.1111 235.866 26.1111 235.903 26.1479C235.931 26.1758 235.959 26.2038 235.988 26.2326C236.005 26.2485 236.022 26.2644 236.04 26.2808C236.406 26.6255 236.676 27.0636 236.933 27.4924C236.954 27.5279 236.976 27.5634 236.998 27.5999C237.476 28.405 237.921 29.4809 238.003 30.4215C237.993 30.4423 237.983 30.4631 237.972 30.4845C237.951 30.4574 237.93 30.4304 237.908 30.4025C237.815 30.2822 237.72 30.1627 237.625 30.0436C237.605 30.0179 237.605 30.0179 237.584 29.9916C237.229 29.5483 236.822 29.1234 236.366 28.7837C236.345 28.7682 236.324 28.7527 236.303 28.7367C235.219 27.93 234.019 27.4188 232.681 27.2089C232.649 27.2038 232.617 27.1986 232.584 27.1933C231.675 27.0511 230.727 27.0817 229.814 27.1774C229.784 27.1806 229.753 27.1838 229.721 27.1872C228.633 27.3051 227.562 27.5836 226.519 27.9097C226.484 27.9208 226.484 27.9208 226.448 27.932C226.306 27.9772 226.171 28.0318 226.035 28.0908C225.956 28.119 225.876 28.1465 225.797 28.1735C225.461 28.2899 225.134 28.4251 224.807 28.5633C224.784 28.5729 224.761 28.5825 224.737 28.5925C223.827 28.9789 222.899 29.4144 222.066 29.9491C222.007 29.9868 221.947 30.0242 221.887 30.0613C221.862 30.0769 221.838 30.0926 221.812 30.1087C221.792 30.1184 221.772 30.1281 221.751 30.1381C221.731 30.1277 221.71 30.1173 221.688 30.1066C221.895 29.9138 222.103 29.7265 222.323 29.5494C222.404 29.4838 222.483 29.4171 222.562 29.3495C222.749 29.1897 222.94 29.0374 223.136 28.8887C223.221 28.8233 223.305 28.7568 223.389 28.6892C224.086 28.1294 224.813 27.6025 225.562 27.1144C225.587 27.0983 225.612 27.0822 225.637 27.0655C226.329 26.6146 227.043 26.2076 227.779 25.8335C227.849 25.798 227.919 25.7622 227.988 25.726C228.983 25.2145 230.039 24.8819 231.137 24.6892C231.16 24.685 231.183 24.6807 231.207 24.6763C232.749 24.3929 234.405 24.8131 235.587 25.8386Z" fill="#7FCBF7"/>
<path d="M227.174 21.1249C227.223 21.1247 227.223 21.1247 227.273 21.1246C227.343 21.1244 227.412 21.1243 227.481 21.1243C227.585 21.1243 227.689 21.1237 227.792 21.1231C228.349 21.1216 228.9 21.1498 229.446 21.2601C229.48 21.2668 229.514 21.2735 229.549 21.2804C230.975 21.5733 232.294 22.1166 233.59 22.768C233.488 22.8019 233.453 22.7971 233.351 22.7761C233.322 22.7704 233.294 22.7648 233.265 22.759C233.22 22.7498 233.22 22.7498 233.175 22.7404C233.117 22.7286 233.058 22.7169 233 22.7052C232.974 22.6999 232.949 22.6946 232.922 22.6891C232.701 22.6497 232.487 22.6366 232.263 22.6356C232.233 22.6354 232.202 22.6352 232.171 22.635C232.107 22.6347 232.043 22.6345 231.979 22.6344C231.883 22.6341 231.787 22.6331 231.692 22.6321C231.151 22.6292 230.636 22.6928 230.112 22.8231C230.079 22.8312 230.046 22.8393 230.012 22.8477C229.403 23.0015 228.836 23.2276 228.267 23.4924C228.24 23.5052 228.212 23.5179 228.184 23.5311C227.018 24.0779 225.918 24.8527 224.926 25.6711C224.776 25.7945 224.623 25.9128 224.468 26.0298C224.26 26.1871 224.061 26.3521 223.864 26.5234C223.774 26.6015 223.683 26.6772 223.59 26.7522C223.457 26.8603 223.326 26.971 223.196 27.0829C223.039 27.2183 222.88 27.3508 222.719 27.4815C222.615 27.5677 222.512 27.6559 222.409 27.7443C222.254 27.8782 222.097 28.0099 221.937 28.1393C221.842 28.2167 221.747 28.2947 221.653 28.3728C220.852 29.0339 220.852 29.0339 220.455 29.3353C220.382 29.3909 220.309 29.4467 220.236 29.5026C218.137 31.112 215.796 32.5185 213.118 32.8152C213.094 32.818 213.07 32.8207 213.045 32.8235C212.857 32.844 212.671 32.8521 212.482 32.8531C212.452 32.8533 212.422 32.8535 212.392 32.8538C212.296 32.8543 212.201 32.8545 212.106 32.8546C212.073 32.8546 212.041 32.8546 212.007 32.8546C211.53 32.8541 211.069 32.8385 210.598 32.7522C210.566 32.7468 210.534 32.7414 210.501 32.7358C207.36 32.2031 204.603 30.3505 202.005 28.0579C201.944 28.0031 201.883 27.9494 201.82 27.8959C201.693 27.7851 201.57 27.6703 201.446 27.5554C201.427 27.537 201.407 27.5187 201.387 27.4998C201.288 27.4073 201.19 27.3136 201.095 27.2174C201.023 27.1449 200.95 27.0757 200.872 27.0101C200.714 26.8748 200.57 26.7269 200.425 26.579C200.537 26.579 200.557 26.5996 200.645 26.6656C201.957 27.6089 203.467 28.3751 204.992 28.9097C205.025 28.9214 205.058 28.9331 205.093 28.9452C205.845 29.2063 206.646 29.4102 207.437 29.5121C207.471 29.5167 207.506 29.5213 207.542 29.5261C207.897 29.5661 208.251 29.5787 208.608 29.579C208.632 29.579 208.657 29.579 208.682 29.579C209.714 29.5776 210.751 29.4601 211.732 29.1302C211.766 29.1191 211.8 29.108 211.835 29.0966C212.514 28.875 213.175 28.6203 213.8 28.2741C213.906 28.2162 214.013 28.1631 214.122 28.1105C215.077 27.6356 215.979 27.002 216.837 26.371C216.929 26.3036 217.023 26.2376 217.116 26.1715C217.366 25.9936 217.612 25.8109 217.859 25.6285C217.936 25.5716 218.013 25.5149 218.09 25.4582C218.324 25.2863 218.557 25.1139 218.789 24.9392C219.239 24.6003 219.699 24.2747 220.162 23.953C220.229 23.9063 220.296 23.8594 220.363 23.8125C220.863 23.464 221.378 23.136 221.905 22.831C221.946 22.8071 221.946 22.8071 221.988 22.7828C223.276 22.0378 224.624 21.4826 226.094 21.2247C226.125 21.219 226.156 21.2134 226.189 21.2076C226.22 21.2021 226.252 21.1966 226.284 21.1909C226.326 21.1836 226.326 21.1836 226.368 21.1762C226.637 21.1386 226.903 21.1252 227.174 21.1249Z" fill="#527EBA"/>
<path fill-rule="evenodd" clip-rule="evenodd" d="M265.299 14.7787L265.395 14.7786C266.511 14.7796 267.597 14.9211 268.649 15.3001C268.735 15.3306 268.82 15.36 268.906 15.3891C269.326 15.535 269.71 15.7331 270.099 15.946C270.201 16.0008 270.304 16.0537 270.407 16.1062L270.506 16.1573C270.569 16.1893 270.631 16.2211 270.694 16.2526C270.822 16.3186 270.872 16.3448 270.902 16.3858C270.922 16.4128 270.933 16.4461 270.952 16.5013C270.987 16.522 271.005 16.533 271.025 16.5429C271.047 16.5541 271.07 16.5639 271.119 16.5848L271.119 16.5848C271.652 16.9014 272.115 17.2759 272.564 17.6998C272.635 17.7663 272.709 17.8295 272.784 17.8924C273.216 18.2672 273.606 18.6827 273.958 19.1321L274.141 19.3487C274.297 19.5395 274.441 19.7366 274.582 19.9385L274.642 20.0233C274.75 20.181 274.826 20.3232 274.877 20.5101H274.961C275.575 21.6257 276.058 22.7148 276.375 23.9552L276.411 24.0954C276.581 24.7861 276.606 25.4608 276.605 26.1685L276.605 26.3042C276.605 26.8173 276.595 27.3074 276.482 27.8097C276.392 28.2483 276.407 28.7021 276.422 29.1497C276.424 29.2185 276.426 29.2872 276.428 29.3556C276.44 29.8802 276.382 30.3573 276.255 30.8664L276.222 30.9986C276.196 31.0972 276.168 31.1945 276.138 31.2918L276.106 31.3955C275.943 31.9083 275.734 32.3852 275.477 32.8577L275.42 32.9638C275.31 33.1605 275.191 33.3264 275.044 33.4972L275.044 33.4973C275.016 33.544 275.003 33.566 274.992 33.5888C274.981 33.6091 274.972 33.6299 274.955 33.6693L274.955 33.6694C274.898 33.79 274.843 33.8989 274.752 33.9983H274.668L274.64 34.0896C274.579 34.2183 274.503 34.2922 274.406 34.3866L274.376 34.4159C274.301 34.4973 274.226 34.579 274.151 34.6612C274 34.8275 273.847 34.9911 273.686 35.1485C273.628 35.2058 273.571 35.2649 273.515 35.3241C273.417 35.4161 273.321 35.4754 273.207 35.5434L273.123 35.6686C273.054 35.6976 272.984 35.7253 272.914 35.7522C272.844 35.7992 272.776 35.848 272.708 35.8983C272.558 36.0062 272.428 36.0848 272.246 36.128V36.2115L272.113 36.2663C272.015 36.3078 271.933 36.3502 271.842 36.4073C271.803 36.4295 271.779 36.4427 271.754 36.4505C271.718 36.4621 271.677 36.4621 271.578 36.4621V36.5456C270.385 36.9602 270.049 37.077 269.703 37.1436C269.568 37.1697 269.43 37.1881 269.24 37.2137L269.24 37.2137L269.146 37.2276C267.126 37.521 264.998 37.1536 263.143 36.3368L262.962 36.2596C262.799 36.1897 262.637 36.1175 262.475 36.0445L262.392 36.0076C261.459 35.5882 260.56 35.0797 259.718 34.4994L259.637 34.4434C258.973 33.9845 258.291 33.5018 257.726 32.9214C257.681 32.871 257.658 32.8458 257.631 32.829C257.603 32.8123 257.57 32.804 257.505 32.7873V32.7038H257.422V32.6202H257.338C257.311 32.5925 257.296 32.577 257.281 32.561C257.263 32.5407 257.245 32.5195 257.205 32.4715L257.205 32.4715C257.107 32.3561 257.008 32.2458 256.9 32.14C256.65 31.8934 256.429 31.6235 256.212 31.3484C256.158 31.281 256.104 31.2141 256.049 31.1477C255.461 30.4296 254.978 29.6485 254.577 28.8119C254.544 28.7444 254.51 28.6776 254.476 28.6109C253.848 27.346 253.662 25.9144 253.705 24.519L253.708 24.405C253.762 22.917 254.382 21.5243 255.125 20.2596H255.209L255.218 20.1927C255.261 20.0583 255.338 19.9527 255.42 19.8404L255.43 19.8263L255.486 19.7497C255.628 19.5559 255.778 19.3698 255.934 19.1869L255.997 19.1125C256.079 19.0179 256.158 18.9314 256.259 18.8572C256.299 18.8302 256.32 18.816 256.336 18.7978C256.355 18.7775 256.368 18.7523 256.395 18.6988C256.475 18.5665 256.57 18.4822 256.686 18.3804C256.839 18.2455 256.986 18.1077 257.129 17.9628C257.339 17.7645 257.552 17.5883 257.796 17.4335L257.796 17.4335C257.838 17.4069 257.86 17.3931 257.881 17.3782C257.904 17.3621 257.925 17.3447 257.97 17.3085C258.012 17.279 258.031 17.2652 258.053 17.2587C258.072 17.2529 258.092 17.2529 258.132 17.2529V17.1694C258.164 17.1434 258.183 17.1286 258.202 17.1145C258.227 17.096 258.253 17.0788 258.314 17.0389L258.433 16.9605L258.562 16.8771L258.694 16.7918C259.053 16.5621 259.42 16.3571 259.802 16.1673C259.878 16.1294 259.953 16.0906 260.028 16.0517C260.309 15.9078 260.595 15.7838 260.888 15.6661L260.993 15.6219C261.273 15.5058 261.558 15.4187 261.848 15.332L261.98 15.2902C262.504 15.1243 263.027 14.9985 263.568 14.9066L263.691 14.8855C264.225 14.7983 264.759 14.7792 265.299 14.7787ZM263.731 19.4947C263.846 19.4948 263.96 19.4939 264.075 19.4928C265.454 19.4878 266.818 19.9651 267.819 20.9277C267.863 20.9631 267.907 20.998 267.952 21.0321C268.634 21.6383 269.062 22.532 269.322 23.3915L269.349 23.4789C269.594 24.3103 269.592 25.3553 269.364 26.1893L269.328 26.3352C269.178 26.9187 268.912 27.6703 268.487 28.1102H268.403L268.39 28.1845C268.345 28.33 268.24 28.4368 268.135 28.5437L268.135 28.5437C268.113 28.5662 268.091 28.5886 268.069 28.6114L267.964 28.7234C267.596 29.1036 267.19 29.3909 266.733 29.6553L266.624 29.725C266.576 29.7516 266.551 29.7655 266.524 29.7727C266.495 29.7806 266.464 29.7806 266.399 29.7806V29.8641C264.92 30.3949 263.766 30.5487 262.306 29.8641C262.071 29.7439 261.851 29.6079 261.638 29.4518L261.562 29.3965C261.513 29.3601 261.463 29.3237 261.413 29.2872C261.355 29.2447 261.297 29.2032 261.238 29.1619C260.977 28.9724 260.79 28.7401 260.594 28.4861L260.513 28.3863C259.959 27.7002 259.681 26.8608 259.759 25.9805C259.807 25.6922 259.91 25.4409 260.051 25.1871L260.101 25.0933C260.21 24.8904 260.326 24.7002 260.469 24.519H260.553L260.581 24.4459C260.646 24.3347 260.726 24.2746 260.825 24.1995L260.845 24.1849L260.896 24.1286C261.232 23.8151 261.711 23.6163 262.139 23.475L262.247 23.4347C262.779 23.2574 263.426 23.2849 263.935 23.5168L263.935 23.5168C263.991 23.5559 264.015 23.5726 264.038 23.5904C264.056 23.6037 264.073 23.6177 264.102 23.642L264.102 23.642C264.056 23.7705 264.021 23.8078 263.901 23.8795C263.727 24.006 263.655 24.1545 263.563 24.344L263.559 24.3519L263.517 24.4355C263.507 24.5622 263.506 24.6892 263.505 24.8163V24.8163L263.504 24.8791L263.501 25.0023C263.498 25.3329 263.572 25.5431 263.773 25.8031C264.055 26.0239 264.416 26.1003 264.763 26.1738L264.763 26.1738C264.799 26.1816 264.836 26.1893 264.872 26.1972L265.162 26.2616L265.289 26.2895C265.338 26.3009 265.365 26.3072 265.391 26.3145C265.423 26.3233 265.454 26.3336 265.522 26.3564L265.522 26.3564C265.814 26.3928 266.057 26.327 266.315 26.1893C266.372 26.1405 266.397 26.1191 266.42 26.0955C266.437 26.0771 266.453 26.0574 266.482 26.0223L266.482 26.0223H266.566C266.713 25.5985 266.749 25.2014 266.749 24.7539L266.749 24.6036C266.744 24.2409 266.699 23.9047 266.589 23.5585L266.557 23.4557L266.524 23.3497C266.5 23.2715 266.477 23.1932 266.454 23.1148L266.422 23.0088L266.399 22.9321H266.315L266.284 22.8646C266.052 22.4012 265.675 22.0965 265.23 21.8464L265.116 21.7802C264.633 21.5178 264.068 21.3568 263.517 21.3453L263.437 21.3415C262.346 21.2915 261.215 21.5401 260.254 22.0624L260.254 22.0624C260.222 22.0764 260.204 22.0848 260.184 22.0897C260.156 22.097 260.126 22.097 260.051 22.097V22.1805L259.925 22.2276C259.739 22.3073 259.595 22.4249 259.441 22.5537L259.359 22.6202C259.307 22.6629 259.255 22.7057 259.203 22.7487C259.142 22.7989 259.08 22.8478 259.018 22.8964C258.929 22.9694 258.857 23.0431 258.783 23.1305C258.708 23.2181 258.634 23.3054 258.557 23.3907C258.227 23.7552 258.004 24.1601 257.796 24.6025L257.755 24.6907C257.668 24.8942 257.634 25.1115 257.599 25.3287L257.591 25.3768C257.569 25.5127 257.56 25.5643 257.535 25.6059C257.519 25.6314 257.497 25.6532 257.462 25.6882C257.419 24.4912 257.725 23.1083 258.465 22.1387H258.548L258.559 22.0681C258.638 21.8191 258.868 21.5992 259.063 21.4127L259.063 21.4126C259.087 21.3897 259.11 21.3672 259.133 21.3453L259.205 21.2492C259.317 21.1164 259.439 21.0171 259.576 20.912L259.656 20.8511C259.732 20.7928 259.808 20.7349 259.884 20.6771L259.992 20.5941C260.675 20.0887 261.558 19.7466 262.39 19.5914L262.51 19.569C262.917 19.5015 263.319 19.4937 263.731 19.4947ZM268.153 17.754C267.148 17.4181 266.115 17.3468 265.063 17.3782V17.42C265.135 17.4326 265.207 17.4454 265.28 17.4584L265.371 17.4748C265.563 17.5082 265.75 17.5487 265.937 17.6051L265.938 17.6054C266.041 17.6374 266.145 17.6694 266.248 17.6994C266.844 17.868 267.428 18.052 267.965 18.3648C267.977 18.3723 267.99 18.3799 268.002 18.3874C268.095 18.445 268.188 18.5021 268.285 18.5528C269.394 19.1174 270.307 20.1557 270.876 21.2416L270.951 21.3871C271.714 22.8547 272.05 24.453 271.721 26.0982L271.702 26.1894C271.53 27.0714 271.153 27.8878 270.664 28.6375C270.579 28.7635 270.5 28.8849 270.439 29.0247L270.408 29.1125H270.324L270.263 29.1936C270.126 29.403 269.988 29.5871 269.807 29.7596C269.791 29.7745 269.779 29.7859 269.767 29.7974C269.728 29.8342 269.69 29.872 269.531 30.0312C269.327 30.2464 269.121 30.4394 268.881 30.6132C268.804 30.6678 268.728 30.7238 268.654 30.7828V30.8664C268.614 30.8664 268.593 30.8664 268.574 30.8719C268.553 30.8778 268.534 30.8901 268.494 30.9156C267.376 31.7387 266.166 32.2188 264.809 32.4798L264.729 32.495V32.5785C266.707 32.8371 268.848 32.8232 270.689 31.9587L270.805 31.9025C271.367 31.6307 271.918 31.3029 272.371 30.8664V30.7828C272.52 30.7276 272.608 30.6322 272.711 30.5139L272.775 30.4383C272.999 30.1739 273.198 29.9006 273.373 29.6017L273.415 29.5301C273.466 29.4404 273.517 29.3499 273.566 29.2586C273.889 28.5874 274.134 27.9135 273.895 27.1863C273.858 27.0771 273.823 26.9682 273.79 26.8575C273.754 26.6063 273.767 26.4027 273.916 26.1894C273.926 26.1828 273.937 26.1767 273.947 26.1707C274.042 26.1133 274.101 26.0778 274.166 25.9806C274.284 25.1659 274.007 24.2059 273.72 23.4496C273.691 23.3757 273.663 23.3017 273.636 23.2273C273.426 22.6472 273.209 22.0485 272.819 21.5619L272.746 21.4706C272.685 21.3139 272.616 21.1861 272.515 21.0499L272.454 20.9695C272.387 20.8799 272.319 20.7912 272.25 20.7034L272.162 20.5936C271.829 20.18 271.468 19.8097 271.073 19.4546L270.992 19.3826C270.214 18.6813 269.307 18.144 268.312 17.8054L268.153 17.754Z" fill="#FEDE59"/>
<path d="M278.279 10.6628C278.435 10.742 278.524 10.8155 278.637 10.9473C278.665 10.9779 278.665 10.9779 278.693 11.0091C278.896 11.2385 278.947 11.4153 278.939 11.7159C278.892 12.2237 278.57 12.7289 278.268 13.1251C278.184 13.2362 278.103 13.3489 278.022 13.463C277.447 14.2788 277.447 14.2788 277.053 14.5529C276.802 14.729 276.553 14.9613 276.43 15.2481C276.371 15.3513 276.29 15.4091 276.198 15.4823C276.083 15.583 275.998 15.7055 275.907 15.8279C275.624 16.1971 275.328 16.4413 274.92 16.6683C274.877 16.6941 274.834 16.7199 274.79 16.7466C274.632 16.8084 274.503 16.8273 274.336 16.7935C274.154 16.6964 274.154 16.6964 274.085 16.5847C273.98 16.1507 274.217 15.6455 274.429 15.2775C274.563 15.0736 274.719 14.8896 274.879 14.7056C275.041 14.5288 275.041 14.5288 275.171 14.3298C275.199 14.3298 275.226 14.3298 275.255 14.3298C275.282 14.2609 275.31 14.192 275.338 14.121C275.366 14.121 275.393 14.121 275.422 14.121C275.439 14.0755 275.439 14.0755 275.458 14.0291C275.713 13.4008 276.038 12.7993 276.371 12.2094C276.426 12.1133 276.479 12.0169 276.533 11.9205C277.396 10.3665 277.396 10.3665 278.279 10.6628Z" fill="#FEDE5A"/>
<path d="M253.327 33.4069C253.525 33.5131 253.525 33.5131 253.58 33.6224C253.613 34.1058 253.301 34.6088 253.037 35.0004C252.967 35.0747 252.897 35.1344 252.816 35.1952C252.706 35.2813 252.621 35.3868 252.531 35.4929C252.443 35.5958 252.353 35.6962 252.262 35.7965C252.23 35.8321 252.198 35.8678 252.165 35.9045C252.114 35.9608 252.063 36.0168 252.011 36.0722C251.858 36.2411 251.731 36.4272 251.604 36.616C251.585 36.6433 251.567 36.6707 251.548 36.6988C251.53 36.725 251.513 36.7513 251.495 36.7783C251.479 36.8018 251.464 36.8253 251.447 36.8495C251.405 36.9281 251.385 37.0011 251.366 37.0884C251.339 37.0884 251.311 37.0884 251.283 37.0884C251.272 37.1116 251.261 37.1348 251.249 37.1587C251.086 37.4745 250.875 37.7643 250.665 38.0497C250.558 38.1947 250.453 38.3409 250.349 38.4873C250.331 38.5124 250.313 38.5374 250.294 38.5632C250.219 38.6692 250.144 38.7756 250.072 38.884C250.031 38.884 249.989 38.884 249.947 38.884C249.947 38.9116 249.947 38.9392 249.947 38.9676C249.642 39.1958 249.361 39.215 248.986 39.1764C248.714 39.0829 248.459 38.8937 248.317 38.64C248.216 38.404 248.186 38.1618 248.263 37.9144C248.305 37.8166 248.351 37.7245 248.402 37.6313C248.42 37.5977 248.438 37.5641 248.457 37.5295C248.584 37.3063 248.731 37.1072 248.894 36.9093C248.961 36.827 249.025 36.7445 249.089 36.6594C249.106 36.6358 249.124 36.6121 249.142 36.5878C249.192 36.5206 249.242 36.4532 249.292 36.3858C249.487 36.1411 249.744 35.9532 249.994 35.7677C250.467 35.4144 250.873 35.0067 251.283 34.5829C251.416 34.4458 251.549 34.3093 251.682 34.1731C251.726 34.1271 251.726 34.1271 251.771 34.0802C252.105 33.7399 252.826 33.1901 253.327 33.4069Z" fill="#FDDE5B"/>
<path d="M267.818 38.717C267.818 38.7446 267.818 38.7721 267.818 38.8005C267.866 38.8109 267.866 38.8109 267.914 38.8214C268.079 38.9129 268.106 39.0472 268.157 39.2181C268.168 39.2522 268.178 39.2863 268.189 39.3214C268.357 39.8834 268.407 40.4301 268.432 41.0143C268.434 41.0468 268.435 41.0794 268.437 41.1129C268.439 41.1622 268.439 41.1622 268.441 41.2124C268.463 41.6929 268.524 42.1438 268.637 42.6127C268.751 43.0954 268.816 43.5821 268.88 44.0736C268.886 44.1206 268.886 44.1206 268.893 44.1685C268.904 44.2539 268.915 44.3394 268.926 44.4249C268.941 44.5301 268.96 44.6281 268.987 44.7303C269.025 45.0527 268.946 45.2987 268.764 45.5647C268.596 45.7758 268.409 45.8973 268.152 45.9831C267.84 46.0109 267.565 46.0275 267.302 45.8404C267.101 45.6474 267.025 45.4753 266.959 45.2105C266.951 45.1757 266.942 45.1408 266.933 45.1048C266.791 44.5162 266.722 43.937 266.717 43.3314C266.716 43.2884 266.715 43.2454 266.715 43.2011C266.717 42.9144 266.75 42.6407 266.795 42.3584C266.879 41.8153 266.877 41.2745 266.879 40.726C266.88 40.5956 266.881 40.4651 266.882 40.3347C266.882 40.2958 266.882 40.2568 266.882 40.2167C266.886 39.8465 266.991 39.5304 267.137 39.192C267.155 39.1493 267.173 39.1065 267.192 39.0625C267.206 39.0312 267.219 38.9999 267.233 38.9676C267.261 38.9676 267.288 38.9676 267.317 38.9676C267.329 38.934 267.341 38.9004 267.353 38.8658C267.444 38.659 267.618 38.7138 267.818 38.717Z" fill="#FEDE5B"/>
<path d="M279.324 30.4748C279.361 30.4748 279.399 30.4747 279.437 30.4746C279.661 30.4784 279.868 30.5067 280.086 30.5543C280.427 30.6256 280.785 30.6194 281.133 30.621C281.16 30.6212 281.188 30.6214 281.216 30.6216C281.42 30.621 281.622 30.6091 281.825 30.5955C282.284 30.5664 282.743 30.5617 283.203 30.5594C283.302 30.5587 283.402 30.5575 283.501 30.556C283.647 30.5537 283.794 30.5528 283.94 30.5521C283.984 30.5512 284.028 30.5503 284.073 30.5493C284.424 30.5503 284.675 30.6521 284.959 30.8559C285.143 31.1213 285.186 31.4269 285.149 31.7433C285.092 32.0221 284.93 32.2525 284.732 32.4532C284.588 32.5341 284.588 32.5341 284.44 32.5784C284.369 32.6002 284.369 32.6002 284.297 32.6223C284.057 32.6814 283.816 32.6744 283.57 32.6724C283.521 32.6721 283.471 32.6718 283.419 32.6714C282.804 32.6641 282.237 32.6164 281.651 32.4246C281.228 32.289 280.798 32.2113 280.36 32.1426C278.689 31.8709 278.689 31.8709 278.009 31.3674C277.908 31.2216 277.883 31.1431 277.886 30.9655C277.931 30.8044 277.963 30.7602 278.092 30.6575C278.204 30.6176 278.305 30.5881 278.421 30.5636C278.454 30.5565 278.486 30.5495 278.519 30.5423C278.788 30.4901 279.051 30.4753 279.324 30.4748Z" fill="#FEDE59"/>
<path d="M248.293 16.2923C248.4 16.3338 248.507 16.366 248.618 16.3968C248.781 16.4441 248.925 16.5058 249.074 16.5862C249.156 16.6296 249.156 16.6296 249.256 16.6661C249.361 16.7096 249.444 16.7601 249.537 16.8249C249.801 17.0052 250.064 17.1787 250.364 17.2946C250.518 17.3633 250.67 17.4347 250.822 17.506C250.913 17.5481 251.004 17.5893 251.095 17.6305C251.742 17.926 252.321 18.251 252.828 18.7562C252.859 18.7849 252.89 18.8136 252.922 18.8431C252.995 18.9232 252.995 18.9232 253.018 19.0616C252.989 19.2554 252.942 19.3836 252.786 19.5079C252.613 19.5505 252.446 19.5454 252.269 19.5392C252.22 19.5383 252.172 19.5373 252.121 19.5364C251.738 19.5229 251.424 19.4598 251.074 19.2991C251.034 19.2816 250.993 19.2641 250.952 19.2461C250.804 19.1804 250.659 19.1113 250.513 19.0417C250.112 18.862 249.694 18.7705 249.268 18.6727C249.189 18.6542 249.11 18.6358 249.031 18.6173C248.62 18.5212 248.208 18.4298 247.793 18.3464C246.46 18.0776 246.46 18.0776 246.194 17.7383C246.029 17.4713 245.962 17.2294 246.021 16.9188C246.14 16.5478 246.371 16.3237 246.7 16.128C247.208 15.9839 247.811 16.1006 248.293 16.2923Z" fill="#FEDE5B"/>
<path d="M268.372 6.13439C268.397 6.15167 268.422 6.16895 268.448 6.18675C268.474 6.20446 268.5 6.22217 268.527 6.24042C268.731 6.39518 268.835 6.56887 268.907 6.81314C268.929 6.99818 268.927 7.18039 268.923 7.36644C268.922 7.41798 268.921 7.46952 268.921 7.52262C268.908 8.19638 268.867 8.81424 268.641 9.45293C268.475 9.92882 268.367 10.4102 268.281 10.9055C268.088 12.0132 268.088 12.0132 267.827 12.5054C267.812 12.5332 267.798 12.561 267.783 12.5897C267.527 13.0793 267.527 13.0793 267.362 13.244C267.177 13.2646 267.004 13.2808 266.843 13.1814C266.551 12.7139 266.528 11.9978 266.631 11.4665C266.649 11.3926 266.668 11.3187 266.686 11.2448C266.819 10.6911 266.837 10.1562 266.834 9.58978C266.834 9.55 266.833 9.51021 266.833 9.46922C266.831 9.18064 266.826 8.8921 266.822 8.60355C266.817 8.31213 266.814 8.02072 266.812 7.72927C266.81 7.61396 266.808 7.49871 266.806 7.38342C266.805 7.31267 266.804 7.24192 266.804 7.17117C266.803 7.13971 266.802 7.10826 266.801 7.07585C266.8 6.83993 266.87 6.68143 266.986 6.47906C267 6.45008 267.014 6.4211 267.028 6.39123C267.127 6.2033 267.318 6.10918 267.514 6.04239C267.809 5.97465 268.108 5.97658 268.372 6.13439Z" fill="#FEDE5B"/>
<path d="M283.061 21.8046C283.336 22.015 283.53 22.2725 283.576 22.6209C283.589 22.9695 283.464 23.2595 283.228 23.5167C282.384 24.3102 280.962 24.2728 279.879 24.3624C279.835 24.3661 279.791 24.3698 279.746 24.3736C279.268 24.4135 278.791 24.4437 278.311 24.4531C278.271 24.4545 278.231 24.456 278.19 24.4575C277.996 24.459 277.913 24.4592 277.757 24.3352C277.73 24.2994 277.702 24.2635 277.674 24.2267C277.646 24.1991 277.619 24.1715 277.591 24.1431C277.577 24.0068 277.577 24.0068 277.575 23.8404C277.574 23.7859 277.573 23.7314 277.571 23.6753C277.594 23.4878 277.63 23.4053 277.758 23.2662C278.028 23.1339 278.326 23.0827 278.619 23.0182C279.521 22.8133 280.319 22.5225 281.137 22.0865C282.4 21.4157 282.4 21.4157 283.061 21.8046Z" fill="#FEDE5B"/>
<path d="M259.217 37.2972C259.438 37.3721 259.543 37.4897 259.677 37.673C259.821 38.1072 259.565 38.5186 259.399 38.9136C259.335 39.0683 259.274 39.2237 259.215 39.3799C259.195 39.4306 259.176 39.4814 259.156 39.5336C259 39.9714 258.9 40.4068 258.837 40.8668C258.758 41.4453 258.638 42 258.465 42.5588C258.438 42.5588 258.41 42.5588 258.382 42.5588C258.378 42.5837 258.374 42.6086 258.369 42.6342C258.335 42.7435 258.294 42.783 258.207 42.8564C258.183 42.8772 258.159 42.8979 258.135 42.9193C257.839 43.1139 257.449 43.1049 257.111 43.0405C256.824 42.9457 256.616 42.7565 256.464 42.4988C256.247 42.0145 256.384 41.5326 256.56 41.062C256.643 40.8466 256.734 40.6364 256.837 40.4291C256.872 40.3561 256.872 40.3561 256.908 40.2817C257.019 40.0517 257.129 39.8293 257.286 39.6263C257.38 39.4922 257.452 39.345 257.53 39.2005C257.598 39.0757 257.674 38.9589 257.756 38.8423C257.873 38.6757 257.873 38.6757 257.959 38.4926C258.004 38.3878 258.051 38.3205 258.121 38.2316C258.225 38.0984 258.306 37.9633 258.385 37.814C258.598 37.4112 258.752 37.2585 259.217 37.2972Z" fill="#FEDE5B"/>
<path d="M257.48 8.84971C257.725 8.98735 257.886 9.22012 258.048 9.44396C258.069 9.4728 258.091 9.50164 258.114 9.53136C258.318 9.81046 258.466 10.1028 258.609 10.4175C258.632 10.4689 258.656 10.5204 258.68 10.5719C258.896 11.0475 259.093 11.5318 259.257 12.0284C259.3 12.1561 259.347 12.2815 259.396 12.4071C259.414 12.4535 259.432 12.5 259.45 12.5479C259.488 12.6444 259.525 12.7408 259.563 12.8373C259.878 13.6512 259.878 13.6512 259.843 13.9122C259.741 14.1125 259.626 14.2278 259.426 14.3298C259.223 14.3839 259.021 14.4007 258.828 14.3011C258.547 14.0815 258.406 13.7143 258.255 13.4024C258.123 13.1401 257.962 12.895 257.803 12.6489C257.762 12.5853 257.721 12.5214 257.68 12.4575C257.591 12.3185 257.504 12.1927 257.385 12.0774C257.356 12.049 257.326 12.0205 257.296 11.9913C257.296 11.9637 257.296 11.9361 257.296 11.9077C257.255 11.894 257.213 11.8802 257.171 11.866C257.106 11.802 257.106 11.802 257.038 11.7198C257.012 11.6901 256.987 11.6603 256.961 11.6296C256.934 11.5974 256.907 11.5651 256.878 11.5319C256.819 11.463 256.759 11.3942 256.698 11.3257C256.671 11.2943 256.644 11.263 256.615 11.2306C256.549 11.1525 256.549 11.1525 256.461 11.1143C256.44 11.0523 256.44 11.0523 256.419 10.989C256.378 10.9615 256.336 10.9339 256.294 10.9055C256.25 10.837 256.209 10.7671 256.169 10.6967C256.104 10.6001 256.038 10.5039 255.972 10.408C255.83 10.1798 255.859 9.91229 255.876 9.65275C255.999 9.29719 256.269 9.08153 256.586 8.90109C256.855 8.77029 257.195 8.75877 257.48 8.84971Z" fill="#FDDE5B"/>
<path d="M248.865 25.3778C248.943 25.3776 249.021 25.3774 249.098 25.3771C249.259 25.3768 249.421 25.3769 249.582 25.3773C249.788 25.3778 249.994 25.3769 250.2 25.3757C250.359 25.3749 250.519 25.3749 250.679 25.3752C250.755 25.3752 250.831 25.3749 250.907 25.3744C251.013 25.3738 251.119 25.3742 251.225 25.3749C251.255 25.3745 251.286 25.3741 251.318 25.3737C251.579 25.3774 251.802 25.4592 251.993 25.6417C252.092 25.8445 252.074 26.1111 252.007 26.3229C251.914 26.5025 251.791 26.5939 251.618 26.6904C251.489 26.7255 251.36 26.7424 251.227 26.7589C251.149 26.7699 251.072 26.781 250.994 26.792C250.953 26.7976 250.913 26.8031 250.871 26.8088C250.189 26.9037 249.543 27.015 248.9 27.2693C248.76 27.3243 248.618 27.3762 248.477 27.4279C248.24 27.5147 248.003 27.6027 247.767 27.6919C247.414 27.8213 247.038 27.9087 246.668 27.7814C246.403 27.6258 246.181 27.3779 246.084 27.0847C246.018 26.7379 246.019 26.3633 246.203 26.0544C246.234 26.014 246.234 26.014 246.265 25.9727C246.285 25.9454 246.305 25.9181 246.326 25.89C246.846 25.3395 248.164 25.3763 248.865 25.3778Z" fill="#FDDE5B"/>
<path d="M274.123 37.3807C274.232 37.473 274.232 37.473 274.332 37.5895C274.363 37.6237 274.394 37.6579 274.426 37.6931C274.459 37.7304 274.493 37.7677 274.527 37.8061C275.193 38.5342 275.873 39.1325 276.715 39.6463C276.925 39.7757 277.125 39.9161 277.323 40.0637C277.35 40.0839 277.377 40.1041 277.405 40.1249C277.712 40.3581 277.962 40.5739 278.018 40.9723C278.033 41.2812 277.896 41.5394 277.756 41.8072C277.728 41.8072 277.701 41.8072 277.672 41.8072C277.662 41.832 277.652 41.8568 277.642 41.8824C277.577 41.9937 277.511 42.0383 277.403 42.1073C277.371 42.1286 277.338 42.1498 277.304 42.1717C277.149 42.2618 277.022 42.2743 276.845 42.277C276.802 42.278 276.76 42.2791 276.716 42.2802C276.207 42.2264 275.739 41.6673 275.43 41.2878C275.326 41.1559 275.225 41.0222 275.125 40.8875C275.103 40.858 275.081 40.8284 275.058 40.798C275.015 40.7395 274.972 40.6809 274.929 40.6221C274.809 40.4607 274.684 40.3199 274.54 40.1786C274.5 40.1084 274.46 40.0382 274.421 39.9669C274.367 39.8758 274.306 39.7959 274.24 39.713C274.086 39.5179 273.938 39.3192 273.791 39.1189C273.753 39.0672 273.753 39.0672 273.715 39.0145C273.665 38.9463 273.615 38.8782 273.565 38.81C273.505 38.7291 273.446 38.6485 273.386 38.5679C273.356 38.5275 273.326 38.4872 273.295 38.4456C273.27 38.4115 273.245 38.3775 273.219 38.3425C273.109 38.1778 273.101 38.0337 273.121 37.8401C273.32 37.4288 273.682 37.2918 274.123 37.3807Z" fill="#FDDE5B"/>
</svg>
