<svg width="138" height="108" viewBox="0 0 138 108" fill="none" xmlns="http://www.w3.org/2000/svg">
<path d="M12.96 11.896C14.4107 11.896 15.5947 12.0987 16.512 12.504C17.4293 12.9093 18.2507 13.4 18.976 13.976C19.232 14.168 19.4453 14.264 19.616 14.264C20.0213 14.264 20.288 13.624 20.416 12.344H21.152C21.1093 13.176 21.0773 14.1893 21.056 15.384C21.0347 16.5573 21.024 18.1253 21.024 20.088H20.288C20.1387 18.808 19.904 17.6987 19.584 16.76C19.2853 15.8 18.72 14.9787 17.888 14.296C17.376 13.8053 16.736 13.4213 15.968 13.144C15.2213 12.8667 14.464 12.728 13.696 12.728C12.5227 12.728 11.52 13.0373 10.688 13.656C9.856 14.2533 9.17333 15.0747 8.64 16.12C8.10667 17.1653 7.712 18.3493 7.456 19.672C7.2 20.9733 7.072 22.328 7.072 23.736C7.072 27.576 7.59467 30.3813 8.64 32.152C9.70667 33.9227 11.232 34.808 13.216 34.808C13.728 34.808 14.176 34.744 14.56 34.616C14.944 34.488 15.2533 34.3387 15.488 34.168C15.7867 33.9547 15.9893 33.7307 16.096 33.496C16.2027 33.24 16.256 32.9093 16.256 32.504V29.368C16.256 28.3867 16.1707 27.6613 16 27.192C15.8507 26.7013 15.5413 26.3707 15.072 26.2C14.6027 26.0293 13.92 25.9333 13.024 25.912V25.272C13.472 25.2933 14.0053 25.3147 14.624 25.336C15.264 25.336 15.9253 25.3467 16.608 25.368C17.2907 25.368 17.92 25.368 18.496 25.368C19.392 25.368 20.2133 25.3573 20.96 25.336C21.7067 25.3147 22.3147 25.2933 22.784 25.272V25.912C22.3787 25.9333 22.0693 26.008 21.856 26.136C21.664 26.264 21.5253 26.52 21.44 26.904C21.376 27.288 21.344 27.8747 21.344 28.664V35H20.704C20.6827 34.6373 20.5973 34.2427 20.448 33.816C20.32 33.3893 20.096 33.176 19.776 33.176C19.6267 33.176 19.424 33.2187 19.168 33.304C18.9333 33.368 18.56 33.5493 18.048 33.848C17.2587 34.296 16.4267 34.68 15.552 35C14.6773 35.2987 13.76 35.448 12.8 35.448C10.3253 35.448 8.23467 34.9893 6.528 34.072C4.82133 33.1547 3.53067 31.8427 2.656 30.136C1.80267 28.408 1.376 26.3387 1.376 23.928C1.376 21.496 1.86667 19.384 2.848 17.592C3.85067 15.8 5.216 14.4027 6.944 13.4C8.69333 12.3973 10.6987 11.896 12.96 11.896ZM41.4885 12.28L49.2645 32.312C49.5632 33.08 49.8938 33.6133 50.2565 33.912C50.6405 34.1893 50.9818 34.3387 51.2805 34.36V35C50.6405 34.9573 49.8832 34.936 49.0085 34.936C48.1552 34.9147 47.2912 34.904 46.4165 34.904C45.4352 34.904 44.5072 34.9147 43.6325 34.936C42.7578 34.936 42.0645 34.9573 41.5525 35V34.36C42.6405 34.3173 43.3232 34.136 43.6005 33.816C43.8992 33.4747 43.8352 32.76 43.4085 31.672L37.9685 16.792L38.5445 15.96L33.6805 28.632C33.2112 29.8053 32.9232 30.7653 32.8165 31.512C32.7312 32.2587 32.7845 32.8347 32.9765 33.24C33.1898 33.6453 33.5205 33.9333 33.9685 34.104C34.4378 34.2533 34.9925 34.3387 35.6325 34.36V35C34.9285 34.9573 34.2565 34.936 33.6165 34.936C32.9765 34.9147 32.3258 34.904 31.6645 34.904C31.1952 34.904 30.7472 34.9147 30.3205 34.936C29.9152 34.936 29.5525 34.9573 29.2325 35V34.36C29.6805 34.2747 30.1392 33.9867 30.6085 33.496C31.0778 33.0053 31.5365 32.1733 31.9845 31L39.2805 12.28C39.6218 12.3013 39.9845 12.312 40.3685 12.312C40.7738 12.312 41.1472 12.3013 41.4885 12.28ZM43.7285 25.784V26.424H34.1925L34.5125 25.784H43.7285ZM57.9192 12.344C58.4526 12.3653 59.1672 12.3867 60.0632 12.408C60.9806 12.4293 61.8872 12.44 62.7832 12.44C63.8072 12.44 64.7992 12.4293 65.7592 12.408C66.7192 12.3867 67.4019 12.376 67.8073 12.376C69.7912 12.376 71.4339 12.6 72.7352 13.048C74.0579 13.4747 75.0393 14.104 75.6793 14.936C76.3406 15.768 76.6712 16.7707 76.6712 17.944C76.6712 18.6693 76.5219 19.4053 76.2232 20.152C75.9246 20.8773 75.4126 21.56 74.6873 22.2C73.9833 22.8187 73.0126 23.32 71.7752 23.704C70.5379 24.0667 68.9806 24.248 67.1032 24.248H64.0312V23.608H66.7832C68.0419 23.608 68.9912 23.3733 69.6312 22.904C70.2926 22.4133 70.7406 21.7733 70.9753 20.984C71.2313 20.1733 71.3593 19.2773 71.3593 18.296C71.3593 16.6107 71.0606 15.3093 70.4633 14.392C69.8659 13.4533 68.8419 12.984 67.3912 12.984C66.5592 12.984 66.0152 13.1653 65.7592 13.528C65.5246 13.8907 65.4072 14.6267 65.4072 15.736V31.608C65.4072 32.376 65.4606 32.952 65.5672 33.336C65.6952 33.72 65.9299 33.976 66.2712 34.104C66.6126 34.232 67.1246 34.3173 67.8073 34.36V35C67.2312 34.9573 66.5059 34.936 65.6312 34.936C64.7566 34.9147 63.8712 34.904 62.9752 34.904C61.9512 34.904 60.9806 34.9147 60.0632 34.936C59.1672 34.936 58.4526 34.9573 57.9192 35V34.36C58.6019 34.3173 59.1139 34.232 59.4552 34.104C59.7966 33.976 60.0206 33.72 60.1272 33.336C60.2552 32.952 60.3192 32.376 60.3192 31.608V15.736C60.3192 14.9467 60.2552 14.3707 60.1272 14.008C60.0206 13.624 59.7859 13.368 59.4232 13.24C59.0819 13.0907 58.5806 13.0053 57.9192 12.984V12.344ZM63.9672 23.704C64.8846 23.7253 65.6739 23.768 66.3352 23.832C67.0179 23.896 67.6152 23.96 68.1272 24.024C68.6392 24.0667 69.0979 24.0987 69.5033 24.12C71.4446 24.2907 72.8739 24.7067 73.7913 25.368C74.7299 26.0293 75.3379 27.0213 75.6152 28.344L76.3512 31.64C76.5432 32.4933 76.7459 33.0907 76.9592 33.432C77.1726 33.7733 77.4819 33.944 77.8873 33.944C78.1646 33.9227 78.3886 33.8587 78.5592 33.752C78.7512 33.624 78.9539 33.4427 79.1672 33.208L79.6152 33.592C79.0393 34.2533 78.4206 34.7227 77.7593 35C77.0979 35.2987 76.2979 35.448 75.3593 35.448C74.2073 35.448 73.2579 35.2027 72.5112 34.712C71.7646 34.2213 71.2739 33.3147 71.0393 31.992L70.4633 28.792C70.3139 27.896 70.1326 27.1173 69.9192 26.456C69.7059 25.7733 69.4072 25.24 69.0232 24.856C68.6606 24.4507 68.1486 24.248 67.4872 24.248H64.0312L63.9672 23.704ZM96.3635 12.344C100.566 12.344 103.691 13.304 105.739 15.224C107.787 17.1227 108.811 19.8533 108.811 23.416C108.811 25.7413 108.31 27.7787 107.307 29.528C106.305 31.256 104.843 32.6 102.923 33.56C101.025 34.52 98.7422 35 96.0755 35C95.7342 35 95.2862 34.9893 94.7315 34.968C94.1768 34.9467 93.6008 34.936 93.0035 34.936C92.4062 34.9147 91.8728 34.904 91.4035 34.904C90.4648 34.904 89.5368 34.9147 88.6195 34.936C87.7235 34.936 87.0088 34.9573 86.4755 35V34.36C87.1582 34.3173 87.6702 34.232 88.0115 34.104C88.3528 33.976 88.5768 33.72 88.6835 33.336C88.8115 32.952 88.8755 32.376 88.8755 31.608V15.736C88.8755 14.9467 88.8115 14.3707 88.6835 14.008C88.5768 13.624 88.3422 13.368 87.9795 13.24C87.6382 13.0907 87.1368 13.0053 86.4755 12.984V12.344C87.0088 12.3653 87.7235 12.3973 88.6195 12.44C89.5368 12.4613 90.4435 12.4613 91.3395 12.44C92.1075 12.4187 92.9715 12.3973 93.9315 12.376C94.9128 12.3547 95.7235 12.344 96.3635 12.344ZM96.3315 12.92C95.3502 12.92 94.7102 13.1013 94.4115 13.464C94.1128 13.8267 93.9635 14.5627 93.9635 15.672V31.672C93.9635 32.7813 94.1128 33.5173 94.4115 33.88C94.7315 34.2427 95.3822 34.424 96.3635 34.424C98.1555 34.424 99.5635 34.008 100.587 33.176C101.633 32.3227 102.379 31.0853 102.827 29.464C103.275 27.8427 103.499 25.8693 103.499 23.544C103.499 21.1547 103.254 19.1813 102.763 17.624C102.294 16.0453 101.537 14.872 100.491 14.104C99.4462 13.3147 98.0595 12.92 96.3315 12.92ZM127.438 12.28L135.214 32.312C135.513 33.08 135.844 33.6133 136.206 33.912C136.59 34.1893 136.932 34.3387 137.23 34.36V35C136.59 34.9573 135.833 34.936 134.958 34.936C134.105 34.9147 133.241 34.904 132.366 34.904C131.385 34.904 130.457 34.9147 129.582 34.936C128.708 34.936 128.014 34.9573 127.502 35V34.36C128.59 34.3173 129.273 34.136 129.55 33.816C129.849 33.4747 129.785 32.76 129.358 31.672L123.918 16.792L124.494 15.96L119.63 28.632C119.161 29.8053 118.873 30.7653 118.766 31.512C118.681 32.2587 118.734 32.8347 118.926 33.24C119.14 33.6453 119.47 33.9333 119.918 34.104C120.388 34.2533 120.942 34.3387 121.582 34.36V35C120.878 34.9573 120.206 34.936 119.566 34.936C118.926 34.9147 118.276 34.904 117.614 34.904C117.145 34.904 116.697 34.9147 116.27 34.936C115.865 34.936 115.502 34.9573 115.182 35V34.36C115.63 34.2747 116.089 33.9867 116.558 33.496C117.028 33.0053 117.486 32.1733 117.934 31L125.23 12.28C125.572 12.3013 125.934 12.312 126.318 12.312C126.724 12.312 127.097 12.3013 127.438 12.28ZM129.678 25.784V26.424H120.142L120.462 25.784H129.678Z" fill="white"/>
<path d="M3.72777 50V44.1818H7.45504V45.0653H4.78175V46.6449H7.19936V47.5284H4.78175V50H3.72777ZM11.6359 50H10.5109L12.5592 44.1818H13.8603L15.9114 50H14.7864L13.2325 45.375H13.187L11.6359 50ZM11.6728 47.7188H14.741V48.5653H11.6728V47.7188ZM19.8778 44.1818H21.1675L22.8948 48.3977H22.963L24.6903 44.1818H25.98V50H24.9687V46.0028H24.9147L23.3067 49.983H22.5511L20.9431 45.9943H20.8891V50H19.8778V44.1818ZM31.3817 44.1818V50H30.3278V44.1818H31.3817ZM35.7231 50V44.1818H36.7771V49.1165H39.3396V50H35.7231ZM42.4707 44.1818H43.661L45.0843 46.7557H45.1411L46.5644 44.1818H47.7548L45.6383 47.8295V50H44.5871V47.8295L42.4707 44.1818ZM58.5788 50.0852C58.181 50.0852 57.8392 50.0133 57.5532 49.8693C57.2672 49.7254 57.0466 49.5312 56.8913 49.2869C56.7379 49.0407 56.6612 48.7633 56.6612 48.4545C56.6612 48.2216 56.7085 48.0152 56.8032 47.8352C56.8998 47.6553 57.0324 47.4886 57.2009 47.3352C57.3714 47.1818 57.5684 47.0294 57.7918 46.8778L58.8231 46.1761C58.9746 46.0777 59.0892 45.9735 59.1668 45.8636C59.2464 45.7538 59.2862 45.625 59.2862 45.4773C59.2862 45.3523 59.2331 45.2339 59.1271 45.1222C59.0229 45.0104 58.879 44.9545 58.6952 44.9545C58.5721 44.9545 58.4632 44.9839 58.3685 45.0426C58.2757 45.0994 58.2028 45.1742 58.1498 45.267C58.0987 45.3598 58.0731 45.4583 58.0731 45.5625C58.0731 45.6894 58.1081 45.8182 58.1782 45.9489C58.2502 46.0795 58.343 46.215 58.4566 46.3551C58.5721 46.4953 58.6952 46.6439 58.8259 46.8011L61.556 50H60.4424L58.1754 47.4034C58.0068 47.2064 57.8439 47.0123 57.6867 46.821C57.5314 46.6297 57.4036 46.4309 57.3032 46.2244C57.2047 46.0161 57.1555 45.7907 57.1555 45.5483C57.1555 45.2737 57.2189 45.0284 57.3458 44.8125C57.4727 44.5947 57.6498 44.4233 57.8771 44.2983C58.1062 44.1733 58.3742 44.1108 58.681 44.1108C58.9879 44.1108 59.2511 44.1714 59.4708 44.2926C59.6905 44.4138 59.86 44.5748 59.9793 44.7756C60.0987 44.9763 60.1583 45.1951 60.1583 45.4318C60.1583 45.7064 60.0901 45.9527 59.9538 46.1705C59.8174 46.3864 59.628 46.5824 59.3856 46.7585L58.2094 47.6193C58.0163 47.7595 57.878 47.9015 57.7947 48.0455C57.7113 48.1875 57.6697 48.3087 57.6697 48.4091C57.6697 48.5625 57.7085 48.7017 57.7862 48.8267C57.8638 48.9517 57.9727 49.0521 58.1129 49.1278C58.2549 49.2017 58.4206 49.2386 58.61 49.2386C58.8184 49.2386 59.0238 49.1922 59.2265 49.0994C59.4291 49.0047 59.6138 48.8703 59.7805 48.696C59.9471 48.5218 60.0797 48.3134 60.1782 48.071C60.2767 47.8267 60.3259 47.5559 60.3259 47.2585H61.2094C61.2094 47.6259 61.1687 47.946 61.0873 48.2188C61.0059 48.4896 60.9007 48.7188 60.7719 48.9062C60.6432 49.0919 60.5068 49.2405 60.3629 49.3523C60.3174 49.3845 60.2738 49.4167 60.2322 49.4489C60.1905 49.4811 60.1469 49.5133 60.1015 49.5455C59.8969 49.7311 59.6574 49.8674 59.3827 49.9545C59.11 50.0417 58.842 50.0852 58.5788 50.0852ZM73.7366 45.7812C73.7101 45.5331 73.5983 45.34 73.4014 45.2017C73.2063 45.0634 72.9525 44.9943 72.64 44.9943C72.4203 44.9943 72.2318 45.0275 72.0746 45.0938C71.9175 45.16 71.7972 45.25 71.7139 45.3636C71.6305 45.4773 71.5879 45.607 71.586 45.7528C71.586 45.8741 71.6135 45.9792 71.6684 46.0682C71.7252 46.1572 71.8019 46.233 71.8985 46.2955C71.9951 46.3561 72.1021 46.4072 72.2195 46.4489C72.337 46.4905 72.4553 46.5256 72.5746 46.554L73.1201 46.6903C73.3398 46.7415 73.551 46.8106 73.7536 46.8977C73.9582 46.9848 74.1409 47.0947 74.3019 47.2273C74.4648 47.3598 74.5936 47.5199 74.6883 47.7074C74.783 47.8949 74.8303 48.1146 74.8303 48.3665C74.8303 48.7074 74.7432 49.0076 74.569 49.267C74.3947 49.5246 74.1428 49.7263 73.8133 49.8722C73.4856 50.0161 73.0889 50.0881 72.6229 50.0881C72.1703 50.0881 71.7773 50.018 71.444 49.8778C71.1125 49.7377 70.8531 49.5331 70.6656 49.2642C70.48 48.9953 70.3796 48.6676 70.3644 48.2812H71.4014C71.4165 48.4839 71.479 48.6525 71.5889 48.7869C71.6987 48.9214 71.8417 49.0218 72.0178 49.0881C72.1959 49.1544 72.3947 49.1875 72.6144 49.1875C72.8436 49.1875 73.0443 49.1534 73.2167 49.0852C73.3909 49.0152 73.5273 48.9186 73.6258 48.7955C73.7243 48.6705 73.7745 48.5246 73.7764 48.358C73.7745 48.2064 73.73 48.0814 73.6428 47.983C73.5557 47.8826 73.4336 47.7992 73.2764 47.733C73.1211 47.6648 72.9392 47.6042 72.7309 47.5511L72.069 47.3807C71.5898 47.2576 71.211 47.071 70.9326 46.821C70.6561 46.5691 70.5178 46.2348 70.5178 45.8182C70.5178 45.4754 70.6106 45.1752 70.7962 44.9176C70.9837 44.66 71.2385 44.4602 71.5604 44.3182C71.8824 44.1742 72.247 44.1023 72.6542 44.1023C73.0671 44.1023 73.4288 44.1742 73.7394 44.3182C74.0519 44.4602 74.2972 44.6581 74.4752 44.9119C74.6532 45.1638 74.7451 45.4536 74.7508 45.7812H73.7366ZM84.1688 47.0909C84.1688 47.7178 84.0514 48.2547 83.8165 48.7017C83.5836 49.1468 83.2654 49.4877 82.862 49.7244C82.4605 49.9612 82.005 50.0795 81.4955 50.0795C80.9861 50.0795 80.5296 49.9612 80.1262 49.7244C79.7247 49.4858 79.4065 49.1439 79.1717 48.6989C78.9387 48.2519 78.8222 47.7159 78.8222 47.0909C78.8222 46.464 78.9387 45.928 79.1717 45.483C79.4065 45.036 79.7247 44.6941 80.1262 44.4574C80.5296 44.2206 80.9861 44.1023 81.4955 44.1023C82.005 44.1023 82.4605 44.2206 82.862 44.4574C83.2654 44.6941 83.5836 45.036 83.8165 45.483C84.0514 45.928 84.1688 46.464 84.1688 47.0909ZM83.1092 47.0909C83.1092 46.6496 83.04 46.2775 82.9018 45.9744C82.7654 45.6695 82.576 45.4394 82.3336 45.2841C82.0912 45.1269 81.8118 45.0483 81.4955 45.0483C81.1792 45.0483 80.8999 45.1269 80.6575 45.2841C80.415 45.4394 80.2247 45.6695 80.0864 45.9744C79.9501 46.2775 79.8819 46.6496 79.8819 47.0909C79.8819 47.5322 79.9501 47.9053 80.0864 48.2102C80.2247 48.5133 80.415 48.7434 80.6575 48.9006C80.8999 49.0559 81.1792 49.1335 81.4955 49.1335C81.8118 49.1335 82.0912 49.0559 82.3336 48.9006C82.576 48.7434 82.7654 48.5133 82.9018 48.2102C83.04 47.9053 83.1092 47.5322 83.1092 47.0909ZM88.3653 50V44.1818H89.4192V49.1165H91.9817V50H88.3653ZM97.0624 50H95.9374L97.9857 44.1818H99.2869L101.338 50H100.213L98.659 45.375H98.6136L97.0624 50ZM97.0994 47.7188H100.168V48.5653H97.0994V47.7188ZM105.304 50V44.1818H107.486C107.933 44.1818 108.308 44.2595 108.611 44.4148C108.916 44.5701 109.146 44.7879 109.301 45.0682C109.459 45.3466 109.537 45.6714 109.537 46.0426C109.537 46.4157 109.458 46.7396 109.299 47.0142C109.141 47.2869 108.909 47.4981 108.603 47.6477C108.296 47.7955 107.919 47.8693 107.472 47.8693H105.918V46.9943H107.33C107.591 46.9943 107.805 46.9583 107.972 46.8864C108.139 46.8125 108.262 46.7055 108.341 46.5653C108.423 46.4233 108.463 46.2491 108.463 46.0426C108.463 45.8362 108.423 45.66 108.341 45.5142C108.26 45.3665 108.136 45.2547 107.969 45.179C107.802 45.1013 107.587 45.0625 107.324 45.0625H106.358V50H105.304ZM108.31 47.3636L109.75 50H108.574L107.159 47.3636H108.31ZM114.761 44.1818V50H113.707V44.1818H114.761ZM122.77 44.1818H123.824V47.983C123.824 48.3996 123.726 48.7661 123.529 49.0824C123.334 49.3987 123.059 49.6458 122.705 49.8239C122.351 50 121.937 50.0881 121.464 50.0881C120.988 50.0881 120.573 50 120.219 49.8239C119.865 49.6458 119.59 49.3987 119.395 49.0824C119.2 48.7661 119.103 48.3996 119.103 47.983V44.1818H120.157V47.8949C120.157 48.1373 120.21 48.3532 120.316 48.5426C120.424 48.732 120.575 48.8807 120.77 48.9886C120.965 49.0947 121.197 49.1477 121.464 49.1477C121.731 49.1477 121.962 49.0947 122.157 48.9886C122.354 48.8807 122.505 48.732 122.611 48.5426C122.717 48.3532 122.77 48.1373 122.77 47.8949V44.1818ZM128.17 44.1818H129.46L131.187 48.3977H131.255L132.982 44.1818H134.272V50H133.261V46.0028H133.207L131.599 49.983H130.843L129.235 45.9943H129.181V50H128.17V44.1818Z" fill="white"/>
<path d="M30.8642 88.7047C30.9758 88.7045 31.0873 88.704 31.1988 88.7032C31.9398 88.6977 32.6596 88.7302 33.3957 88.8238C33.4641 88.8321 33.5324 88.8404 33.6008 88.8487C34.9452 89.0119 36.4827 89.4948 37.515 90.4053C37.545 90.4314 37.575 90.4574 37.6059 90.4842C37.6996 90.5669 37.7914 90.6511 37.8828 90.7363C37.9135 90.7647 37.9443 90.793 37.976 90.8222C38.8349 91.6427 39.404 92.9786 39.4334 94.1668C39.4341 94.225 39.4346 94.2832 39.4349 94.3414C39.4352 94.3887 39.4352 94.3887 39.4356 94.4369C39.4359 94.5036 39.4362 94.5703 39.4363 94.637C39.4366 94.7366 39.4378 94.8363 39.439 94.9359C39.4423 95.4791 39.3835 96.0015 39.2298 96.5244C39.2219 96.5518 39.214 96.5792 39.2058 96.6075C39.1368 96.8407 39.0545 97.0634 38.9493 97.283C38.9384 97.306 38.9274 97.3291 38.9161 97.3528C38.3046 98.6189 37.2685 99.5039 35.956 99.9931C34.9033 100.359 33.6656 100.339 32.6523 99.8554C32.3701 99.7109 32.0914 99.5504 31.851 99.3426C31.7962 99.2956 31.7962 99.2956 31.7403 99.2478C31.0734 98.6631 30.6436 97.9149 30.402 97.064C30.3816 96.9946 30.358 96.9263 30.334 96.8581C30.0862 96.0734 30.1531 95.0598 30.5145 94.325C30.5389 94.2781 30.5389 94.2781 30.5638 94.2303C30.5804 94.1972 30.597 94.164 30.6142 94.1299C30.7844 93.8028 30.9878 93.4863 31.2626 93.2373C31.2218 93.4296 31.176 93.6192 31.1227 93.8084C30.7969 94.9796 30.743 96.2367 31.3453 97.3312C31.4852 97.5763 31.6501 97.7828 31.851 97.9818C31.8829 98.0151 31.9147 98.0485 31.9476 98.0829C31.9764 98.1102 32.0052 98.1375 32.0349 98.1657C32.0515 98.182 32.068 98.1984 32.0851 98.2152C32.6803 98.7691 33.5614 99.0443 34.3625 99.0183C34.4076 99.0161 34.4526 99.0139 34.4991 99.0116C34.5377 99.0112 34.5764 99.0109 34.6162 99.0106C35.3527 98.9871 36.0905 98.6559 36.6323 98.1657C36.6597 98.1412 36.6871 98.1168 36.7153 98.0917C37.4324 97.4158 37.8061 96.4314 37.8523 95.457C37.8848 94.3428 37.7835 93.3193 37.0368 92.4282C37.0137 92.398 36.9906 92.3678 36.9667 92.3366C36.5598 91.8484 35.9292 91.5119 35.345 91.288C35.3143 91.276 35.2836 91.2639 35.252 91.2515C34.6934 91.035 34.135 90.8979 33.5429 90.8099C33.5028 90.8039 33.4627 90.7979 33.4214 90.7916C32.5108 90.6623 31.5914 90.6847 30.6741 90.6996C30.6258 90.7003 30.5775 90.7011 30.5277 90.7019C29.0787 90.7308 27.6185 90.9468 26.1939 91.2002C26.1067 91.2157 26.0195 91.2311 25.9323 91.2465C25.2323 91.3705 24.5336 91.4993 23.8371 91.6418C21.8931 92.039 19.9343 92.2502 17.9527 92.3308C17.9203 92.3322 17.8879 92.3335 17.8545 92.3349C17.7941 92.3374 17.7338 92.3398 17.6734 92.342C17.6325 92.3437 17.6325 92.3437 17.5907 92.3454C17.5674 92.3463 17.544 92.3472 17.52 92.3481C17.4449 92.3538 17.3701 92.3632 17.2955 92.3732C17.1436 92.3927 16.9929 92.3968 16.8399 92.3967C16.8114 92.3968 16.7829 92.397 16.7535 92.3971C16.6594 92.3974 16.5654 92.3975 16.4713 92.3976C16.4045 92.3977 16.3376 92.3979 16.2707 92.398C16.0554 92.3984 15.84 92.3984 15.6247 92.3983C15.5508 92.3983 15.4769 92.3983 15.403 92.3983C14.282 92.398 13.1638 92.3826 12.0441 92.3226C11.9601 92.3182 11.8761 92.314 11.7921 92.3101C10.3644 92.2424 8.93336 92.1024 7.51997 91.89C7.42278 91.8754 7.32556 91.8611 7.22833 91.8469C6.43463 91.7302 5.64664 91.6055 4.8645 91.4253C4.73777 91.3967 4.61076 91.3698 4.48357 91.3433C3.94084 91.2303 3.40354 91.1052 2.86932 90.957C2.8335 90.9471 2.79769 90.9372 2.76078 90.927C2.04792 90.7284 1.35363 90.4862 0.660295 90.2283C0.623315 90.2146 0.586335 90.2009 0.548234 90.1868C0.37262 90.1207 0.20288 90.0525 0.0373535 89.964C0.156623 89.9265 0.248532 89.9284 0.372098 89.9439C0.409893 89.9484 0.447688 89.9529 0.486628 89.9576C0.528008 89.9627 0.569388 89.9679 0.612022 89.9732C0.937535 90.0118 1.26267 90.0457 1.58943 90.0717C2.19475 90.1201 2.79578 90.1921 3.39802 90.2697C4.45724 90.4059 5.5184 90.5147 6.58153 90.6153C6.682 90.6248 6.78244 90.6345 6.88288 90.6444C7.5502 90.7096 8.21802 90.7557 8.88726 90.7961C8.92545 90.7984 8.96365 90.8007 9.00301 90.8031C9.2275 90.8165 9.45203 90.8291 9.67662 90.841C9.74483 90.8446 9.81304 90.8484 9.88124 90.8523C10.7097 90.8997 11.5402 90.8908 12.3697 90.8903C12.4091 90.8903 12.4484 90.8903 12.4889 90.8903C13.6848 90.8902 14.8789 90.8853 16.0729 90.8099C16.1199 90.807 16.1199 90.807 16.1679 90.804C16.5858 90.7775 17.003 90.7443 17.4201 90.7072C17.5083 90.6995 17.5965 90.6922 17.6848 90.685C18.4612 90.6214 19.2295 90.5268 19.9991 90.4053C20.0381 90.3992 20.0771 90.393 20.1173 90.3867C20.6061 90.3089 21.0927 90.2223 21.5784 90.1275C21.702 90.1036 21.8256 90.0806 21.9493 90.0575C22.6064 89.9337 23.2565 89.7889 23.9068 89.633C25.4361 89.2664 26.9749 88.9826 28.5386 88.8123C28.5797 88.8078 28.5797 88.8078 28.6217 88.8033C29.3694 88.7225 30.1129 88.7056 30.8642 88.7047Z" fill="white"/>
<path d="M21.8464 74.8479C21.8714 74.8544 21.8964 74.8609 21.9222 74.8676C22.5349 75.0285 23.1252 75.3015 23.6486 75.657C23.6803 75.6784 23.6803 75.6784 23.7126 75.7003C23.9736 75.8777 24.2181 76.0637 24.4492 76.2794C24.5246 76.3496 24.6019 76.416 24.6807 76.4822C25.9565 77.5998 26.7516 79.3947 26.8851 81.0635C26.8947 81.241 26.8958 81.4184 26.8947 81.5961C26.8943 81.6728 26.8947 81.7494 26.8952 81.826C26.8955 82.1664 26.8646 82.4921 26.8116 82.8289C26.8044 82.8785 26.8044 82.8785 26.7971 82.929C26.5654 84.4876 25.7855 85.9776 24.5313 86.9481C24.498 86.9758 24.4648 87.0036 24.4306 87.0322C22.7203 88.4253 20.1512 89.1348 17.9863 89.3136C17.8283 89.3269 17.6742 89.3471 17.518 89.3751C17.2654 89.4187 17.0128 89.4357 16.7572 89.4514C16.6672 89.4571 16.5773 89.4629 16.4874 89.4688C16.4482 89.4712 16.409 89.4736 16.3686 89.4761C16.2577 89.4839 16.2577 89.4839 16.1563 89.504C15.9828 89.5307 15.8098 89.5364 15.6345 89.5429C15.5933 89.5444 15.5521 89.546 15.5096 89.5475C14.9447 89.5664 14.3797 89.5663 13.8146 89.5662C13.6864 89.5662 13.5583 89.5665 13.4302 89.567C12.6448 89.57 11.8661 89.5543 11.0828 89.495C10.9603 89.4859 10.8378 89.4776 10.7152 89.4697C8.90663 89.3517 7.09287 89.0807 5.32355 88.6928C5.2917 88.6858 5.25986 88.6788 5.22705 88.6717C4.50752 88.5133 3.79689 88.3303 3.08924 88.125C3.06274 88.1174 3.03624 88.1098 3.00894 88.102C1.92669 87.7855 0.906509 87.2055 -0.000183105 86.5435C0.101446 86.4927 0.14971 86.5194 0.259118 86.5475C0.297973 86.5574 0.33683 86.5672 0.376863 86.5773C0.419227 86.5883 0.46159 86.5993 0.505238 86.6106C0.549105 86.6218 0.59297 86.6329 0.638166 86.6444C0.779442 86.6802 0.920631 86.7165 1.0618 86.7527C1.63366 86.8993 2.20365 87.0433 2.78393 87.1526C2.92814 87.1802 3.07187 87.2101 3.21566 87.2398C4.82956 87.5699 6.45829 87.85 8.10265 87.971C8.13125 87.9731 8.15986 87.9752 8.18933 87.9774C8.38943 87.9918 8.58962 88.0039 8.78995 88.0147C8.82197 88.0164 8.85399 88.0182 8.88699 88.0199C9.53559 88.0537 10.1841 88.0604 10.8335 88.0607C10.8732 88.0607 10.8732 88.0607 10.9138 88.0608C11.9634 88.0616 13.0073 88.0221 14.0545 87.9485C14.1529 87.9416 14.2513 87.9351 14.3497 87.9286C15.9828 87.8213 17.6122 87.6155 19.1984 87.2056C19.2535 87.1913 19.2535 87.1913 19.3098 87.1768C20.8622 86.7706 22.3134 86.176 23.5015 85.0724C23.526 85.0503 23.5505 85.0282 23.5758 85.0054C24.3866 84.2425 24.9052 83.0429 24.9397 81.9331C24.9421 81.7842 24.943 81.6354 24.9427 81.4865C24.9427 81.46 24.9427 81.4336 24.9426 81.4063C24.9416 81.0298 24.936 80.662 24.8623 80.2911C24.8567 80.2626 24.8512 80.234 24.8455 80.2045C24.5961 78.9512 23.9614 77.7352 22.8816 77.0031C21.8802 76.3464 20.6221 76.0497 19.4399 76.2812C18.323 76.5217 17.3301 77.1598 16.7049 78.1239C15.9128 79.3917 15.7384 80.9029 16.0722 82.3508C16.1183 82.536 16.1728 82.718 16.2315 82.8996C16.2767 83.0402 16.3193 83.1816 16.3618 83.3231C16.3702 83.3499 16.3785 83.3767 16.3871 83.4043C16.4441 83.5929 16.4441 83.5929 16.4032 83.6748C16.131 83.3716 15.8674 83.0759 15.6676 82.7185C15.6489 82.6865 15.6302 82.6544 15.611 82.6214C14.9554 81.4179 15.0121 79.9895 15.3884 78.7128C15.6822 77.7566 16.214 76.9495 16.9181 76.2455C16.9578 76.2032 16.9578 76.2032 16.9984 76.16C17.225 75.9223 17.4684 75.7337 17.7396 75.5511C17.7944 75.5142 17.8487 75.4765 17.9029 75.4386C18.3511 75.1367 18.863 74.9507 19.3822 74.8111C19.4244 74.7993 19.4665 74.7875 19.51 74.7753C20.256 74.6008 21.112 74.6448 21.8464 74.8479Z" fill="white"/>
<path d="M38.0664 77.7301C38.4493 78.0715 38.7786 78.4257 39.0578 78.8568C39.0807 78.8917 39.1036 78.9266 39.1271 78.9626C39.9283 80.257 40.1829 81.976 39.8669 83.4541C39.8075 83.692 39.7305 83.9228 39.6462 84.1529C39.6318 84.1932 39.6175 84.2335 39.6027 84.275C39.4055 84.7868 39.0968 85.2238 38.7267 85.6241C38.7095 85.6429 38.6923 85.6617 38.6746 85.6811C38.2351 86.1568 37.718 86.5046 37.1453 86.801C37.1149 86.8169 37.0846 86.8328 37.0534 86.8493C36.4789 87.1482 35.8901 87.355 35.2695 87.5366C35.223 87.5506 35.223 87.5506 35.1755 87.565C33.7285 87.9994 32.1878 88.0889 30.6861 88.0967C30.571 88.0973 30.456 88.0982 30.3409 88.0991C30.0144 88.1016 29.6878 88.1039 29.3612 88.1058C29.1598 88.107 28.9584 88.1085 28.757 88.1102C28.6814 88.1108 28.6058 88.1112 28.5301 88.1116C27.88 88.1144 27.2364 88.1524 26.5951 88.2644C26.5586 88.2706 26.5222 88.2768 26.4847 88.2832C26.1201 88.3474 25.7605 88.4308 25.4006 88.5172C24.8152 88.6572 24.2294 88.787 23.6359 88.8882C23.595 88.8953 23.595 88.8953 23.5533 88.9025C23.1161 88.9777 23.1161 88.9777 22.9854 88.9342C23.734 88.3787 24.5874 87.9567 25.4496 87.6101C25.4794 87.5981 25.5092 87.5861 25.5398 87.5738C25.9539 87.409 26.3707 87.288 26.8046 87.1874C26.9089 87.1629 27.0125 87.136 27.1161 87.109C27.5464 87.002 27.983 86.9251 28.4218 86.863C28.4484 86.8593 28.4749 86.8555 28.5023 86.8515C29.1064 86.7666 29.7136 86.7158 30.3211 86.6631C34.094 86.3534 34.094 86.3534 37.182 84.3368C37.8013 83.5496 38.0111 82.6383 37.9544 81.652C37.9529 81.6247 37.9514 81.5975 37.9499 81.5694C37.8821 80.5146 37.3764 79.47 36.5979 78.7601C36.2821 78.4849 35.9704 78.2883 35.5776 78.1465C35.5516 78.1371 35.5257 78.1277 35.499 78.1181C34.7938 77.8766 34.0516 78.023 33.3951 78.335C32.5936 78.7476 32.0706 79.453 31.7089 80.259C31.6987 80.2813 31.6885 80.3037 31.6779 80.3267C31.519 80.6937 31.4616 81.0585 31.4652 81.4566C31.4655 81.5205 31.4655 81.5205 31.4658 81.5857C31.4755 82.1482 31.5683 82.6989 31.7175 83.2406C31.7403 83.3511 31.7424 83.4519 31.7388 83.5644C31.5719 83.4345 31.4443 83.3011 31.3204 83.13C31.3031 83.1061 31.2857 83.0821 31.2678 83.0575C30.6541 82.1874 30.517 81.1917 30.6929 80.1509C30.8962 79.0506 31.4731 78.0291 32.4024 77.3832C34.1644 76.231 36.4532 76.3704 38.0664 77.7301Z" fill="white"/>
<path d="M21.0159 94.2905C21.7409 94.9517 22.1273 95.8174 22.1858 96.7935C22.2245 98.0468 21.9911 99.1797 21.1479 100.152C21.123 100.182 21.0982 100.212 21.0726 100.243C20.555 100.851 19.7861 101.309 18.9837 101.396C18.0016 101.471 17.1925 101.245 16.428 100.607C15.8773 100.117 15.5433 99.6418 15.322 98.9342C15.3021 98.8711 15.2803 98.8085 15.2582 98.7461C15.1402 98.2293 15.163 97.6088 15.4104 97.1358C15.4409 97.0766 15.4409 97.0766 15.4721 97.0162C15.59 96.8027 15.7179 96.6116 15.8885 96.4371C15.9128 96.4371 15.937 96.4371 15.962 96.4371C15.9628 96.4823 15.9628 96.4823 15.9637 96.5284C15.9841 97.5554 16.0199 98.579 16.7634 99.3749C17.1849 99.7792 17.6762 99.9497 18.2494 99.9401C18.8467 99.9015 19.3159 99.624 19.7135 99.1884C19.8794 98.9885 19.9842 98.7733 20.0813 98.5334C20.0934 98.505 20.1055 98.4766 20.1179 98.4472C20.3342 97.8748 20.3119 97.073 20.0813 96.5106C19.7341 95.7577 19.1307 95.3241 18.3718 95.026C17.8363 94.8379 17.2797 94.7203 16.7206 94.628C16.67 94.6195 16.67 94.6195 16.6183 94.6107C15.7499 94.4748 14.877 94.4746 14.0007 94.4688C13.8273 94.4676 13.6539 94.4662 13.4805 94.4644C13.401 94.4637 13.3216 94.4633 13.2422 94.4631C12.7667 94.4594 12.2935 94.4199 11.8359 94.2832C11.8036 94.2737 11.7713 94.2642 11.738 94.2544C10.906 93.9999 10.0997 93.586 9.34186 93.1637C9.34186 93.1516 9.34186 93.1395 9.34186 93.127C9.58796 93.1205 9.83061 93.1282 10.0757 93.1511C11.4298 93.2759 12.8214 93.342 14.1688 93.1303C16.3524 92.7976 19.2559 92.7342 21.0159 94.2905Z" fill="white"/>
<path d="M30.4515 93.0166C30.4306 93.0345 30.4097 93.0523 30.3881 93.0707C30.196 93.2374 30.0255 93.4097 29.863 93.6051C29.8369 93.6349 29.8108 93.6647 29.7839 93.6955C29.1343 94.4539 28.9165 95.3383 28.9803 96.3267C29.003 96.5382 29.044 96.7447 29.0907 96.952C29.0986 96.9876 29.1066 97.0233 29.1148 97.06C29.3558 98.0238 29.914 98.7911 30.5618 99.5265C30.2406 99.5265 29.9662 99.2218 29.7527 99.0116C29.7223 98.9817 29.6919 98.9517 29.6606 98.9209C28.8214 98.0476 28.4445 96.8492 28.4575 95.6581C28.4774 94.895 28.788 94.1596 29.3114 93.6051C29.429 93.4994 29.5513 93.4038 29.6791 93.3109C29.7133 93.2843 29.7474 93.2578 29.7826 93.2304C30.2956 92.9387 30.2956 92.9387 30.4515 93.0166Z" fill="white"/>
<path d="M21.0753 78.2315C21.0385 78.3051 21.0385 78.3051 20.9733 78.3324C20.9452 78.3409 20.917 78.3495 20.8879 78.3583C20.8564 78.3681 20.8249 78.378 20.7924 78.3881C20.7583 78.3987 20.7242 78.4092 20.6891 78.42C20.1347 78.599 19.6488 78.8111 19.1996 79.1878C19.1789 79.2044 19.1583 79.2209 19.1371 79.238C18.9816 79.3656 18.859 79.5003 18.7421 79.6636C18.7163 79.6995 18.7163 79.6995 18.69 79.7361C18.2937 80.2995 18.0414 80.8744 18.0962 81.5784C18.0984 81.6139 18.1006 81.6493 18.1028 81.6859C18.1516 82.1455 18.3371 82.6225 18.547 83.0328C18.6111 83.1599 18.6111 83.1599 18.6111 83.2335C18.4698 83.178 18.4081 83.0949 18.3169 82.976C18.2888 82.9502 18.2607 82.9244 18.2318 82.8979C17.7794 82.4139 17.596 81.7874 17.6002 81.1356C17.627 80.3875 17.9798 79.7177 18.5145 79.2063C18.993 78.7637 19.5212 78.4655 20.1558 78.3051C20.2013 78.2927 20.2013 78.2927 20.2478 78.2801C20.521 78.2145 20.7962 78.2248 21.0753 78.2315Z" fill="white"/>
<path d="M70.4172 81.134C70.4433 81.1339 70.4694 81.1339 70.4963 81.1338C72.2629 81.1343 73.8723 81.7603 75.433 82.5316C75.3322 82.5652 75.3008 82.5614 75.2003 82.5398C75.1598 82.5313 75.1598 82.5313 75.1185 82.5227C75.0764 82.5135 75.0764 82.5135 75.0333 82.5041C74.9781 82.4923 74.9229 82.4805 74.8676 82.4689C74.8432 82.4636 74.8187 82.4583 74.7935 82.4528C74.5823 82.4139 74.3765 82.4001 74.1623 82.3982C74.1346 82.3978 74.1069 82.3975 74.0784 82.3972C73.4903 82.392 72.9205 82.3888 72.3463 82.5316C72.3194 82.5381 72.2925 82.5445 72.2648 82.5511C70.9011 82.8833 69.6458 83.6014 68.5081 84.4054C68.441 84.4528 68.3737 84.4997 68.3064 84.5467C67.7477 84.9369 67.2043 85.3473 66.6649 85.7636C66.419 85.9532 66.1711 86.1401 65.9224 86.326C65.8595 86.3732 65.7967 86.4204 65.734 86.4678C65.5106 86.6363 65.2858 86.8028 65.0589 86.9667C65.0365 86.9829 65.014 86.9991 64.9909 87.0158C63.3128 88.2239 61.5079 89.322 59.433 89.6498C59.3904 89.6568 59.3904 89.6568 59.347 89.664C58.4537 89.8091 57.5811 89.7622 56.6928 89.6183C56.6634 89.6137 56.6341 89.6092 56.6039 89.6045C55.8278 89.4816 55.0824 89.1992 54.3621 88.8938C54.3364 88.8832 54.3108 88.8725 54.2843 88.8615C52.9103 88.2897 51.626 87.3959 50.4841 86.449C50.4136 86.3907 50.3428 86.3331 50.2715 86.2757C50.0571 86.1031 49.8454 85.9294 49.6423 85.7433C49.58 85.6861 49.5166 85.6303 49.4526 85.5749C49.3276 85.4661 49.2058 85.354 49.084 85.2417C48.9976 85.1621 48.9102 85.0841 48.8207 85.008C48.685 84.8907 48.5606 84.7626 48.4346 84.635C48.3194 84.5188 48.2012 84.4085 48.0752 84.3039C48.0314 84.2639 48.0314 84.2639 47.9999 84.2009C48.0897 84.2428 48.164 84.29 48.2411 84.3521C48.2632 84.3697 48.2853 84.3873 48.3081 84.4054C48.3317 84.4243 48.3554 84.4433 48.3798 84.4627C48.6741 84.6946 48.9789 84.9075 49.2912 85.1143C49.3146 85.1298 49.3379 85.1453 49.362 85.1612C49.8506 85.4836 50.3516 85.7801 50.866 86.0592C50.8933 86.0741 50.9206 86.089 50.9487 86.1044C52.3811 86.8838 53.9792 87.4269 55.6219 87.4253C55.6473 87.4254 55.6726 87.4254 55.6987 87.4255C57.4199 87.4251 59.0426 86.832 60.5001 85.9421C60.5703 85.8996 60.6411 85.8582 60.712 85.817C61.1189 85.5789 61.5078 85.3173 61.8956 85.0494C61.9723 84.9965 62.0492 84.9439 62.1262 84.8915C62.3674 84.7274 62.6048 84.5587 62.8409 84.3873C63.0705 84.2208 63.3021 84.0571 63.5342 83.894C63.5819 83.8604 63.6296 83.8267 63.6773 83.793C64.0304 83.5435 64.3926 83.307 64.7573 83.0748C64.8248 83.0317 64.8922 82.9883 64.9595 82.9449C65.4314 82.6422 65.9155 82.3688 66.4199 82.124C66.4932 82.0882 66.566 82.0516 66.6389 82.015C67.8251 81.4264 69.0952 81.1353 70.4172 81.134Z" fill="white"/>
<path d="M85.5867 87.8386C85.6704 87.9153 85.7508 87.9942 85.8303 88.0751C85.8664 88.1111 85.8664 88.1111 85.9032 88.1479C85.9311 88.1758 85.959 88.2038 85.9878 88.2326C86.0052 88.2485 86.0226 88.2644 86.0405 88.2808C86.4064 88.6255 86.6766 89.0636 86.9327 89.4924C86.9543 89.5279 86.976 89.5634 86.9983 89.5999C87.4762 90.405 87.921 91.4809 88.0036 92.4215C87.9932 92.4423 87.9828 92.4631 87.9721 92.4845C87.9511 92.4574 87.9301 92.4304 87.9085 92.4025C87.8149 92.2822 87.7205 92.1627 87.6256 92.0436C87.6052 92.0179 87.6052 92.0179 87.5843 91.9916C87.229 91.5483 86.8223 91.1234 86.3658 90.7837C86.345 90.7682 86.3242 90.7527 86.3028 90.7367C85.2191 89.93 84.0188 89.4188 82.6807 89.2089C82.6489 89.2038 82.6171 89.1986 82.5843 89.1933C81.6754 89.0511 80.727 89.0817 79.8146 89.1774C79.7838 89.1806 79.7529 89.1838 79.7212 89.1872C78.6329 89.3051 77.5621 89.5836 76.5193 89.9097C76.4838 89.9208 76.4838 89.9208 76.4476 89.932C76.3061 89.9772 76.1715 90.0318 76.0351 90.0908C75.9558 90.119 75.8765 90.1465 75.7969 90.1735C75.4613 90.2899 75.1338 90.4251 74.8067 90.5633C74.7838 90.5729 74.7609 90.5825 74.7374 90.5925C73.8267 90.9789 72.8989 91.4144 72.0666 91.9491C72.007 91.9868 71.9473 92.0242 71.8874 92.0613C71.8626 92.0769 71.8378 92.0926 71.8122 92.1087C71.7922 92.1184 71.7722 92.1281 71.7516 92.1381C71.7308 92.1277 71.71 92.1173 71.6886 92.1066C71.895 91.9138 72.1034 91.7265 72.3236 91.5494C72.4042 91.4838 72.4833 91.4171 72.5622 91.3495C72.749 91.1897 72.9401 91.0374 73.1358 90.8887C73.2213 90.8233 73.3056 90.7568 73.3894 90.6892C74.0865 90.1294 74.8135 89.6025 75.5626 89.1144C75.5873 89.0983 75.612 89.0822 75.6374 89.0655C76.3294 88.6146 77.0433 88.2076 77.7795 87.8335C77.8492 87.798 77.9187 87.7622 77.9881 87.726C78.9834 87.2145 80.0386 86.8819 81.1374 86.6892C81.1604 86.685 81.1833 86.6807 81.2069 86.6763C82.7494 86.3929 84.4051 86.8131 85.5867 87.8386Z" fill="white"/>
<path d="M77.1736 83.1249C77.2229 83.1247 77.2229 83.1247 77.2733 83.1246C77.3425 83.1244 77.4118 83.1243 77.4811 83.1243C77.5849 83.1243 77.6886 83.1237 77.7923 83.1231C78.349 83.1216 78.8995 83.1498 79.4465 83.2601C79.4802 83.2668 79.5139 83.2735 79.5486 83.2804C80.9754 83.5733 82.2937 84.1166 83.5902 84.768C83.4882 84.8019 83.4531 84.7971 83.3506 84.7761C83.3222 84.7704 83.2938 84.7648 83.2646 84.759C83.2201 84.7498 83.2201 84.7498 83.1748 84.7404C83.1166 84.7286 83.0584 84.7169 83.0002 84.7052C82.9744 84.6999 82.9486 84.6946 82.9221 84.6891C82.7009 84.6497 82.4871 84.6366 82.2629 84.6356C82.2326 84.6354 82.2023 84.6352 82.1711 84.635C82.107 84.6347 82.0429 84.6345 81.9789 84.6344C81.8831 84.6341 81.7873 84.6331 81.6915 84.6321C81.1513 84.6292 80.6364 84.6928 80.1118 84.8231C80.0788 84.8312 80.0458 84.8393 80.0118 84.8477C79.4031 85.0015 78.836 85.2276 78.2673 85.4924C78.2398 85.5052 78.2122 85.5179 78.1838 85.5311C77.0175 86.0779 75.9184 86.8527 74.9263 87.6711C74.7763 87.7945 74.6231 87.9128 74.4681 88.0298C74.2601 88.1871 74.0607 88.3521 73.864 88.5234C73.7742 88.6015 73.6827 88.6772 73.5902 88.7522C73.457 88.8603 73.3264 88.971 73.1965 89.0829C73.0393 89.2183 72.8802 89.3508 72.7191 89.4815C72.6145 89.5677 72.5117 89.6559 72.4091 89.7443C72.2536 89.8782 72.0966 90.0099 71.9374 90.1393C71.8422 90.2167 71.7474 90.2947 71.6528 90.3728C70.8516 91.0339 70.8516 91.0339 70.4548 91.3353C70.3818 91.3909 70.3091 91.4467 70.2363 91.5026C68.137 93.112 65.7964 94.5185 63.1177 94.8152C63.0938 94.818 63.0698 94.8207 63.0451 94.8235C62.8569 94.844 62.6709 94.8521 62.4816 94.8531C62.452 94.8533 62.4223 94.8535 62.3917 94.8538C62.2964 94.8543 62.2012 94.8545 62.1059 94.8546C62.0733 94.8546 62.0408 94.8546 62.0072 94.8546C61.5297 94.8541 61.0687 94.8385 60.598 94.7522C60.5662 94.7468 60.5343 94.7414 60.5014 94.7358C57.36 94.2031 54.6031 92.3505 52.005 90.0579C51.9442 90.0031 51.8826 89.9494 51.8205 89.8959C51.6933 89.7851 51.5699 89.6703 51.4465 89.5554C51.4268 89.537 51.4071 89.5187 51.3868 89.4998C51.2878 89.4073 51.1903 89.3136 51.0948 89.2174C51.0229 89.1449 50.95 89.0757 50.8717 89.0101C50.7144 88.8748 50.57 88.7269 50.4248 88.579C50.5371 88.579 50.5572 88.5996 50.6453 88.6656C51.9572 89.6089 53.467 90.3751 54.9917 90.9097C55.025 90.9214 55.0583 90.9331 55.0926 90.9452C55.8447 91.2063 56.646 91.4102 57.4366 91.5121C57.4715 91.5167 57.5063 91.5213 57.5422 91.5261C57.897 91.5661 58.2511 91.5787 58.6079 91.579C58.6324 91.579 58.6569 91.579 58.6821 91.579C59.7141 91.5776 60.7509 91.4601 61.7319 91.1302C61.7659 91.1191 61.7998 91.108 61.8348 91.0966C62.5135 90.875 63.1747 90.6203 63.8004 90.2741C63.9061 90.2162 64.0133 90.1631 64.1217 90.1105C65.0768 89.6356 65.9791 89.002 66.8371 88.371C66.9293 88.3036 67.0225 88.2376 67.1157 88.1715C67.3657 87.9936 67.6122 87.8109 67.8589 87.6285C67.9359 87.5716 68.013 87.5149 68.0902 87.4582C68.3239 87.2863 68.5572 87.1139 68.789 86.9392C69.2395 86.6003 69.6994 86.2747 70.1623 85.953C70.2294 85.9063 70.2964 85.8594 70.3633 85.8125C70.8627 85.464 71.3781 85.136 71.9051 84.831C71.9462 84.8071 71.9462 84.8071 71.988 84.7828C73.2765 84.0378 74.6238 83.4826 76.0941 83.2247C76.1253 83.219 76.1565 83.2134 76.1886 83.2076C76.2201 83.2021 76.2517 83.1966 76.2842 83.1909C76.3258 83.1836 76.3258 83.1836 76.3683 83.1762C76.6367 83.1386 76.9028 83.1252 77.1736 83.1249Z" fill="white"/>
<path fill-rule="evenodd" clip-rule="evenodd" d="M115.299 76.7787L115.395 76.7786C116.511 76.7796 117.597 76.9211 118.65 77.3001C118.735 77.3306 118.821 77.36 118.906 77.3891C119.326 77.535 119.71 77.7331 120.1 77.946C120.202 78.0008 120.304 78.0537 120.407 78.1062L120.507 78.1573C120.569 78.1893 120.632 78.2211 120.695 78.2526C120.822 78.3186 120.872 78.3448 120.903 78.3858C120.923 78.4128 120.934 78.4461 120.952 78.5013C120.987 78.522 121.006 78.533 121.025 78.5429C121.047 78.5542 121.07 78.5639 121.119 78.5848L121.119 78.5848C121.652 78.9014 122.115 79.2759 122.564 79.6998C122.636 79.7663 122.71 79.8295 122.784 79.8924C123.216 80.2672 123.606 80.6827 123.959 81.1321L124.141 81.3487C124.297 81.5395 124.442 81.7366 124.582 81.9386L124.642 82.0233C124.751 82.181 124.827 82.3232 124.877 82.5101H124.961C125.576 83.6257 126.059 84.7148 126.375 85.9553L126.412 86.0954C126.582 86.7861 126.606 87.4608 126.605 88.1685L126.605 88.3042C126.605 88.8173 126.595 89.3074 126.482 89.8097C126.393 90.2483 126.408 90.7021 126.422 91.1497C126.425 91.2185 126.427 91.2872 126.429 91.3556C126.44 91.8802 126.382 92.3573 126.255 92.8664L126.223 92.9986C126.197 93.0972 126.168 93.1945 126.138 93.2918L126.106 93.3955C125.943 93.9083 125.735 94.3852 125.478 94.8578L125.42 94.9638C125.31 95.1605 125.191 95.3264 125.044 95.4972L125.044 95.4973C125.017 95.544 125.003 95.566 124.992 95.5888C124.982 95.6091 124.973 95.63 124.956 95.6693L124.956 95.6694C124.898 95.79 124.843 95.8989 124.752 95.9983H124.669L124.64 96.0896C124.58 96.2183 124.504 96.2922 124.406 96.3866L124.376 96.4159C124.301 96.4973 124.226 96.579 124.152 96.6612C124 96.8275 123.847 96.9911 123.687 97.1485C123.628 97.2058 123.572 97.2649 123.515 97.3241C123.418 97.4162 123.321 97.4754 123.207 97.5434L123.123 97.6687C123.054 97.6976 122.985 97.7253 122.915 97.7522C122.845 97.7992 122.776 97.848 122.709 97.8983C122.558 98.0062 122.429 98.0848 122.247 98.128V98.2115L122.113 98.2663C122.015 98.3079 121.933 98.3502 121.842 98.4073C121.803 98.4295 121.78 98.4427 121.755 98.4505C121.718 98.4621 121.678 98.4621 121.578 98.4621V98.5456C120.385 98.9602 120.049 99.077 119.704 99.1436C119.568 99.1697 119.431 99.1881 119.24 99.2137L119.24 99.2137L119.147 99.2276C117.127 99.521 114.998 99.1536 113.143 98.3368L112.963 98.2596C112.799 98.1897 112.637 98.1176 112.475 98.0445L112.392 98.0076C111.46 97.5882 110.561 97.0797 109.719 96.4994L109.638 96.4435C108.974 95.9845 108.291 95.5018 107.726 94.9214C107.681 94.871 107.659 94.8458 107.631 94.829C107.603 94.8123 107.571 94.804 107.506 94.7873V94.7038H107.422V94.6202H107.339C107.311 94.5925 107.296 94.5771 107.281 94.561C107.263 94.5407 107.245 94.5195 107.206 94.4715L107.205 94.4715C107.108 94.3561 107.008 94.2458 106.9 94.14C106.65 93.8934 106.43 93.6235 106.212 93.3484C106.158 93.2811 106.104 93.2141 106.05 93.1478C105.461 92.4296 104.978 91.6485 104.577 90.8119C104.544 90.7444 104.51 90.6776 104.476 90.6109C103.848 89.346 103.662 87.9144 103.706 86.519L103.709 86.405C103.763 84.917 104.382 83.5243 105.125 82.2596H105.209L105.219 82.1927C105.262 82.0583 105.339 81.9527 105.42 81.8405L105.431 81.8263L105.486 81.7497C105.628 81.5559 105.779 81.3698 105.934 81.1869L105.998 81.1125C106.08 81.0179 106.158 80.9314 106.26 80.8572C106.299 80.8303 106.32 80.816 106.337 80.7978C106.355 80.7775 106.368 80.7523 106.395 80.6988C106.475 80.5665 106.57 80.4822 106.686 80.3804C106.839 80.2455 106.986 80.1077 107.13 79.9628C107.339 79.7645 107.553 79.5883 107.796 79.4335L107.796 79.4335C107.838 79.4069 107.86 79.3932 107.881 79.3782C107.904 79.3621 107.926 79.3447 107.971 79.3086C108.012 79.279 108.031 79.2652 108.053 79.2587C108.072 79.2529 108.093 79.2529 108.132 79.2529V79.1694C108.165 79.1434 108.183 79.1286 108.202 79.1145C108.227 79.096 108.254 79.0788 108.314 79.0389L108.433 78.9605L108.563 78.8771L108.694 78.7918C109.053 78.5621 109.421 78.3571 109.802 78.1673C109.878 78.1294 109.953 78.0906 110.029 78.0517C110.309 77.9078 110.596 77.7838 110.888 77.6661L110.993 77.6219C111.273 77.5058 111.559 77.4187 111.849 77.332L111.98 77.2903C112.504 77.1243 113.027 76.9985 113.569 76.9066L113.692 76.8855C114.225 76.7983 114.759 76.7792 115.299 76.7787ZM113.732 81.4947C113.846 81.4948 113.961 81.4939 114.075 81.4928C115.455 81.4878 116.819 81.9651 117.819 82.9277C117.863 82.9631 117.907 82.998 117.952 83.0321C118.634 83.6383 119.063 84.532 119.322 85.3915L119.349 85.4789C119.595 86.3103 119.593 87.3553 119.364 88.1893L119.329 88.3352C119.178 88.9187 118.912 89.6703 118.487 90.1103H118.404L118.39 90.1845C118.346 90.33 118.241 90.4368 118.135 90.5437L118.135 90.5437C118.113 90.5662 118.091 90.5886 118.07 90.6114L117.964 90.7234C117.596 91.1036 117.19 91.3909 116.733 91.6553L116.625 91.725C116.577 91.7516 116.552 91.7655 116.525 91.7728C116.496 91.7806 116.464 91.7806 116.399 91.7806V91.8641C114.92 92.3949 113.766 92.5487 112.307 91.8641C112.071 91.7439 111.852 91.6079 111.639 91.4518L111.563 91.3965C111.513 91.3601 111.463 91.3237 111.414 91.2872C111.356 91.2447 111.297 91.2032 111.239 91.1619C110.978 90.9724 110.791 90.7401 110.595 90.4861L110.513 90.3863C109.959 89.7003 109.681 88.8608 109.759 87.9805C109.807 87.6922 109.91 87.441 110.052 87.1871L110.102 87.0933C110.211 86.8904 110.327 86.7002 110.469 86.519H110.553L110.582 86.4459C110.646 86.3347 110.726 86.2746 110.826 86.1995L110.845 86.1849L110.897 86.1286C111.232 85.8151 111.711 85.6163 112.14 85.475L112.248 85.4347C112.779 85.2574 113.426 85.2849 113.935 85.5168L113.935 85.5168C113.991 85.5559 114.015 85.5726 114.039 85.5904C114.056 85.6037 114.073 85.6177 114.102 85.642L114.102 85.642C114.057 85.7706 114.021 85.8078 113.901 85.8795C113.727 86.006 113.655 86.1545 113.563 86.344L113.56 86.3519L113.518 86.4355C113.507 86.5622 113.506 86.6892 113.505 86.8163V86.8163L113.505 86.8792L113.501 87.0023C113.498 87.3329 113.573 87.5431 113.774 87.8031C114.056 88.0239 114.416 88.1003 114.763 88.1738L114.763 88.1739C114.8 88.1816 114.836 88.1893 114.872 88.1972L115.162 88.2616L115.29 88.2895C115.338 88.3009 115.365 88.3072 115.391 88.3145C115.423 88.3233 115.454 88.3336 115.522 88.3564L115.522 88.3564C115.814 88.3928 116.058 88.327 116.316 88.1893C116.372 88.1405 116.397 88.1191 116.42 88.0955C116.438 88.0771 116.454 88.0574 116.483 88.0223L116.483 88.0223H116.566C116.714 87.5985 116.749 87.2014 116.749 86.7539L116.749 86.6036C116.745 86.2409 116.699 85.9047 116.59 85.5585L116.558 85.4558L116.524 85.3497C116.501 85.2715 116.477 85.1932 116.454 85.1148L116.422 85.0088L116.399 84.9321H116.316L116.285 84.8646C116.052 84.4012 115.675 84.0965 115.23 83.8464L115.116 83.7802C114.633 83.5178 114.068 83.3568 113.518 83.3453L113.438 83.3415C112.347 83.2915 111.215 83.5401 110.254 84.0624L110.254 84.0624C110.223 84.0764 110.204 84.0848 110.185 84.0897C110.156 84.097 110.126 84.097 110.052 84.097V84.1805L109.926 84.2276C109.74 84.3074 109.595 84.4249 109.441 84.5537L109.36 84.6202C109.308 84.6629 109.256 84.7057 109.204 84.7487C109.143 84.7989 109.081 84.8478 109.018 84.8964C108.93 84.9694 108.857 85.0431 108.783 85.1305C108.709 85.2181 108.634 85.3054 108.557 85.3907C108.228 85.7552 108.005 86.1602 107.797 86.6025L107.755 86.6907C107.669 86.8942 107.634 87.1115 107.599 87.3287L107.592 87.3768C107.569 87.5127 107.56 87.5643 107.535 87.6059C107.52 87.6314 107.498 87.6532 107.463 87.6882C107.42 86.4912 107.725 85.1083 108.465 84.1387H108.548L108.56 84.0681C108.639 83.8191 108.868 83.5992 109.063 83.4127L109.063 83.4126C109.087 83.3897 109.111 83.3672 109.133 83.3453L109.205 83.2492C109.317 83.1164 109.439 83.0171 109.577 82.912L109.656 82.8511C109.732 82.7928 109.808 82.7349 109.885 82.6772L109.992 82.5941C110.676 82.0887 111.558 81.7467 112.39 81.5914L112.51 81.569C112.918 81.5015 113.319 81.4937 113.732 81.4947ZM118.153 79.754C117.148 79.4181 116.116 79.3468 115.063 79.3782V79.42C115.135 79.4326 115.208 79.4454 115.28 79.4584L115.371 79.4748C115.564 79.5082 115.75 79.5487 115.938 79.6051L115.939 79.6054C116.042 79.6374 116.145 79.6694 116.249 79.6994C116.844 79.868 117.428 80.052 117.965 80.3648C117.978 80.3723 117.99 80.3799 118.002 80.3875C118.096 80.445 118.188 80.5022 118.286 80.5528C119.394 81.1174 120.307 82.1557 120.876 83.2416L120.951 83.3871C121.715 84.8547 122.05 86.453 121.721 88.0983L121.703 88.1894C121.53 89.0714 121.154 89.8878 120.664 90.6375C120.579 90.7635 120.5 90.8849 120.439 91.0247L120.408 91.1125H120.325L120.263 91.1936C120.127 91.403 119.988 91.5871 119.807 91.7596C119.791 91.7745 119.779 91.7859 119.767 91.7974C119.728 91.8342 119.69 91.872 119.531 92.0312C119.327 92.2464 119.121 92.4394 118.881 92.6132C118.804 92.6678 118.728 92.7238 118.654 92.7829V92.8664C118.614 92.8664 118.593 92.8664 118.574 92.8719C118.553 92.8778 118.534 92.8901 118.495 92.9156C117.376 93.7387 116.167 94.2188 114.809 94.4798L114.729 94.495V94.5785C116.708 94.8372 118.849 94.8232 120.689 93.9587L120.805 93.9025C121.367 93.6307 121.918 93.3029 122.371 92.8664V92.7829C122.52 92.7276 122.608 92.6322 122.712 92.5139L122.775 92.4383C122.999 92.174 123.198 91.9006 123.373 91.6017L123.415 91.5301C123.467 91.4404 123.517 91.3499 123.566 91.2586C123.89 90.5874 124.134 89.9135 123.895 89.1864C123.858 89.0771 123.824 88.9682 123.791 88.8575C123.754 88.6063 123.767 88.4027 123.916 88.1894C123.927 88.1828 123.937 88.1767 123.947 88.1707C124.042 88.1134 124.101 88.0778 124.167 87.9806C124.285 87.1659 124.007 86.2059 123.72 85.4496C123.692 85.3757 123.663 85.3017 123.636 85.2273C123.426 84.6472 123.209 84.0485 122.82 83.5619L122.747 83.4706C122.685 83.3139 122.616 83.1861 122.515 83.0499L122.454 82.9695C122.388 82.8799 122.32 82.7912 122.251 82.7034L122.162 82.5937C121.829 82.18 121.468 81.8097 121.073 81.4546L120.993 81.3826C120.215 80.6813 119.307 80.144 118.312 79.8054L118.153 79.754Z" fill="white"/>
<path d="M128.279 72.6628C128.435 72.742 128.523 72.8155 128.637 72.9473C128.664 72.9779 128.664 72.9779 128.693 73.0091C128.896 73.2385 128.947 73.4153 128.939 73.7159C128.892 74.2237 128.569 74.7289 128.268 75.1251C128.183 75.2362 128.102 75.3489 128.022 75.463C127.447 76.2788 127.447 76.2788 127.052 76.5529C126.802 76.729 126.552 76.9613 126.43 77.2481C126.371 77.3513 126.29 77.4091 126.198 77.4823C126.083 77.583 125.997 77.7055 125.907 77.8279C125.624 78.1971 125.327 78.4413 124.92 78.6683C124.877 78.6941 124.834 78.7199 124.79 78.7466C124.632 78.8084 124.502 78.8273 124.335 78.7935C124.154 78.6964 124.154 78.6964 124.085 78.5847C123.98 78.1507 124.217 77.6455 124.429 77.2775C124.562 77.0736 124.719 76.8896 124.878 76.7056C125.041 76.5288 125.041 76.5288 125.171 76.3298C125.198 76.3298 125.226 76.3298 125.254 76.3298C125.282 76.2609 125.309 76.192 125.338 76.121C125.365 76.121 125.393 76.121 125.421 76.121C125.439 76.0755 125.439 76.0755 125.457 76.0291C125.712 75.4008 126.038 74.7993 126.371 74.2094C126.425 74.1133 126.479 74.0169 126.532 73.9205C127.395 72.3665 127.395 72.3665 128.279 72.6628Z" fill="white"/>
<path d="M103.327 95.4069C103.525 95.5131 103.525 95.5131 103.58 95.6224C103.613 96.1058 103.301 96.6088 103.037 97.0004C102.967 97.0747 102.897 97.1344 102.816 97.1952C102.706 97.2813 102.621 97.3868 102.531 97.4929C102.443 97.5958 102.353 97.6962 102.262 97.7965C102.23 97.8321 102.198 97.8678 102.165 97.9045C102.114 97.9608 102.063 98.0168 102.011 98.0722C101.858 98.2411 101.731 98.4272 101.604 98.616C101.585 98.6433 101.567 98.6707 101.548 98.6988C101.53 98.725 101.513 98.7513 101.495 98.7783C101.479 98.8018 101.463 98.8253 101.447 98.8495C101.405 98.9281 101.385 99.0011 101.366 99.0884C101.339 99.0884 101.311 99.0884 101.283 99.0884C101.272 99.1116 101.261 99.1348 101.249 99.1587C101.086 99.4745 100.875 99.7643 100.665 100.05C100.558 100.195 100.453 100.341 100.349 100.487C100.331 100.512 100.313 100.537 100.294 100.563C100.219 100.669 100.144 100.776 100.072 100.884C100.031 100.884 99.9892 100.884 99.9466 100.884C99.9466 100.912 99.9466 100.939 99.9466 100.968C99.6423 101.196 99.3605 101.215 98.9862 101.176C98.7137 101.083 98.4586 100.894 98.3167 100.64C98.2156 100.404 98.1863 100.162 98.2634 99.9144C98.3045 99.8166 98.3508 99.7245 98.4015 99.6313C98.4197 99.5977 98.4379 99.5641 98.4567 99.5295C98.5843 99.3063 98.7306 99.1072 98.8942 98.9093C98.9611 98.827 99.0254 98.7445 99.0886 98.6594C99.1063 98.6358 99.1239 98.6121 99.1422 98.5878C99.1922 98.5206 99.2419 98.4532 99.2915 98.3858C99.4871 98.1411 99.7441 97.9532 99.9941 97.7677C100.467 97.4144 100.873 97.0067 101.283 96.5829C101.416 96.4458 101.549 96.3093 101.682 96.1731C101.726 96.1271 101.726 96.1271 101.771 96.0802C102.105 95.7399 102.826 95.1901 103.327 95.4069Z" fill="white"/>
<path d="M117.818 100.717C117.818 100.745 117.818 100.772 117.818 100.801C117.865 100.811 117.865 100.811 117.914 100.821C118.078 100.913 118.106 101.047 118.157 101.218C118.168 101.252 118.178 101.286 118.189 101.321C118.357 101.883 118.407 102.43 118.432 103.014C118.433 103.047 118.435 103.079 118.436 103.113C118.438 103.162 118.438 103.162 118.441 103.212C118.463 103.693 118.523 104.144 118.636 104.613C118.751 105.095 118.816 105.582 118.88 106.074C118.886 106.121 118.886 106.121 118.893 106.169C118.904 106.254 118.914 106.339 118.925 106.425C118.94 106.53 118.959 106.628 118.987 106.73C119.025 107.053 118.945 107.299 118.763 107.565C118.595 107.776 118.409 107.897 118.152 107.983C117.84 108.011 117.565 108.028 117.302 107.84C117.101 107.647 117.024 107.475 116.959 107.211C116.95 107.176 116.942 107.141 116.933 107.105C116.791 106.516 116.721 105.937 116.716 105.331C116.716 105.288 116.715 105.245 116.715 105.201C116.716 104.914 116.75 104.641 116.794 104.358C116.879 103.815 116.877 103.274 116.879 102.726C116.879 102.596 116.881 102.465 116.882 102.335C116.882 102.296 116.882 102.257 116.882 102.217C116.886 101.846 116.991 101.53 117.137 101.192C117.155 101.149 117.173 101.107 117.192 101.063C117.205 101.031 117.219 101 117.233 100.968C117.261 100.968 117.288 100.968 117.317 100.968C117.329 100.934 117.341 100.9 117.353 100.866C117.444 100.659 117.618 100.714 117.818 100.717Z" fill="white"/>
<path d="M129.324 92.4748C129.361 92.4748 129.399 92.4747 129.437 92.4746C129.661 92.4784 129.868 92.5067 130.086 92.5543C130.427 92.6256 130.785 92.6194 131.133 92.621C131.16 92.6212 131.188 92.6214 131.216 92.6216C131.42 92.621 131.622 92.6091 131.825 92.5955C132.284 92.5664 132.743 92.5617 133.203 92.5594C133.302 92.5587 133.402 92.5575 133.501 92.556C133.647 92.5537 133.794 92.5528 133.94 92.5521C133.984 92.5512 134.028 92.5503 134.073 92.5493C134.424 92.5503 134.675 92.6521 134.959 92.8559C135.143 93.1213 135.186 93.4269 135.149 93.7433C135.092 94.0221 134.93 94.2525 134.732 94.4532C134.588 94.5341 134.588 94.5341 134.44 94.5784C134.369 94.6002 134.369 94.6002 134.297 94.6223C134.057 94.6814 133.816 94.6744 133.57 94.6724C133.521 94.6721 133.471 94.6718 133.419 94.6714C132.804 94.6641 132.237 94.6164 131.651 94.4246C131.228 94.289 130.798 94.2113 130.36 94.1426C128.689 93.8709 128.689 93.8709 128.009 93.3674C127.908 93.2216 127.883 93.1431 127.886 92.9655C127.931 92.8044 127.963 92.7602 128.092 92.6575C128.204 92.6176 128.305 92.5881 128.421 92.5636C128.454 92.5565 128.486 92.5495 128.519 92.5423C128.788 92.4901 129.051 92.4753 129.324 92.4748Z" fill="white"/>
<path d="M98.2932 78.2923C98.4004 78.3338 98.5072 78.366 98.6179 78.3968C98.7806 78.4441 98.9253 78.5058 99.0742 78.5862C99.1556 78.6296 99.1556 78.6296 99.2561 78.6661C99.3609 78.7096 99.4438 78.7601 99.5366 78.8248C99.8015 79.0052 100.064 79.1787 100.364 79.2946C100.518 79.3633 100.67 79.4347 100.822 79.506C100.913 79.5481 101.004 79.5893 101.095 79.6305C101.742 79.926 102.321 80.251 102.828 80.7562C102.859 80.7849 102.89 80.8136 102.922 80.8431C102.995 80.9232 102.995 80.9232 103.018 81.0616C102.989 81.2554 102.942 81.3836 102.786 81.5079C102.613 81.5505 102.446 81.5454 102.269 81.5392C102.22 81.5382 102.172 81.5373 102.121 81.5364C101.738 81.5229 101.424 81.4598 101.074 81.2991C101.034 81.2816 100.993 81.2641 100.952 81.2461C100.804 81.1804 100.659 81.1113 100.513 81.0417C100.112 80.862 99.6941 80.7705 99.2678 80.6727C99.189 80.6542 99.1101 80.6358 99.0313 80.6173C98.6197 80.5212 98.2076 80.4298 97.7932 80.3464C96.4604 80.0776 96.4604 80.0776 96.1936 79.7383C96.029 79.4713 95.9622 79.2294 96.0211 78.9188C96.14 78.5478 96.3714 78.3237 96.6996 78.128C97.2083 77.9839 97.8114 78.1006 98.2932 78.2923Z" fill="white"/>
<path d="M118.372 68.1344C118.397 68.1517 118.422 68.169 118.448 68.1868C118.474 68.2045 118.5 68.2222 118.527 68.2404C118.731 68.3952 118.835 68.5689 118.907 68.8131C118.929 68.9982 118.927 69.1804 118.923 69.3665C118.922 69.418 118.921 69.4695 118.921 69.5226C118.908 70.1964 118.867 70.8142 118.641 71.4529C118.475 71.9288 118.367 72.4102 118.281 72.9055C118.088 74.0132 118.088 74.0132 117.827 74.5054C117.812 74.5332 117.798 74.561 117.783 74.5897C117.527 75.0794 117.527 75.0794 117.362 75.244C117.177 75.2646 117.004 75.2808 116.843 75.1814C116.551 74.7139 116.528 73.9978 116.631 73.4666C116.649 73.3926 116.668 73.3187 116.686 73.2448C116.819 72.6911 116.837 72.1562 116.834 71.5898C116.834 71.55 116.833 71.5102 116.833 71.4692C116.831 71.1806 116.826 70.8921 116.822 70.6036C116.817 70.3121 116.814 70.0207 116.812 69.7293C116.81 69.614 116.808 69.4987 116.806 69.3834C116.805 69.3127 116.804 69.2419 116.804 69.1712C116.803 69.1397 116.802 69.1083 116.801 69.0759C116.8 68.8399 116.87 68.6814 116.986 68.4791C117 68.4501 117.014 68.4211 117.028 68.3912C117.127 68.2033 117.318 68.1092 117.514 68.0424C117.809 67.9747 118.108 67.9766 118.372 68.1344Z" fill="white"/>
<path d="M133.061 83.8046C133.336 84.015 133.53 84.2725 133.577 84.6209C133.59 84.9695 133.464 85.2595 133.228 85.5167C132.384 86.3102 130.962 86.2728 129.88 86.3624C129.836 86.3661 129.792 86.3698 129.747 86.3736C129.269 86.4135 128.791 86.4437 128.312 86.4531C128.272 86.4545 128.232 86.456 128.19 86.4575C127.997 86.459 127.913 86.4592 127.757 86.3352C127.73 86.2994 127.703 86.2635 127.674 86.2267C127.647 86.1991 127.619 86.1715 127.591 86.1431C127.577 86.0068 127.577 86.0068 127.575 85.8404C127.574 85.7859 127.573 85.7314 127.572 85.6753C127.594 85.4878 127.63 85.4053 127.758 85.2662C128.029 85.1339 128.326 85.0827 128.619 85.0182C129.521 84.8133 130.32 84.5225 131.138 84.0865C132.401 83.4157 132.401 83.4157 133.061 83.8046Z" fill="white"/>
<path d="M109.217 99.2972C109.437 99.3721 109.543 99.4897 109.676 99.673C109.821 100.107 109.565 100.519 109.399 100.914C109.335 101.068 109.274 101.224 109.214 101.38C109.195 101.431 109.175 101.481 109.155 101.534C109 101.971 108.9 102.407 108.837 102.867C108.757 103.445 108.638 104 108.465 104.559C108.438 104.559 108.41 104.559 108.382 104.559C108.378 104.584 108.373 104.609 108.369 104.634C108.334 104.743 108.294 104.783 108.207 104.856C108.183 104.877 108.159 104.898 108.135 104.919C107.838 105.114 107.449 105.105 107.111 105.041C106.824 104.946 106.616 104.757 106.463 104.499C106.247 104.014 106.384 103.533 106.559 103.062C106.643 102.847 106.734 102.636 106.837 102.429C106.872 102.356 106.872 102.356 106.907 102.282C107.018 102.052 107.129 101.829 107.286 101.626C107.38 101.492 107.452 101.345 107.529 101.201C107.598 101.076 107.674 100.959 107.755 100.842C107.873 100.676 107.873 100.676 107.959 100.493C108.004 100.388 108.051 100.321 108.121 100.232C108.224 100.098 108.306 99.9633 108.384 99.814C108.597 99.4112 108.751 99.2585 109.217 99.2972Z" fill="white"/>
<path d="M107.48 70.8497C107.725 70.9874 107.886 71.2201 108.048 71.444C108.069 71.4728 108.091 71.5017 108.114 71.5314C108.318 71.8105 108.466 72.1028 108.609 72.4175C108.632 72.4689 108.656 72.5204 108.68 72.5719C108.896 73.0475 109.093 73.5318 109.257 74.0284C109.3 74.1561 109.347 74.2815 109.396 74.4071C109.414 74.4535 109.432 74.5 109.45 74.5479C109.488 74.6444 109.525 74.7408 109.563 74.8373C109.878 75.6512 109.878 75.6512 109.843 75.9122C109.741 76.1125 109.626 76.2278 109.426 76.3298C109.223 76.3839 109.021 76.4007 108.828 76.3011C108.547 76.0815 108.406 75.7143 108.255 75.4024C108.123 75.1401 107.962 74.895 107.803 74.6489C107.762 74.5853 107.721 74.5214 107.68 74.4575C107.591 74.3185 107.504 74.1927 107.385 74.0774C107.356 74.049 107.326 74.0206 107.296 73.9913C107.296 73.9637 107.296 73.9361 107.296 73.9077C107.255 73.894 107.213 73.8802 107.171 73.866C107.106 73.802 107.106 73.802 107.038 73.7198C107.012 73.6901 106.987 73.6603 106.961 73.6296C106.934 73.5974 106.907 73.5651 106.878 73.5319C106.819 73.463 106.759 73.3942 106.698 73.3257C106.671 73.2943 106.644 73.263 106.615 73.2306C106.549 73.1525 106.549 73.1525 106.461 73.1143C106.44 73.0523 106.44 73.0523 106.419 72.9891C106.378 72.9615 106.336 72.9339 106.294 72.9055C106.25 72.8371 106.209 72.7671 106.169 72.6967C106.104 72.6001 106.038 72.504 105.972 72.408C105.83 72.1799 105.859 71.9123 105.876 71.6528C105.999 71.2972 106.269 71.0815 106.586 70.9011C106.855 70.7703 107.195 70.7588 107.48 70.8497Z" fill="white"/>
<path d="M98.8656 87.3778C98.9433 87.3776 99.021 87.3774 99.0987 87.3771C99.2599 87.3768 99.4211 87.3769 99.5823 87.3773C99.7883 87.3778 99.9942 87.3769 100.2 87.3757C100.36 87.3749 100.52 87.3749 100.679 87.3752C100.755 87.3752 100.831 87.3749 100.907 87.3744C101.013 87.3738 101.119 87.3742 101.225 87.3749C101.256 87.3745 101.287 87.3741 101.319 87.3737C101.58 87.3774 101.803 87.4592 101.993 87.6417C102.092 87.8445 102.074 88.1111 102.007 88.3229C101.914 88.5025 101.792 88.5939 101.619 88.6904C101.49 88.7255 101.36 88.7424 101.228 88.7589C101.15 88.7699 101.072 88.781 100.994 88.792C100.954 88.7976 100.914 88.8031 100.872 88.8088C100.189 88.9037 99.5437 89.015 98.9002 89.2693C98.76 89.3243 98.6189 89.3762 98.4775 89.4279C98.2404 89.5147 98.0039 89.6027 97.7677 89.6919C97.4144 89.8213 97.0384 89.9087 96.6685 89.7814C96.404 89.6258 96.1812 89.3779 96.0842 89.0847C96.0182 88.7379 96.0195 88.3633 96.2039 88.0544C96.2345 88.014 96.2345 88.014 96.2658 87.9727C96.2858 87.9454 96.3059 87.9181 96.3266 87.89C96.8466 87.3395 98.1646 87.3763 98.8656 87.3778Z" fill="white"/>
<path d="M124.123 99.3807C124.232 99.473 124.232 99.473 124.332 99.5895C124.363 99.6237 124.394 99.6579 124.426 99.6931C124.46 99.7304 124.493 99.7677 124.527 99.8061C125.193 100.534 125.873 101.133 126.715 101.646C126.925 101.776 127.125 101.916 127.323 102.064C127.35 102.084 127.377 102.104 127.405 102.125C127.712 102.358 127.962 102.574 128.018 102.972C128.033 103.281 127.897 103.539 127.756 103.807C127.728 103.807 127.701 103.807 127.672 103.807C127.662 103.832 127.653 103.857 127.642 103.882C127.578 103.994 127.512 104.038 127.404 104.107C127.371 104.129 127.338 104.15 127.305 104.172C127.149 104.262 127.022 104.274 126.845 104.277C126.803 104.278 126.76 104.279 126.716 104.28C126.207 104.226 125.739 103.667 125.43 103.288C125.327 103.156 125.225 103.022 125.125 102.887C125.103 102.858 125.081 102.828 125.059 102.798C125.015 102.74 124.972 102.681 124.929 102.622C124.809 102.461 124.684 102.32 124.541 102.179C124.5 102.108 124.46 102.038 124.421 101.967C124.367 101.876 124.306 101.796 124.24 101.713C124.086 101.518 123.938 101.319 123.791 101.119C123.753 101.067 123.753 101.067 123.715 101.014C123.665 100.946 123.615 100.878 123.565 100.81C123.505 100.729 123.446 100.648 123.386 100.568C123.356 100.528 123.326 100.487 123.296 100.446C123.27 100.412 123.245 100.378 123.219 100.342C123.109 100.178 123.101 100.034 123.121 99.8401C123.32 99.4288 123.682 99.2918 124.123 99.3807Z" fill="white"/>
</svg>
