<svg width="256" height="256" viewBox="0 0 256 256" fill="none" xmlns="http://www.w3.org/2000/svg">
<path d="M64.2963 131.133C64.5287 131.133 64.761 131.132 64.9933 131.13C66.537 131.118 68.0366 131.186 69.5701 131.381C69.7125 131.399 69.8549 131.416 69.9973 131.433C72.7979 131.773 76.0011 132.779 78.1515 134.676C78.214 134.73 78.2765 134.784 78.3409 134.84C78.536 135.012 78.7274 135.188 78.9177 135.365C78.9818 135.425 79.0459 135.484 79.1119 135.544C80.9013 137.254 82.0869 140.037 82.148 142.512C82.1496 142.633 82.1506 142.754 82.1512 142.876C82.1519 142.974 82.1519 142.974 82.1526 143.075C82.1533 143.214 82.1538 143.353 82.1541 143.491C82.1548 143.699 82.1572 143.907 82.1596 144.114C82.1665 145.246 82.044 146.334 81.7239 147.423C81.7074 147.481 81.6909 147.538 81.6739 147.597C81.5302 148.082 81.3588 148.546 81.1396 149.004C81.1168 149.052 81.0939 149.1 81.0703 149.149C79.7964 151.787 77.6381 153.631 74.9038 154.65C72.7107 155.412 70.1322 155.371 68.0212 154.363C67.4334 154.062 66.8529 153.727 66.3521 153.294C66.2378 153.197 66.2378 153.197 66.1213 153.097C64.732 151.879 63.8367 150.32 63.3333 148.548C63.2909 148.403 63.2416 148.261 63.1918 148.119C62.6755 146.484 62.8149 144.372 63.5677 142.842C63.6185 142.744 63.6185 142.744 63.6704 142.644C63.705 142.575 63.7397 142.506 63.7754 142.435C64.13 141.754 64.5537 141.094 65.1262 140.576C65.0412 140.976 64.9458 141.371 64.8348 141.765C64.1561 144.205 64.0438 146.824 65.2985 149.104C65.59 149.615 65.9336 150.045 66.3521 150.46C66.4184 150.529 66.4848 150.599 66.5532 150.67C66.6132 150.727 66.6733 150.784 66.7352 150.843C66.7696 150.877 66.8041 150.911 66.8396 150.946C68.0796 152.1 69.9151 152.673 71.584 152.619C71.678 152.614 71.7719 152.61 71.8687 152.605C71.9492 152.604 72.0297 152.604 72.1126 152.603C73.647 152.554 75.1839 151.864 76.3126 150.843C76.3697 150.792 76.4268 150.741 76.4856 150.689C77.9795 149.281 78.7581 147.23 78.8543 145.2C78.9219 142.879 78.7109 140.746 77.1554 138.89C77.1072 138.827 77.059 138.764 77.0094 138.699C76.1616 137.682 74.8479 136.981 73.6309 136.515C73.5669 136.49 73.503 136.465 73.4371 136.439C72.2734 135.988 71.1102 135.702 69.8766 135.519C69.7931 135.506 69.7096 135.494 69.6236 135.481C67.7266 135.211 65.8113 135.258 63.9002 135.289C63.7996 135.29 63.6989 135.292 63.5952 135.294C60.5766 135.354 57.5347 135.804 54.5669 136.332C54.3853 136.364 54.2036 136.396 54.0219 136.428C52.5636 136.687 51.108 136.955 49.657 137.252C45.6072 138.079 41.5265 138.519 37.3984 138.687C37.3309 138.69 37.2633 138.693 37.1937 138.696C37.068 138.701 36.9423 138.706 36.8166 138.711C36.7313 138.714 36.7313 138.714 36.6442 138.718C36.5956 138.719 36.547 138.721 36.4969 138.723C36.3405 138.735 36.1847 138.755 36.0293 138.776C35.7128 138.816 35.3989 138.825 35.0802 138.825C35.0208 138.825 34.9613 138.825 34.9001 138.825C34.7042 138.826 34.5082 138.826 34.3122 138.826C34.173 138.827 34.0337 138.827 33.8944 138.827C33.4458 138.828 32.9971 138.828 32.5485 138.828C32.3946 138.828 32.2406 138.828 32.0867 138.828C29.7513 138.827 27.4218 138.795 25.0892 138.67C24.9143 138.661 24.7393 138.652 24.5642 138.644C21.5899 138.503 18.6088 138.211 15.6644 137.769C15.4619 137.738 15.2593 137.709 15.0568 137.679C13.4033 137.436 11.7617 137.176 10.1323 136.801C9.86832 136.741 9.60373 136.685 9.33875 136.63C8.20812 136.395 7.08878 136.134 5.97588 135.825C5.90126 135.805 5.82664 135.784 5.74976 135.763C4.26468 135.349 2.8183 134.844 1.37392 134.307C1.29688 134.279 1.21984 134.25 1.14047 134.221C0.774617 134.083 0.421005 133.941 0.0761719 133.756C0.32464 133.678 0.516111 133.682 0.773529 133.715C0.852265 133.724 0.931002 133.733 1.01212 133.743C1.09833 133.754 1.18453 133.765 1.27335 133.776C1.95148 133.856 2.62881 133.927 3.30953 133.981C4.57058 134.082 5.82266 134.232 7.07728 134.393C9.28391 134.677 11.4946 134.904 13.7093 135.113C13.9186 135.133 14.1279 135.153 14.3371 135.174C15.7273 135.31 17.1186 135.406 18.5127 135.49C18.5923 135.495 18.6719 135.5 18.7539 135.505C19.2216 135.533 19.6893 135.559 20.1572 135.583C20.2993 135.591 20.4414 135.599 20.5835 135.607C22.3094 135.706 24.0396 135.687 25.7677 135.686C25.8496 135.686 25.9315 135.686 26.0158 135.686C28.5073 135.686 30.9948 135.676 33.4823 135.519C33.5802 135.513 33.5802 135.513 33.6801 135.506C34.5508 135.451 35.4199 135.382 36.2888 135.305C36.4726 135.289 36.6563 135.273 36.8402 135.258C38.4577 135.126 40.0582 134.929 41.6614 134.676C41.7427 134.663 41.824 134.65 41.9078 134.637C42.926 134.475 43.9397 134.295 44.9517 134.097C45.209 134.047 45.4667 133.999 45.7244 133.951C47.0931 133.693 48.4476 133.392 49.8022 133.067C52.9882 132.303 56.1939 131.712 59.4515 131.357C59.5372 131.348 59.5372 131.348 59.6245 131.338C61.1821 131.17 62.731 131.135 64.2963 131.133Z" fill="#7ED857"/>
<path d="M45.512 102.266C45.5641 102.279 45.6161 102.293 45.6698 102.307C46.9462 102.642 48.176 103.211 49.2664 103.952C49.3324 103.996 49.3324 103.996 49.3997 104.042C49.9434 104.411 50.4529 104.799 50.9343 105.248C51.0913 105.394 51.2524 105.533 51.4165 105.671C54.0743 107.999 55.7307 111.738 56.0089 115.215C56.0289 115.584 56.0311 115.954 56.0289 116.324C56.028 116.484 56.0289 116.644 56.0298 116.803C56.0306 117.512 55.9661 118.191 55.8556 118.892C55.8407 118.996 55.8407 118.996 55.8255 119.101C55.3429 122.348 53.7182 125.452 51.1052 127.474C51.036 127.532 50.9668 127.589 50.8954 127.649C47.3325 130.551 41.9804 132.029 37.4704 132.402C37.1412 132.429 36.8202 132.472 36.4948 132.53C35.9685 132.621 35.4424 132.656 34.9098 132.689C34.7224 132.701 34.535 132.713 34.3477 132.725C34.2661 132.73 34.1845 132.735 34.1004 132.74C33.8694 132.757 33.8694 132.757 33.658 132.798C33.2966 132.854 32.9363 132.866 32.5711 132.879C32.4852 132.883 32.3993 132.886 32.3107 132.889C31.134 132.928 29.9568 132.928 28.7796 132.928C28.5127 132.928 28.2457 132.929 27.9788 132.93C26.3428 132.936 24.7204 132.903 23.0886 132.78C22.8334 132.761 22.5782 132.743 22.3229 132.727C18.5551 132.481 14.7766 131.916 11.0907 131.108C11.0243 131.094 10.958 131.079 10.8896 131.064C9.39069 130.735 7.91027 130.353 6.43604 129.926C6.38084 129.91 6.32564 129.894 6.26877 129.878C4.01417 129.218 1.88887 128.01 0 126.631C0.211718 126.525 0.312264 126.581 0.54019 126.639C0.621135 126.66 0.702083 126.68 0.785481 126.701C0.873737 126.724 0.96199 126.747 1.05292 126.771C1.14431 126.794 1.23569 126.817 1.32984 126.841C1.62416 126.916 1.91829 126.991 2.21239 127.067C3.40372 127.372 4.59113 127.672 5.80001 127.9C6.10044 127.957 6.39985 128.02 6.69942 128.081C10.0616 128.769 13.4546 129.353 16.8802 129.605C16.9398 129.609 16.9994 129.614 17.0608 129.618C17.4777 129.648 17.8947 129.673 18.3121 129.696C18.3788 129.699 18.4455 129.703 18.5142 129.707C19.8654 129.777 21.2165 129.791 22.5692 129.792C22.6521 129.792 22.6521 129.792 22.7366 129.792C24.9231 129.794 27.0978 129.711 29.2795 129.558C29.4844 129.544 29.6895 129.53 29.8945 129.516C33.2966 129.293 36.691 128.864 39.9954 128.01C40.1103 127.98 40.1103 127.98 40.2276 127.95C43.4616 127.104 46.4848 125.865 48.9599 123.566C49.0109 123.52 49.062 123.474 49.1146 123.427C50.8038 121.837 51.8842 119.338 51.956 117.026C51.9612 116.716 51.9629 116.406 51.9624 116.096C51.9623 116.041 51.9623 115.986 51.9622 115.929C51.96 115.144 51.9484 114.378 51.7948 113.606C51.7833 113.546 51.7717 113.487 51.7598 113.425C51.2402 110.814 49.918 108.281 47.6686 106.756C45.5823 105.388 42.9614 104.77 40.4985 105.252C38.1718 105.753 36.1033 107.082 34.8009 109.091C33.1508 111.732 32.7874 114.88 33.4827 117.896C33.5788 118.282 33.6925 118.661 33.8147 119.04C33.9088 119.333 33.9975 119.627 34.0861 119.922C34.1035 119.978 34.121 120.034 34.1389 120.091C34.2576 120.484 34.2576 120.484 34.1723 120.655C33.6054 120.023 33.0563 119.407 32.6399 118.663C32.601 118.596 32.5621 118.529 32.522 118.46C31.1563 115.953 31.2744 112.977 32.0584 110.318C32.6703 108.326 33.7783 106.644 35.245 105.178C35.3278 105.089 35.3278 105.089 35.4123 104.999C35.8845 104.504 36.3915 104.111 36.9564 103.731C37.0706 103.654 37.1837 103.575 37.2967 103.497C38.2304 102.868 39.2968 102.48 40.3785 102.189C40.4663 102.165 40.5541 102.14 40.6446 102.115C42.1988 101.751 43.982 101.843 45.512 102.266Z" fill="#7FD857"/>
<path d="M79.3024 108.27C80.1 108.982 80.786 109.719 81.3675 110.617C81.4152 110.69 81.4629 110.763 81.5121 110.838C83.181 113.535 83.7115 117.116 83.0531 120.195C82.9293 120.69 82.7691 121.171 82.5934 121.651C82.5635 121.735 82.5336 121.819 82.5027 121.905C82.0919 122.971 81.4488 123.882 80.6779 124.715C80.6421 124.755 80.6062 124.794 80.5693 124.834C79.6538 125.825 78.5765 126.55 77.3833 127.167C77.3201 127.2 77.257 127.234 77.1919 127.268C75.9952 127.891 74.7686 128.321 73.4757 128.7C73.3787 128.729 73.3787 128.729 73.2797 128.759C70.2654 129.664 67.0557 129.85 63.9272 129.867C63.6875 129.868 63.4478 129.87 63.2081 129.872C62.5278 129.877 61.8475 129.882 61.1672 129.885C60.7476 129.888 60.328 129.891 59.9085 129.895C59.7509 129.896 59.5934 129.897 59.4358 129.898C58.0815 129.903 56.7406 129.983 55.4046 130.216C55.3287 130.229 55.2528 130.242 55.1746 130.255C54.4151 130.389 53.666 130.563 52.9163 130.742C51.6967 131.034 50.4763 131.305 49.24 131.515C49.1548 131.53 49.1548 131.53 49.0678 131.545C48.157 131.702 48.157 131.702 47.8848 131.611C49.4444 130.454 51.2221 129.575 53.0183 128.853C53.0803 128.828 53.1424 128.803 53.2063 128.777C54.0689 128.434 54.9371 128.182 55.841 127.972C56.0583 127.921 56.2741 127.865 56.4901 127.809C57.3865 127.586 58.2959 127.426 59.2101 127.297C59.2654 127.289 59.3208 127.281 59.3778 127.273C60.6363 127.096 61.9013 126.99 63.1668 126.88C71.0268 126.235 71.0268 126.235 77.4599 122.034C78.75 120.394 79.1871 118.495 79.0689 116.441C79.0658 116.384 79.0628 116.327 79.0596 116.269C78.9184 114.071 77.8647 111.895 76.243 110.416C75.5851 109.843 74.9358 109.433 74.1174 109.138C74.0634 109.118 74.0094 109.099 73.9538 109.079C72.4845 108.576 70.9384 108.881 69.5708 109.53C67.901 110.39 66.8115 111.86 66.058 113.539C66.0367 113.585 66.0154 113.632 65.9935 113.68C65.6623 114.444 65.5428 115.204 65.5504 116.033C65.551 116.167 65.551 116.167 65.5516 116.302C65.5717 117.474 65.7652 118.622 66.0758 119.75C66.1234 119.98 66.1278 120.19 66.1202 120.425C65.7725 120.154 65.5067 119.876 65.2487 119.52C65.2125 119.47 65.1764 119.42 65.1391 119.369C63.8606 117.556 63.575 115.482 63.9413 113.313C64.365 111.021 65.5667 108.893 67.5027 107.548C71.1734 105.147 75.9416 105.438 79.3024 108.27Z" fill="#027F37"/>
<path d="M43.7808 142.77C45.2914 144.147 46.0963 145.951 46.2181 147.984C46.2987 150.595 45.8125 152.955 44.0558 154.98C44.0041 155.043 43.9523 155.106 43.899 155.17C42.8207 156.438 41.2189 157.39 39.5474 157.573C37.5014 157.728 35.8158 157.259 34.2231 155.928C33.0758 154.907 32.38 153.918 31.919 152.444C31.8776 152.312 31.8321 152.182 31.7862 152.052C31.5404 150.975 31.5879 149.683 32.1032 148.697C32.1669 148.574 32.1669 148.574 32.2319 148.448C32.4774 148.003 32.7439 147.605 33.0992 147.242C33.1498 147.242 33.2004 147.242 33.2525 147.242C33.2541 147.336 33.2541 147.336 33.2558 147.432C33.2983 149.571 33.3729 151.704 34.9219 153.362C35.7999 154.204 36.8236 154.559 38.0175 154.539C39.2619 154.459 40.2395 153.881 41.0676 152.973C41.4134 152.557 41.6317 152.109 41.8338 151.609C41.859 151.55 41.8842 151.49 41.9102 151.429C42.3608 150.237 42.3143 148.566 41.8338 147.395C41.1105 145.826 39.8535 144.923 38.2725 144.302C37.1569 143.91 35.9975 143.665 34.8327 143.473C34.7273 143.455 34.7273 143.455 34.6197 143.437C32.8106 143.154 30.9921 143.153 29.1664 143.141C28.8052 143.139 28.444 143.136 28.0827 143.132C27.9172 143.131 27.7518 143.13 27.5863 143.129C26.5957 143.122 25.6099 143.039 24.6567 142.755C24.5894 142.735 24.5221 142.715 24.4528 142.695C22.7194 142.164 21.0398 141.302 19.4609 140.422C19.4609 140.397 19.4609 140.372 19.4609 140.346C19.9736 140.332 20.4791 140.348 20.9897 140.396C23.8106 140.656 26.7097 140.794 29.5167 140.353C34.0656 139.66 40.1143 139.528 43.7808 142.77Z" fill="#027F37"/>
<path d="M63.4359 140.116C63.3923 140.153 63.3487 140.19 63.3039 140.228C62.9036 140.576 62.5483 140.935 62.2099 141.342C62.1555 141.404 62.1011 141.466 62.045 141.53C60.6917 143.11 60.238 144.952 60.3711 147.012C60.4183 147.452 60.5038 147.882 60.6009 148.314C60.6175 148.388 60.6341 148.463 60.6512 148.539C61.1532 150.547 62.3161 152.145 63.6657 153.678C62.9965 153.678 62.4249 153.043 61.9801 152.605C61.9168 152.543 61.8535 152.48 61.7882 152.416C60.04 150.597 59.2547 148.1 59.2819 145.619C59.3233 144.029 59.9703 142.497 61.0606 141.342C61.3056 141.122 61.5605 140.922 61.8268 140.729C61.898 140.674 61.9691 140.618 62.0423 140.561C63.1111 139.953 63.1111 139.953 63.4359 140.116Z" fill="#CAE06C"/>
<path d="M43.9056 109.315C43.829 109.468 43.829 109.468 43.6932 109.525C43.6345 109.543 43.5758 109.561 43.5153 109.579C43.4496 109.599 43.3839 109.62 43.3162 109.641C43.2452 109.663 43.1742 109.685 43.1011 109.708C41.9462 110.08 40.9338 110.522 39.998 111.307C39.955 111.342 39.9121 111.376 39.8678 111.412C39.544 111.677 39.2885 111.958 39.045 112.298C38.9913 112.373 38.9913 112.373 38.9365 112.449C38.1108 113.623 37.5852 114.821 37.6994 116.287C37.7039 116.361 37.7085 116.435 37.7132 116.511C37.8149 117.469 38.2013 118.462 38.6386 119.317C38.7721 119.582 38.7721 119.582 38.7721 119.735C38.4777 119.62 38.3491 119.446 38.1591 119.199C38.1006 119.145 38.0422 119.091 37.9819 119.036C37.0395 118.028 36.6573 116.723 36.6662 115.365C36.722 113.806 37.4569 112.411 38.5709 111.346C39.5676 110.424 40.668 109.802 41.9901 109.468C42.0849 109.442 42.0849 109.442 42.1816 109.416C42.7508 109.279 43.3241 109.301 43.9056 109.315Z" fill="#CAE06A"/>
<path d="M133.91 115.361C133.964 115.361 134.019 115.361 134.075 115.361C137.755 115.362 141.108 116.666 144.359 118.273C144.149 118.343 144.084 118.335 143.874 118.29C143.79 118.272 143.79 118.272 143.704 118.254C143.616 118.235 143.616 118.235 143.527 118.216C143.411 118.191 143.296 118.167 143.181 118.142C143.13 118.131 143.079 118.12 143.027 118.109C142.587 118.028 142.158 117.999 141.712 117.995C141.654 117.994 141.597 117.994 141.537 117.993C140.312 117.982 139.125 117.975 137.929 118.273C137.873 118.286 137.817 118.3 137.759 118.314C134.918 119.006 132.303 120.502 129.933 122.177C129.793 122.275 129.653 122.373 129.512 122.471C128.349 123.284 127.217 124.139 126.093 125.006C125.581 125.401 125.064 125.79 124.546 126.178C124.415 126.276 124.284 126.374 124.154 126.473C123.688 126.824 123.22 127.171 122.747 127.512C122.701 127.546 122.654 127.58 122.606 127.615C119.11 130.132 115.35 132.419 111.027 133.102C110.938 133.117 110.938 133.117 110.848 133.132C108.987 133.434 107.169 133.336 105.319 133.036C105.257 133.027 105.196 133.017 105.133 133.008C103.517 132.752 101.964 132.163 100.463 131.527C100.41 131.505 100.356 131.483 100.301 131.46C97.4386 130.269 94.763 128.407 92.3843 126.434C92.2374 126.313 92.0898 126.192 91.9414 126.073C91.4947 125.713 91.0536 125.352 90.6307 124.964C90.5007 124.845 90.3688 124.728 90.2354 124.613C89.975 124.386 89.7212 124.153 89.4674 123.919C89.2874 123.753 89.1055 123.591 88.9191 123.432C88.6364 123.188 88.3771 122.921 88.1147 122.655C87.8746 122.413 87.6284 122.183 87.3658 121.965C87.2746 121.882 87.2746 121.882 87.209 121.751C87.3962 121.838 87.551 121.936 87.7116 122.066C87.7576 122.102 87.8036 122.139 87.851 122.177C87.9004 122.216 87.9497 122.256 88.0005 122.296C88.6136 122.779 89.2484 123.223 89.8992 123.653C89.9478 123.686 89.9965 123.718 90.0466 123.751C91.0644 124.423 92.1082 125.04 93.1799 125.622C93.2367 125.653 93.2936 125.684 93.3521 125.716C96.3361 127.34 99.6653 128.471 103.088 128.468C103.14 128.468 103.193 128.468 103.248 128.468C106.833 128.467 110.214 127.232 113.25 125.378C113.396 125.289 113.544 125.203 113.692 125.117C114.539 124.621 115.349 124.076 116.157 123.518C116.317 123.408 116.477 123.298 116.638 123.189C117.14 122.847 117.635 122.496 118.127 122.139C118.605 121.792 119.087 121.451 119.571 121.111C119.67 121.041 119.77 120.971 119.869 120.901C120.605 120.381 121.359 119.888 122.119 119.405C122.26 119.315 122.4 119.224 122.54 119.134C123.523 118.503 124.532 117.934 125.582 117.424C125.735 117.349 125.887 117.273 126.039 117.197C128.51 115.971 131.156 115.364 133.91 115.361Z" fill="#7FCBF7"/>
<path d="M165.512 129.329C165.686 129.489 165.854 129.653 166.019 129.821C166.094 129.896 166.094 129.896 166.171 129.973C166.229 130.031 166.288 130.089 166.347 130.149C166.384 130.183 166.42 130.216 166.457 130.25C167.219 130.968 167.782 131.881 168.316 132.774C168.361 132.848 168.406 132.922 168.452 132.998C169.448 134.675 170.375 136.917 170.547 138.876C170.525 138.919 170.503 138.963 170.481 139.007C170.437 138.951 170.394 138.895 170.349 138.836C170.154 138.586 169.957 138.337 169.759 138.089C169.717 138.035 169.717 138.035 169.673 137.981C168.933 137.057 168.086 136.172 167.135 135.464C167.092 135.432 167.048 135.399 167.004 135.366C164.746 133.686 162.246 132.621 159.458 132.183C159.392 132.173 159.325 132.162 159.257 132.151C157.364 131.855 155.388 131.919 153.487 132.118C153.423 132.125 153.359 132.131 153.292 132.138C151.025 132.384 148.794 132.964 146.622 133.643C146.548 133.666 146.548 133.666 146.473 133.69C146.178 133.784 145.898 133.898 145.613 134.021C145.448 134.079 145.283 134.137 145.117 134.193C144.418 134.435 143.736 134.717 143.054 135.005C143.007 135.025 142.959 135.045 142.91 135.066C141.013 135.871 139.08 136.778 137.346 137.892C137.222 137.97 137.098 138.048 136.973 138.126C136.921 138.158 136.869 138.191 136.816 138.224C136.774 138.245 136.733 138.265 136.69 138.286C136.647 138.264 136.603 138.242 136.559 138.22C136.989 137.818 137.423 137.428 137.881 137.059C138.049 136.923 138.214 136.784 138.379 136.643C138.768 136.31 139.166 135.993 139.574 135.683C139.752 135.547 139.927 135.408 140.102 135.267C141.554 134.101 143.069 133.003 144.629 131.987C144.681 131.953 144.732 131.919 144.785 131.885C146.227 130.945 147.714 130.097 149.247 129.318C149.393 129.244 149.537 129.17 149.682 129.094C151.755 128.029 153.954 127.336 156.243 126.934C156.291 126.925 156.338 126.917 156.388 126.907C159.601 126.317 163.05 127.192 165.512 129.329Z" fill="#7FCBF7"/>
<path d="M147.984 119.509C148.087 119.509 148.087 119.509 148.192 119.508C148.336 119.508 148.481 119.508 148.625 119.508C148.841 119.508 149.057 119.506 149.273 119.505C150.433 119.502 151.58 119.561 152.719 119.791C152.789 119.805 152.86 119.819 152.932 119.833C155.904 120.443 158.651 121.575 161.352 122.932C161.139 123.003 161.066 122.993 160.853 122.949C160.793 122.937 160.734 122.925 160.673 122.913C160.581 122.894 160.581 122.894 160.486 122.875C160.365 122.85 160.244 122.825 160.123 122.801C160.069 122.79 160.015 122.779 159.96 122.768C159.499 122.686 159.054 122.658 158.587 122.656C158.523 122.656 158.46 122.655 158.395 122.655C158.262 122.654 158.128 122.654 157.995 122.654C157.795 122.653 157.596 122.651 157.396 122.649C156.271 122.643 155.198 122.775 154.105 123.047C154.037 123.064 153.968 123.081 153.897 123.098C152.629 123.418 151.447 123.89 150.263 124.441C150.205 124.468 150.148 124.494 150.089 124.522C147.659 125.661 145.369 127.275 143.302 128.98C142.99 129.237 142.671 129.483 142.348 129.727C141.915 130.055 141.499 130.399 141.09 130.755C140.902 130.918 140.712 131.076 140.519 131.232C140.242 131.457 139.969 131.688 139.699 131.921C139.371 132.203 139.04 132.479 138.704 132.752C138.487 132.931 138.272 133.115 138.059 133.299C137.735 133.578 137.408 133.852 137.076 134.122C136.878 134.283 136.68 134.446 136.483 134.608C134.814 135.985 134.814 135.985 133.987 136.613C133.835 136.729 133.684 136.846 133.532 136.962C129.159 140.315 124.283 143.245 118.702 143.863C118.652 143.869 118.602 143.874 118.551 143.88C118.159 143.923 117.772 143.94 117.377 143.942C117.315 143.942 117.254 143.943 117.19 143.943C116.991 143.944 116.793 143.945 116.594 143.945C116.527 143.945 116.459 143.945 116.389 143.945C115.394 143.944 114.434 143.911 113.453 143.732C113.387 143.72 113.32 143.709 113.252 143.698C106.707 142.588 100.964 138.728 95.5518 133.952C95.425 133.838 95.2966 133.726 95.1673 133.615C94.9024 133.384 94.6452 133.145 94.3881 132.905C94.3471 132.867 94.3061 132.829 94.2638 132.79C94.0575 132.597 93.8546 132.402 93.6556 132.201C93.5057 132.05 93.3539 131.906 93.1907 131.769C92.8631 131.487 92.5623 131.179 92.2598 130.871C92.4938 130.871 92.5356 130.914 92.7191 131.052C95.4522 133.017 98.5975 134.613 101.774 135.727C101.843 135.751 101.913 135.776 101.984 135.801C103.551 136.345 105.22 136.769 106.867 136.982C106.94 136.991 107.012 137.001 107.087 137.011C107.826 137.094 108.564 137.12 109.307 137.121C109.358 137.121 109.409 137.121 109.462 137.121C111.612 137.118 113.772 136.873 115.815 136.186C115.886 136.163 115.957 136.14 116.03 136.116C117.444 135.654 118.821 135.124 120.125 134.403C120.345 134.282 120.568 134.171 120.794 134.062C122.784 133.072 124.663 131.753 126.451 130.438C126.643 130.298 126.837 130.16 127.031 130.022C127.552 129.652 128.065 129.271 128.579 128.891C128.74 128.773 128.9 128.654 129.061 128.536C129.548 128.178 130.034 127.819 130.517 127.455C131.455 126.749 132.414 126.071 133.378 125.401C133.518 125.303 133.657 125.206 133.797 125.108C134.837 124.382 135.911 123.699 137.009 123.063C137.094 123.013 137.094 123.013 137.181 122.963C139.866 121.411 142.672 120.254 145.735 119.717C145.8 119.705 145.865 119.693 145.932 119.681C145.998 119.67 146.064 119.658 146.131 119.647C146.218 119.631 146.218 119.631 146.307 119.616C146.866 119.538 147.42 119.51 147.984 119.509Z" fill="#527EBA"/>
<path fill-rule="evenodd" clip-rule="evenodd" d="M214.619 106.288L214.819 106.288C217.145 106.29 219.408 106.585 221.6 107.374C221.778 107.438 221.956 107.499 222.135 107.56C223.009 107.864 223.81 108.277 224.621 108.72C224.833 108.834 225.046 108.944 225.261 109.054L225.468 109.16C225.598 109.227 225.729 109.293 225.86 109.359C226.125 109.496 226.231 109.551 226.294 109.636C226.335 109.692 226.358 109.762 226.396 109.877C226.469 109.92 226.508 109.943 226.549 109.963C226.595 109.987 226.642 110.007 226.744 110.051C227.855 110.71 228.819 111.491 229.755 112.374C229.904 112.512 230.058 112.644 230.213 112.775C231.113 113.556 231.926 114.421 232.66 115.357L233.04 115.809C233.365 116.206 233.666 116.617 233.959 117.037L234.084 117.214C234.31 117.543 234.468 117.839 234.574 118.228H234.748C236.029 120.552 237.035 122.821 237.695 125.405L237.77 125.697C238.124 127.136 238.175 128.542 238.173 130.016L238.174 130.299C238.173 131.368 238.153 132.389 237.916 133.435C237.731 134.349 237.762 135.294 237.792 136.227C237.797 136.37 237.802 136.513 237.805 136.656C237.829 137.748 237.709 138.742 237.445 139.803L237.377 140.078C237.322 140.284 237.263 140.486 237.2 140.689L237.133 140.905C236.794 141.973 236.36 142.967 235.824 143.951L235.704 144.172C235.475 144.582 235.227 144.928 234.922 145.284L234.922 145.284C234.864 145.381 234.836 145.427 234.812 145.474C234.791 145.517 234.772 145.56 234.737 145.642C234.618 145.894 234.503 146.12 234.313 146.327H234.139L234.079 146.518C233.954 146.786 233.795 146.94 233.593 147.136L233.593 147.136L233.53 147.197C233.373 147.367 233.217 147.537 233.062 147.709C232.747 148.055 232.428 148.396 232.093 148.724C231.971 148.843 231.853 148.966 231.736 149.09C231.533 149.281 231.332 149.405 231.094 149.546L230.92 149.807C230.776 149.868 230.631 149.925 230.485 149.981C230.339 150.079 230.196 150.181 230.055 150.286C229.743 150.51 229.473 150.674 229.093 150.764V150.938L228.816 151.052C228.611 151.139 228.44 151.227 228.25 151.346C228.169 151.392 228.12 151.42 228.068 151.436C227.992 151.46 227.908 151.46 227.701 151.46V151.634L227.701 151.634C225.216 152.498 224.516 152.741 223.795 152.88C223.513 152.934 223.227 152.973 222.83 153.026L222.829 153.026L222.635 153.055C218.427 153.666 213.993 152.901 210.128 151.199C210.003 151.145 209.878 151.092 209.752 151.038C209.412 150.893 209.074 150.742 208.736 150.59L208.565 150.513C206.622 149.64 204.749 148.58 202.995 147.371L202.825 147.255C201.442 146.299 200.021 145.293 198.844 144.084C198.75 143.979 198.703 143.927 198.645 143.892C198.588 143.857 198.52 143.839 198.384 143.805V143.631H198.21V143.457H198.036C197.979 143.399 197.947 143.367 197.917 143.333C197.878 143.291 197.842 143.247 197.759 143.147C197.555 142.906 197.348 142.677 197.123 142.456C196.602 141.942 196.142 141.38 195.689 140.807C195.577 140.667 195.465 140.527 195.351 140.389C194.124 138.893 193.118 137.266 192.283 135.523C192.215 135.382 192.144 135.243 192.073 135.104C190.764 132.469 190.377 129.487 190.468 126.58L190.474 126.342C190.587 123.242 191.877 120.341 193.425 117.706H193.599L193.619 117.567C193.709 117.287 193.87 117.067 194.04 116.833L194.061 116.804L194.177 116.644C194.473 116.24 194.786 115.853 195.111 115.472L195.242 115.317C195.414 115.119 195.577 114.939 195.788 114.785C195.871 114.729 195.914 114.699 195.949 114.661C195.987 114.619 196.014 114.566 196.071 114.455C196.238 114.179 196.435 114.004 196.677 113.792C196.996 113.51 197.302 113.223 197.601 112.922C198.037 112.508 198.482 112.141 198.989 111.819C199.077 111.763 199.123 111.735 199.167 111.704C199.214 111.67 199.259 111.634 199.353 111.559L199.353 111.559C199.439 111.497 199.479 111.468 199.524 111.455C199.564 111.443 199.607 111.443 199.689 111.443V111.269C199.757 111.214 199.795 111.184 199.835 111.154C199.888 111.116 199.942 111.08 200.069 110.997L200.316 110.834L200.586 110.66L200.86 110.482C201.608 110.004 202.373 109.576 203.168 109.181C203.326 109.102 203.483 109.021 203.64 108.94C204.225 108.64 204.821 108.382 205.431 108.137L205.65 108.045C206.232 107.803 206.828 107.621 207.431 107.441L207.706 107.354C208.797 107.008 209.887 106.746 211.015 106.555L211.271 106.511C212.383 106.329 213.495 106.289 214.619 106.288ZM211.357 116.113C211.596 116.113 211.834 116.111 212.073 116.109C214.947 116.098 217.788 117.093 219.872 119.098C219.963 119.172 220.056 119.245 220.149 119.316C221.57 120.578 222.463 122.44 223.004 124.231L223.06 124.413C223.571 126.145 223.567 128.322 223.091 130.059L223.017 130.363C222.703 131.579 222.149 133.145 221.264 134.061H221.09L221.062 134.216C220.969 134.519 220.75 134.741 220.531 134.964L220.531 134.964C220.485 135.011 220.439 135.058 220.394 135.105L220.174 135.339C219.408 136.131 218.562 136.729 217.61 137.28L217.384 137.425C217.284 137.481 217.232 137.509 217.176 137.525C217.115 137.541 217.05 137.541 216.914 137.541V137.715C213.833 138.821 211.429 139.141 208.389 137.715C207.898 137.464 207.441 137.181 206.997 136.856L206.839 136.741C206.735 136.665 206.632 136.589 206.528 136.513C206.408 136.425 206.286 136.338 206.163 136.252C205.62 135.857 205.23 135.373 204.822 134.844L204.653 134.636C203.498 133.207 202.919 131.458 203.082 129.624C203.182 129.024 203.396 128.5 203.691 127.972L203.795 127.776C204.022 127.353 204.264 126.957 204.561 126.58H204.735L204.795 126.427C204.93 126.196 205.096 126.071 205.304 125.914L205.344 125.884L205.451 125.766C206.15 125.113 207.148 124.699 208.041 124.405L208.266 124.321C209.372 123.951 210.72 124.009 211.781 124.492C211.898 124.573 211.948 124.608 211.997 124.645C212.033 124.673 212.068 124.702 212.129 124.753C212.034 125.02 211.96 125.098 211.711 125.248C211.348 125.511 211.198 125.82 211.007 126.215L210.999 126.232L210.912 126.406C210.889 126.67 210.887 126.934 210.885 127.199V127.199L210.884 127.33L210.877 127.587C210.871 128.275 211.026 128.713 211.444 129.255C212.032 129.715 212.783 129.874 213.506 130.027C213.582 130.043 213.658 130.059 213.733 130.076C213.934 130.12 214.136 130.165 214.337 130.21L214.603 130.268L214.603 130.268C214.705 130.292 214.76 130.305 214.815 130.32C214.88 130.338 214.945 130.36 215.087 130.407L215.087 130.407C215.696 130.483 216.202 130.346 216.74 130.059C216.858 129.958 216.91 129.913 216.957 129.864C216.994 129.826 217.028 129.785 217.088 129.711L217.088 129.711H217.262C217.569 128.829 217.644 128.001 217.643 127.069L217.643 126.756C217.634 126 217.539 125.3 217.311 124.579L217.244 124.365L217.175 124.144C217.126 123.981 217.077 123.818 217.028 123.654L216.962 123.434L216.914 123.274H216.74L216.676 123.133C216.191 122.168 215.406 121.533 214.478 121.012L214.241 120.874C213.235 120.327 212.058 119.992 210.912 119.968L210.745 119.96C208.472 119.856 206.114 120.374 204.112 121.462C203.952 121.534 203.952 121.534 203.691 121.534V121.708L203.428 121.806C203.041 121.972 202.74 122.217 202.419 122.485L202.249 122.624C202.141 122.713 202.032 122.802 201.924 122.892C201.797 122.996 201.668 123.098 201.538 123.199C201.353 123.352 201.203 123.505 201.049 123.687C200.893 123.869 200.738 124.051 200.577 124.229C199.891 124.988 199.426 125.832 198.993 126.754L198.906 126.937C198.726 127.361 198.654 127.814 198.582 128.266L198.566 128.367C198.519 128.65 198.501 128.757 198.448 128.844C198.416 128.897 198.37 128.942 198.297 129.015C198.208 126.522 198.844 123.641 200.385 121.621H200.559L200.582 121.474C200.747 120.955 201.226 120.497 201.631 120.109C201.681 120.061 201.73 120.014 201.777 119.968L201.927 119.768C202.16 119.491 202.415 119.284 202.701 119.065L202.866 118.938C203.025 118.817 203.184 118.697 203.343 118.576L203.567 118.403C204.991 117.35 206.829 116.638 208.563 116.314L208.812 116.268C209.661 116.127 210.498 116.111 211.357 116.113ZM220.565 112.487C218.472 111.787 216.321 111.638 214.128 111.704V111.791C214.278 111.817 214.429 111.844 214.58 111.871L214.769 111.905C215.17 111.974 215.559 112.059 215.949 112.176L215.951 112.177C216.166 112.244 216.381 112.31 216.598 112.373C217.838 112.724 219.054 113.107 220.174 113.759C220.199 113.775 220.225 113.79 220.25 113.806C220.445 113.926 220.638 114.045 220.841 114.151C223.15 115.327 225.053 117.49 226.238 119.752L226.394 120.055C227.985 123.113 228.683 126.442 227.999 129.87L227.96 130.06C227.6 131.897 226.816 133.598 225.796 135.16C225.62 135.422 225.454 135.675 225.327 135.966L225.263 136.149H225.089L224.96 136.318C224.676 136.754 224.388 137.138 224.011 137.497C223.978 137.528 223.952 137.552 223.927 137.576C223.846 137.653 223.768 137.731 223.436 138.063C223.011 138.511 222.582 138.914 222.082 139.276C221.922 139.389 221.763 139.506 221.609 139.629V139.803C221.525 139.803 221.482 139.803 221.442 139.814C221.398 139.827 221.359 139.852 221.277 139.906C218.946 141.62 216.426 142.62 213.598 143.164L213.432 143.196V143.37C217.554 143.909 222.014 143.88 225.849 142.079L226.089 141.961C227.26 141.395 228.409 140.712 229.352 139.803V139.629C229.662 139.514 229.847 139.315 230.062 139.069L230.194 138.911C230.661 138.36 231.075 137.791 231.44 137.168L231.527 137.019C231.635 136.832 231.74 136.644 231.842 136.454C232.516 135.055 233.025 133.651 232.527 132.137C232.45 131.909 232.378 131.682 232.309 131.451C232.234 130.928 232.26 130.504 232.57 130.06C232.593 130.046 232.614 130.033 232.635 130.021C232.833 129.901 232.956 129.827 233.092 129.625C233.338 127.927 232.76 125.927 232.163 124.352C232.103 124.198 232.044 124.044 231.987 123.889C231.55 122.68 231.098 121.433 230.287 120.419L230.135 120.229C230.006 119.903 229.863 119.637 229.653 119.353L229.526 119.185C229.386 118.999 229.245 118.814 229.101 118.631L228.917 118.402C228.223 117.54 227.471 116.769 226.648 116.029L226.481 115.879C224.86 114.418 222.969 113.299 220.896 112.594L220.565 112.487Z" fill="#FEDE59"/>
<path d="M241.66 97.7138C241.985 97.8789 242.169 98.0318 242.405 98.3065C242.463 98.3702 242.463 98.3702 242.522 98.4352C242.945 98.9132 243.052 99.2815 243.035 99.9077C242.936 100.966 242.265 102.018 241.637 102.843C241.461 103.075 241.292 103.31 241.125 103.547C239.927 105.247 239.927 105.247 239.105 105.818C238.582 106.185 238.063 106.669 237.807 107.266C237.684 107.481 237.516 107.602 237.325 107.754C237.085 107.964 236.907 108.219 236.718 108.474C236.128 109.243 235.511 109.752 234.663 110.225C234.573 110.279 234.483 110.332 234.391 110.388C234.062 110.517 233.793 110.556 233.445 110.486C233.067 110.283 233.067 110.283 232.923 110.051C232.704 109.146 233.197 108.094 233.639 107.327C233.918 106.903 234.243 106.519 234.576 106.136C234.914 105.768 234.914 105.768 235.184 105.353C235.242 105.353 235.299 105.353 235.358 105.353C235.416 105.209 235.473 105.066 235.532 104.918C235.59 104.918 235.647 104.918 235.706 104.918C235.744 104.823 235.744 104.823 235.781 104.727C236.313 103.418 236.991 102.165 237.685 100.936C237.798 100.736 237.91 100.535 238.021 100.334C239.819 97.0966 239.819 97.0966 241.66 97.7138Z" fill="#FEDE5A"/>
<path d="M189.678 145.096C190.091 145.317 190.091 145.317 190.205 145.544C190.274 146.551 189.625 147.599 189.074 148.415C188.928 148.57 188.784 148.694 188.614 148.821C188.385 149 188.209 149.22 188.021 149.441C187.837 149.656 187.649 149.865 187.46 150.074C187.393 150.148 187.326 150.222 187.258 150.299C187.152 150.416 187.046 150.533 186.938 150.648C186.619 151 186.355 151.388 186.089 151.781C186.051 151.838 186.012 151.895 185.972 151.953C185.936 152.008 185.899 152.063 185.862 152.119C185.829 152.168 185.797 152.217 185.763 152.267C185.674 152.431 185.632 152.583 185.595 152.765C185.537 152.765 185.48 152.765 185.421 152.765C185.397 152.813 185.374 152.862 185.351 152.911C185.011 153.569 184.571 154.173 184.132 154.768C183.91 155.07 183.692 155.374 183.474 155.679C183.437 155.731 183.399 155.784 183.361 155.837C183.203 156.058 183.048 156.28 182.898 156.506C182.812 156.506 182.725 156.506 182.637 156.506C182.637 156.563 182.637 156.621 182.637 156.68C182.003 157.155 181.416 157.195 180.636 157.115C180.068 156.92 179.537 156.526 179.241 155.997C179.03 155.506 178.97 155.001 179.13 154.486C179.216 154.282 179.312 154.09 179.418 153.896C179.456 153.826 179.494 153.756 179.533 153.684C179.799 153.219 180.103 152.804 180.444 152.392C180.584 152.22 180.718 152.049 180.849 151.871C180.886 151.822 180.923 151.773 180.961 151.722C181.065 151.582 181.169 151.442 181.272 151.301C181.679 150.792 182.215 150.4 182.736 150.014C183.722 149.278 184.567 148.428 185.421 147.545C185.697 147.26 185.974 146.975 186.252 146.692C186.344 146.596 186.344 146.596 186.437 146.498C187.133 145.789 188.634 144.644 189.678 145.096Z" fill="#FDDE5B"/>
<path d="M219.868 156.158C219.868 156.215 219.868 156.273 219.868 156.332C219.968 156.353 219.968 156.353 220.069 156.375C220.411 156.566 220.468 156.846 220.575 157.202C220.597 157.273 220.619 157.344 220.642 157.417C220.992 158.588 221.095 159.727 221.148 160.944C221.151 161.011 221.154 161.079 221.157 161.149C221.162 161.252 221.162 161.252 221.166 161.356C221.212 162.357 221.339 163.297 221.574 164.273C221.813 165.279 221.947 166.293 222.081 167.317C222.094 167.415 222.094 167.415 222.107 167.515C222.131 167.693 222.153 167.871 222.176 168.049C222.207 168.268 222.247 168.472 222.304 168.685C222.383 169.357 222.218 169.869 221.838 170.423C221.489 170.863 221.1 171.116 220.564 171.295C219.914 171.353 219.341 171.388 218.794 170.998C218.375 170.596 218.215 170.237 218.08 169.686C218.061 169.613 218.043 169.54 218.025 169.465C217.729 168.239 217.584 167.032 217.574 165.771C217.573 165.681 217.572 165.592 217.57 165.499C217.574 164.902 217.643 164.332 217.736 163.744C217.913 162.612 217.908 161.486 217.912 160.343C217.913 160.071 217.916 159.8 217.919 159.528C217.919 159.447 217.919 159.366 217.918 159.282C217.927 158.511 218.146 157.852 218.449 157.147C218.487 157.058 218.525 156.969 218.565 156.878C218.593 156.812 218.621 156.747 218.651 156.68C218.708 156.68 218.765 156.68 218.825 156.68C218.85 156.61 218.875 156.54 218.901 156.468C219.09 156.037 219.452 156.151 219.868 156.158Z" fill="#FEDE5B"/>
<path d="M243.838 138.987C243.916 138.987 243.994 138.987 244.074 138.987C244.539 138.995 244.971 139.054 245.425 139.153C246.136 139.301 246.882 139.288 247.606 139.292C247.664 139.292 247.721 139.293 247.78 139.293C248.205 139.292 248.625 139.267 249.048 139.239C250.004 139.178 250.961 139.168 251.918 139.163C252.126 139.162 252.333 139.16 252.541 139.156C252.845 139.151 253.149 139.15 253.453 139.148C253.545 139.146 253.637 139.144 253.731 139.142C254.463 139.144 254.986 139.357 255.577 139.781C255.961 140.334 256.05 140.971 255.974 141.63C255.854 142.211 255.516 142.691 255.104 143.109C254.805 143.277 254.805 143.277 254.495 143.37C254.348 143.415 254.348 143.415 254.197 143.461C253.698 143.584 253.196 143.57 252.684 143.565C252.58 143.565 252.476 143.564 252.369 143.563C251.089 143.548 249.906 143.449 248.686 143.049C247.804 142.767 246.91 142.605 245.997 142.462C242.515 141.896 242.515 141.896 241.098 140.847C240.889 140.543 240.836 140.379 240.842 140.009C240.935 139.674 241.002 139.582 241.272 139.368C241.506 139.285 241.716 139.223 241.957 139.172C242.025 139.157 242.092 139.143 242.162 139.128C242.721 139.019 243.27 138.988 243.838 138.987Z" fill="#FEDE59"/>
<path d="M179.193 109.441C179.417 109.528 179.639 109.595 179.87 109.659C180.209 109.758 180.51 109.886 180.82 110.054C180.99 110.144 180.99 110.144 181.199 110.22C181.418 110.311 181.59 110.416 181.784 110.551C182.335 110.927 182.883 111.288 183.507 111.53C183.827 111.673 184.145 111.821 184.462 111.97C184.651 112.058 184.841 112.143 185.031 112.229C186.379 112.845 187.584 113.522 188.64 114.574C188.705 114.634 188.77 114.694 188.837 114.756C188.988 114.922 188.988 114.922 189.037 115.211C188.975 115.614 188.878 115.881 188.553 116.14C188.193 116.229 187.845 116.218 187.476 116.206C187.375 116.204 187.273 116.202 187.169 116.2C186.37 116.172 185.716 116.04 184.986 115.705C184.902 115.669 184.818 115.632 184.732 115.595C184.425 115.458 184.121 115.314 183.818 115.169C182.983 114.795 182.112 114.604 181.224 114.4C181.059 114.362 180.895 114.324 180.731 114.285C179.874 114.085 179.015 113.895 178.152 113.721C175.375 113.161 175.375 113.161 174.819 112.454C174.476 111.898 174.337 111.394 174.46 110.747C174.708 109.974 175.19 109.507 175.874 109.099C176.933 108.799 178.19 109.042 179.193 109.441Z" fill="#FEDE5B"/>
<path d="M221.023 88.28C221.075 88.316 221.127 88.352 221.181 88.3891C221.235 88.426 221.29 88.4629 221.346 88.5009C221.771 88.8233 221.987 89.1851 222.137 89.694C222.182 90.0795 222.179 90.4591 222.17 90.8467C222.169 90.9541 222.167 91.0614 222.166 91.172C222.138 92.5757 222.053 93.8628 221.584 95.1934C221.238 96.1848 221.012 97.1875 220.833 98.2195C220.432 100.527 220.432 100.527 219.886 101.552C219.857 101.61 219.827 101.668 219.796 101.728C219.262 102.748 219.262 102.748 218.919 103.091C218.533 103.134 218.173 103.168 217.837 102.961C217.228 101.987 217.181 100.495 217.396 99.3882C217.434 99.2342 217.472 99.0802 217.51 98.9263C217.787 97.7727 217.825 96.6584 217.818 95.4785C217.817 95.3956 217.817 95.3127 217.816 95.2273C217.812 94.6261 217.803 94.025 217.793 93.4239C217.784 92.8168 217.777 92.2097 217.772 91.6026C217.769 91.3623 217.764 91.1222 217.759 90.882C217.758 90.7347 217.756 90.5873 217.755 90.4399C217.753 90.3743 217.751 90.3088 217.749 90.2413C217.748 89.7498 217.893 89.4196 218.136 88.9981C218.164 88.9377 218.193 88.8773 218.223 88.8151C218.429 88.4236 218.828 88.2275 219.234 88.0883C219.851 87.9472 220.472 87.9513 221.023 88.28Z" fill="#FEDE5B"/>
<path d="M251.624 120.925C252.197 121.363 252.601 121.9 252.697 122.626C252.725 123.352 252.463 123.956 251.972 124.492C250.213 126.145 247.251 126.067 244.996 126.254C244.904 126.261 244.813 126.269 244.718 126.277C243.723 126.36 242.728 126.423 241.729 126.442C241.646 126.446 241.562 126.449 241.476 126.452C241.073 126.455 240.899 126.455 240.574 126.197C240.517 126.122 240.46 126.048 240.402 125.971C240.344 125.913 240.287 125.856 240.228 125.797C240.198 125.513 240.198 125.513 240.195 125.166C240.193 125.053 240.19 124.939 240.188 124.822C240.235 124.432 240.31 124.26 240.576 123.97C241.14 123.694 241.759 123.588 242.37 123.453C244.249 123.026 245.913 122.421 247.617 121.512C250.248 120.115 250.248 120.115 251.624 120.925Z" fill="#FEDE5B"/>
<path d="M201.95 153.2C202.41 153.356 202.629 153.601 202.907 153.983C203.209 154.887 202.675 155.744 202.329 156.567C202.196 156.889 202.069 157.213 201.945 157.539C201.904 157.644 201.864 157.75 201.822 157.859C201.499 158.771 201.29 159.678 201.159 160.636C200.993 161.841 200.743 162.997 200.384 164.161C200.327 164.161 200.269 164.161 200.21 164.161C200.202 164.213 200.193 164.265 200.184 164.318C200.112 164.546 200.027 164.628 199.846 164.781C199.796 164.824 199.747 164.868 199.695 164.912C199.078 165.317 198.266 165.299 197.562 165.165C196.965 164.967 196.531 164.573 196.214 164.036C195.763 163.027 196.048 162.023 196.414 161.043C196.589 160.594 196.777 160.156 196.991 159.724C197.064 159.572 197.064 159.572 197.139 159.417C197.37 158.938 197.6 158.475 197.927 158.052C198.124 157.773 198.274 157.466 198.435 157.165C198.577 156.905 198.736 156.662 198.905 156.419C199.15 156.072 199.15 156.072 199.329 155.69C199.423 155.472 199.521 155.332 199.667 155.146C199.882 154.869 200.052 154.588 200.216 154.276C200.66 153.437 200.98 153.119 201.95 153.2Z" fill="#FEDE5B"/>
<path d="M198.333 93.9368C198.843 94.2236 199.18 94.7085 199.516 95.1748C199.561 95.2349 199.606 95.295 199.653 95.3569C200.08 95.9383 200.388 96.5473 200.685 97.2028C200.734 97.3101 200.783 97.4173 200.832 97.5245C201.284 98.5154 201.694 99.5243 202.034 100.559C202.124 100.825 202.222 101.086 202.324 101.348C202.361 101.444 202.399 101.541 202.437 101.641C202.515 101.842 202.594 102.043 202.672 102.244C203.328 103.939 203.328 103.939 203.257 104.483C203.044 104.9 202.803 105.141 202.387 105.353C201.963 105.466 201.543 105.501 201.141 105.293C200.555 104.836 200.261 104.071 199.947 103.421C199.673 102.875 199.337 102.364 199.005 101.852C198.92 101.719 198.835 101.586 198.75 101.453C198.564 101.163 198.383 100.901 198.135 100.661C198.074 100.602 198.013 100.542 197.95 100.481C197.95 100.424 197.95 100.367 197.95 100.307C197.864 100.279 197.778 100.25 197.689 100.22C197.555 100.087 197.555 100.087 197.412 99.916C197.359 99.854 197.306 99.792 197.252 99.7281C197.195 99.6609 197.138 99.5937 197.08 99.5245C196.955 99.3809 196.83 99.2377 196.705 99.095C196.648 99.0296 196.591 98.9642 196.532 98.8969C196.394 98.7341 196.394 98.7341 196.21 98.6546C196.167 98.5254 196.167 98.5254 196.123 98.3936C196.037 98.3362 195.951 98.2787 195.862 98.2196C195.771 98.0769 195.685 97.9312 195.601 97.7846C195.466 97.5832 195.33 97.383 195.193 97.1831C194.895 96.7078 194.955 96.1504 194.992 95.6098C195.248 94.869 195.81 94.4198 196.471 94.0439C197.032 93.7714 197.74 93.7474 198.333 93.9368Z" fill="#FDDE5B"/>
<path d="M180.387 128.369C180.549 128.368 180.711 128.368 180.873 128.367C181.208 128.367 181.544 128.367 181.88 128.368C182.309 128.369 182.738 128.367 183.167 128.364C183.5 128.363 183.833 128.363 184.166 128.363C184.324 128.363 184.482 128.363 184.64 128.362C184.861 128.36 185.082 128.361 185.303 128.363C185.367 128.362 185.431 128.361 185.497 128.36C186.042 128.368 186.506 128.539 186.903 128.919C187.108 129.341 187.071 129.896 186.932 130.338C186.738 130.712 186.483 130.902 186.122 131.103C185.854 131.176 185.584 131.212 185.308 131.246C185.146 131.269 184.984 131.292 184.822 131.315C184.737 131.327 184.653 131.338 184.567 131.35C183.144 131.548 181.8 131.78 180.459 132.309C180.167 132.424 179.873 132.532 179.579 132.64C179.085 132.82 178.592 133.004 178.1 133.19C177.364 133.459 176.581 133.641 175.81 133.376C175.259 133.052 174.795 132.536 174.593 131.925C174.455 131.202 174.458 130.422 174.842 129.778C174.906 129.694 174.906 129.694 174.971 129.608C175.013 129.551 175.055 129.494 175.098 129.436C176.181 128.289 178.927 128.366 180.387 128.369Z" fill="#FDDE5B"/>
<path d="M233.004 153.374C233.231 153.566 233.231 153.566 233.439 153.809C233.503 153.88 233.568 153.951 233.635 154.025C233.705 154.102 233.775 154.18 233.846 154.26C235.233 155.777 236.649 157.023 238.404 158.094C238.842 158.363 239.258 158.656 239.67 158.963C239.726 159.005 239.783 159.047 239.841 159.091C240.481 159.577 241.002 160.026 241.119 160.856C241.149 161.5 240.865 162.038 240.572 162.595C240.515 162.595 240.457 162.595 240.398 162.595C240.377 162.647 240.357 162.699 240.335 162.752C240.201 162.984 240.063 163.077 239.838 163.221C239.77 163.265 239.702 163.309 239.632 163.355C239.308 163.543 239.043 163.569 238.675 163.574C238.586 163.576 238.498 163.579 238.406 163.581C237.345 163.469 236.371 162.304 235.728 161.513C235.511 161.239 235.3 160.96 235.091 160.679C235.046 160.618 235 160.556 234.953 160.493C234.862 160.371 234.772 160.249 234.683 160.127C234.434 159.79 234.172 159.497 233.873 159.203C233.789 159.056 233.705 158.91 233.625 158.762C233.513 158.572 233.384 158.405 233.247 158.233C232.927 157.826 232.619 157.412 232.313 156.995C232.234 156.887 232.234 156.887 232.153 156.777C232.049 156.636 231.945 156.494 231.841 156.352C231.717 156.183 231.593 156.015 231.468 155.847C231.406 155.763 231.344 155.679 231.28 155.592C231.227 155.521 231.175 155.451 231.121 155.378C230.892 155.034 230.875 154.734 230.916 154.331C231.331 153.474 232.085 153.189 233.004 153.374Z" fill="#FDDE5B"/>
</svg>
